<?xml version="1.0" standalone="no"?>
<!DOCTYPE svg PUBLIC "-//W3C//DTD SVG 1.1//EN" "http://www.w3.org/Graphics/SVG/1.1/DTD/svg11.dtd" >
<svg xmlns="http://www.w3.org/2000/svg" xmlns:xlink="http://www.w3.org/1999/xlink" version="1.1">
<metadata>
Created by FontForge 20201107 at Wed Jun 18 23:03:51 2025
 By 
</metadata>
<defs>
<font id="itfQomraArabic-Medium" horiz-adv-x="0" >
  <font-face 
    font-family="itf Qomra Arabic Med"
    font-weight="500"
    font-stretch="normal"
    units-per-em="2048"
    panose-1="0 0 0 0 0 0 0 0 0 0"
    ascent="1638"
    descent="-410"
    x-height="1044"
    cap-height="1454"
    bbox="-515 -1070 3579 2412"
    underline-thickness="102"
    underline-position="-255"
    unicode-range="U+000D-FEFC"
  />
<missing-glyph horiz-adv-x="601" 
 />
    <glyph glyph-name="behDotlessAr.init" unicode="&#x66e;" horiz-adv-x="637" 
d="M210 730l177 153q72 -112 97 -252t25 -372v-259h-509v207l77 39h294q-23 232 -161 484z" />
    <glyph glyph-name="behDotlessAr.medi" unicode="&#x66e;" horiz-adv-x="642" 
d="M210 730l177 153q72 -112 97 -252t25 -372v-13h213v-220l-79 -26h-643v207l77 39h294q-23 232 -161 484z" />
    <glyph glyph-name="behDotlessAr.fina" unicode="&#x66e;" horiz-adv-x="1743" 
d="M1311 730l176 153q72 -112 97.5 -252.5t25.5 -371.5v-13h213v-220l-80 -26h-1195q-235 0 -353 92.5t-118 301.5q0 145 71 379l64 -13q-15 -135 -15 -215q0 -112 36 -175.5t123.5 -93.5t245.5 -30h870q-23 232 -161 484z" />
    <glyph glyph-name="qafDotlessAr.init" unicode="&#x66f;" horiz-adv-x="1013" 
d="M79 246h681v184h-640v238q0 251 98.5 389.5t265.5 138.5q175 0 289.5 -150.5t114.5 -402.5v-643h-888v200zM225 625h533q-19 155 -121.5 249t-221.5 94q-98 0 -144 -76t-46 -232v-35z" />
    <glyph glyph-name="qafDotlessAr.medi" unicode="&#x66f;" horiz-adv-x="1008" 
d="M79 246h146q-74 145 -65.5 277t68.5 232t156 159t197 59q145 0 244 -116t99 -276q0 -198 -174 -335h338v-213l-77 -33h-1011v202zM259 522q6 -44 71.5 -119t150.5 -137q115 46 201.5 111t93.5 117q0 27 -16.5 67t-46.5 82t-83.5 72t-117.5 30q-75 0 -135.5 -40.5
t-89 -90.5t-28.5 -92z" />
    <glyph glyph-name="qafDotlessAr.fina" unicode="&#x66f;" horiz-adv-x="1377" 
d="M1293 0q-13 -112 -62.5 -207t-122 -160.5t-164.5 -111.5t-190 -67.5t-198 -21.5q-117 0 -210 27t-153.5 73.5t-100.5 112.5t-57 139.5t-17 159.5q0 193 69 394l67 -18q-18 -142 -18 -233q0 -98 19.5 -169t69 -129.5t143 -88.5t231.5 -30q140 0 270 34t217 104t81 159
l-5 30h-632v285q0 252 97.5 389.5t260.5 137.5q173 0 287 -148.5t120 -414.5h162v-202q-5 -14 -32 -27.5t-45 -16.5h-87zM635 230h532q-24 161 -124.5 257.5t-218.5 96.5q-98 0 -143.5 -76t-45.5 -232v-46z" />
    <glyph glyph-name="fehDotlessAr.init" unicode="&#x6a1;" horiz-adv-x="1013" 
d="M79 246h681v184h-640v238q0 251 98.5 389.5t265.5 138.5q175 0 289.5 -150.5t114.5 -402.5v-643h-888v200zM225 625h533q-19 155 -121.5 249t-221.5 94q-98 0 -144 -76t-46 -232v-35z" />
    <glyph glyph-name="fehDotlessAr.medi" unicode="&#x6a1;" horiz-adv-x="1008" 
d="M79 246h146q-74 145 -65.5 277t68.5 232t156 159t197 59q145 0 244 -116t99 -276q0 -198 -174 -335h338v-213l-77 -33h-1011v202zM259 522q6 -44 71.5 -119t150.5 -137q115 46 201.5 111t93.5 117q0 27 -16.5 67t-46.5 82t-83.5 72t-117.5 30q-75 0 -135.5 -40.5
t-89 -90.5t-28.5 -92z" />
    <glyph glyph-name="fehDotlessAr.fina" unicode="&#x6a1;" horiz-adv-x="1927" 
d="M148 773l64 -13q-15 -135 -15 -215q0 -112 36 -175.5t123.5 -93.5t245.5 -30h542q-74 145 -65.5 277t68.5 232t156 159t197 59q145 0 244 -116t99 -276q0 -198 -174 -335h338v-213l-77 -33h-1382q-235 0 -353 92.5t-118 301.5q0 145 71 379zM1178 522q6 -44 71.5 -119
t150.5 -137q115 46 201.5 111t93.5 117q0 27 -16.5 67t-46.5 82t-83.5 72t-117.5 30q-75 0 -135.5 -40.5t-89 -90.5t-28.5 -92z" />
    <glyph glyph-name="noonghunnaAr.init" unicode="&#x6ba;" horiz-adv-x="637" 
d="M210 730l177 153q72 -112 97 -252t25 -372v-259h-509v207l77 39h294q-23 232 -161 484z" />
    <glyph glyph-name="noonghunnaAr.medi" unicode="&#x6ba;" horiz-adv-x="642" 
d="M210 730l177 153q72 -112 97 -252t25 -372v-13h213v-220l-79 -26h-643v207l77 39h294q-23 232 -161 484z" />
    <glyph glyph-name="uniFB57" unicode="&#x67e;" horiz-adv-x="1743" arabic-form="final" 
d="M548 0q-235 0 -353 92.5t-118 301.5q0 145 71 379l64 -13q-15 -135 -15 -215q0 -112 36 -175.5t123.5 -93.5t245.5 -30h870q-23 232 -161 484l176 153q72 -112 97.5 -252.5t25.5 -371.5v-13h213v-220l-80 -26h-1195zM538 -356l151 149l135 -133l133 133l151 -149
l-151 -151l-133 133l-135 -133zM678 -622l146 146l146 -146l-146 -146z" />
    <glyph glyph-name="uniFB58" unicode="&#x67e;" horiz-adv-x="637" arabic-form="initial" 
d="M210 730l177 153q72 -112 97 -252t25 -372v-259h-509v207l77 39h294q-23 232 -161 484zM-115 -356l151 149l136 -136l135 136l151 -149l-151 -151l-135 136l-136 -136zM26 -622l146 146l145 -146l-145 -146z" />
    <glyph glyph-name="uniFB59" unicode="&#x67e;" horiz-adv-x="642" arabic-form="medial" 
d="M210 730l177 153q72 -112 97 -252t25 -372v-13h213v-220l-79 -26h-643v207l77 39h294q-23 232 -161 484zM-10 -356l151 149l135 -136l136 136l151 -149l-151 -151l-136 136l-135 -136zM133 -622l146 146l146 -146l-146 -146z" />
    <glyph glyph-name="uniFB6B" unicode="&#x6a4;" horiz-adv-x="1927" arabic-form="final" 
d="M148 773l64 -13q-15 -135 -15 -215q0 -112 36 -175.5t123.5 -93.5t245.5 -30h542q-74 145 -65.5 277t68.5 232t156 159t197 59q145 0 244 -116t99 -276q0 -198 -174 -335h338v-213l-77 -33h-1382q-235 0 -353 92.5t-118 301.5q0 145 71 379zM1178 522q6 -44 71.5 -119
t150.5 -137q115 46 201.5 111t93.5 117q0 27 -16.5 67t-46.5 82t-83.5 72t-117.5 30q-75 0 -135.5 -40.5t-89 -90.5t-28.5 -92zM1331 1180l-151 149l151 151l138 -136l134 133l151 -151l-151 -148l-136 135zM1469 1449l-145 146l145 146l146 -146z" />
    <glyph glyph-name="uniFB6C" unicode="&#x6a4;" horiz-adv-x="1013" arabic-form="initial" 
d="M79 246h681v184h-640v238q0 251 98.5 389.5t265.5 138.5q175 0 289.5 -150.5t114.5 -402.5v-643h-888v200zM225 625h533q-19 155 -121.5 249t-221.5 94q-98 0 -144 -76t-46 -232v-35zM340 1403l-151 148l151 151l139 -135l133 133l151 -151l-151 -149l-136 136zM476 1669
l-146 146l146 146l146 -146z" />
    <glyph glyph-name="uniFB6D" unicode="&#x6a4;" horiz-adv-x="1008" arabic-form="medial" 
d="M79 246h146q-74 145 -65.5 277t68.5 232t156 159t197 59q145 0 244 -116t99 -276q0 -198 -174 -335h338v-213l-77 -33h-1011v202zM259 522q6 -44 71.5 -119t150.5 -137q115 46 201.5 111t93.5 117q0 27 -16.5 67t-46.5 82t-83.5 72t-117.5 30q-75 0 -135.5 -40.5
t-89 -90.5t-28.5 -92zM407 1180l-151 149l151 151l136 -136l135 136l151 -151l-151 -149l-135 136zM543 1449l-146 146l146 146l146 -146z" />
    <glyph glyph-name="uniFB7B" unicode="&#x686;" horiz-adv-x="1259" arabic-form="final" 
d="M676 -348h525v-56l-551 -210q-120 14 -226 55t-192.5 107.5t-137 167.5t-50.5 223q0 449 696 683q-32 6 -102.5 19.5t-108 20.5t-89.5 13t-92 6q-124 0 -258 -72l-39 54q68 131 136.5 191t173.5 60q57 0 129.5 -19.5t136 -43.5t165.5 -43.5t212 -19.5h168l-25 -204
q-29 -6 -141 -36q-7 -44 -7 -78.5t8 -71t31.5 -62.5t60.5 -47t97 -32t140 -11v-220l-76 -26q-84 0 -150 19t-108.5 53.5t-72.5 82t-40.5 104.5t-12.5 121t10 132q-110 -36 -208.5 -78.5t-192 -97.5t-161.5 -114.5t-109 -131t-41 -144.5q0 -61 28 -112.5t85.5 -93t157 -65
t231.5 -23.5zM438 84l105 105l94 -94l95 97l105 -105l-105 -105l-92 92l-97 -94zM535 -100l102 103l103 -103l-103 -102z" />
    <glyph glyph-name="uniFB7C" unicode="&#x686;" horiz-adv-x="1231" arabic-form="initial" 
d="M0 0v187l79 59h702q-84 70 -172 199q-74 107 -144 165t-150 58q-72 0 -195 -48l-41 56q24 48 46.5 83.5t56.5 71.5t78 55.5t96 19.5q36 0 71 -10.5t62.5 -26t58 -44t51 -52t49 -64.5t44.5 -66.5t45 -71.5q39 -63 62.5 -98.5t63 -85t72 -76t76.5 -46t90 -19.5h92l-36 -246
h-1157zM266 -356l151 149l136 -136l136 136l151 -149l-151 -151l-136 136l-136 -136zM407 -622l146 146l146 -146l-146 -146z" />
    <glyph glyph-name="uniFB7D" unicode="&#x686;" horiz-adv-x="1144" arabic-form="medial" 
d="M0 0v187l79 59h702q-84 70 -172 199q-74 107 -144 165t-150 58q-72 0 -195 -48l-41 56q24 48 46.5 83.5t56.5 71.5t78 55.5t96 19.5q36 0 71 -10.5t62.5 -26t58 -44t51 -52t49 -64.5t44.5 -66.5t45 -71.5q39 -63 62.5 -98.5t63 -85t72 -76t76.5 -46t90 -19.5h123v-200
q0 -18 -20.5 -29.5t-46.5 -16.5h-1157zM189 -356l151 149l136 -136l136 136l151 -149l-151 -151l-136 136l-136 -136zM330 -622l146 146l146 -146l-146 -146z" />
    <glyph glyph-name="uniFB9F" unicode="&#x6ba;" horiz-adv-x="1344" arabic-form="final" 
d="M899 545l184 144q100 -192 120 -443h220v-208l-76 -38h-162q-29 -110 -95.5 -198.5t-154 -143.5t-188.5 -84.5t-204 -29.5q-252 0 -388.5 136t-136.5 364q0 176 72 394l66 -16q-20 -126 -20 -238q0 -188 105 -289.5t322 -101.5q122 0 240.5 34t195 92.5t76.5 124.5
q0 62 -57.5 226.5t-118.5 274.5z" />
    <glyph glyph-name="uniFBE8" unicode="&#x649;" horiz-adv-x="637" arabic-form="initial" 
d="M210 730l177 153q72 -112 97 -252t25 -372v-259h-509v207l77 39h294q-23 232 -161 484z" />
    <glyph glyph-name="uniFBE9" unicode="&#x649;" horiz-adv-x="642" arabic-form="medial" 
d="M210 730l177 153q72 -112 97 -252t25 -372v-13h213v-220l-79 -26h-643v207l77 39h294q-23 232 -161 484z" />
    <glyph glyph-name="uniFDF2" unicode="&#xfdf2;" horiz-adv-x="3066" arabic-form="isolated" 
 />
    <glyph glyph-name="uniFE82" unicode="&#x622;" horiz-adv-x="445" arabic-form="final" 
d="M113 1193l202 49v-996h210v-220l-80 -26h-286zM445 1572l-15 -128h-287q-17 0 -34 -3t-28.5 -6t-30 -11t-25.5 -11.5t-27.5 -14.5t-23.5 -13l-51 64q45 40 72.5 61t73.5 41.5t90 20.5h286z" />
    <glyph glyph-name="uniFE84" unicode="&#x623;" horiz-adv-x="445" arabic-form="final" 
d="M113 1193l202 49v-996h210v-220l-80 -26h-286zM-8 1413l136 49q-92 49 -92 156q0 78 51 126t131 48q95 0 151 -56l-26 -90q-67 23 -128 23q-46 0 -79.5 -20.5t-33.5 -48.5q0 -14 8.5 -27.5t30 -27t58 -21t92 -11t131.5 4.5l-18 -123l-412 -46v64z" />
    <glyph glyph-name="uniFE86" unicode="&#x624;" horiz-adv-x="931" arabic-form="final" 
d="M852 0q-18 -98 -63 -189t-107 -163.5t-125 -127t-132 -99.5l-358 190v74h135q124 0 224.5 26t165 71.5t103 100t50.5 117.5h-648v284q0 252 98 390t263 138q173 0 287 -150t120 -416h144v-202q-5 -14 -32 -27.5t-45 -16.5h-80zM205 233h530q-24 161 -123.5 257t-217.5 96
q-99 0 -144 -75t-45 -232v-46zM248 978l136 49q-92 49 -92 156q0 78 51 126t131 48q94 0 151 -57l-26 -89q-67 23 -128 23q-46 0 -79.5 -20.5t-33.5 -48.5q0 -14 8.5 -27.5t30 -27t58 -21t92 -11t131.5 4.5l-18 -123l-412 -46v64z" />
    <glyph glyph-name="uniFE88" unicode="&#x625;" horiz-adv-x="445" arabic-form="final" 
d="M113 1413l202 46v-1213h210v-220l-80 -26h-286zM-28 -504l136 48q-93 50 -93 156q0 78 51.5 126.5t130.5 48.5q94 0 151 -57l-25 -89q-76 20 -128 20q-46 0 -79.5 -19t-33.5 -47q0 -14 8.5 -27.5t30 -27t58 -21t92 -11t131.5 4.5l-18 -123l-412 -46v64z" />
    <glyph glyph-name="uniFE8A" unicode="&#x626;" horiz-adv-x="1249" arabic-form="final" 
d="M722 84l38 162h581v-159l-56 -54q69 -57 69 -151q0 -128 -112 -241.5t-290 -179t-368 -65.5q-134 0 -236 33.5t-163.5 87t-100 130t-52.5 152t-14 163.5q0 204 74 435l64 -16q-20 -142 -20 -307q0 -68 9.5 -123.5t40.5 -115t82 -100t140 -67t209 -26.5q143 0 291 36.5
t241 90.5t93 103q0 38 -126 91.5t-366 113.5zM-95 581l136 49q-92 49 -92 156q0 78 51 126t131 48q95 0 151 -56l-26 -90q-67 23 -128 23q-46 0 -79.5 -20.5t-33.5 -48.5q0 -14 8.5 -27.5t30 -27t58 -21t92 -11t131.5 4.5l-18 -123l-412 -46v64z" />
    <glyph glyph-name="uniFE8B" unicode="&#x626;" horiz-adv-x="637" arabic-form="initial" 
d="M210 730l177 153q72 -112 97 -252t25 -372v-259h-509v207l77 39h294q-23 232 -161 484zM90 1055l135 48q-92 49 -92 157q0 78 51 126t131 48q94 0 151 -57l-26 -89q-67 23 -128 23q-46 0 -79 -20.5t-33 -48.5q0 -14 8.5 -27.5t30 -27t58 -21t92 -11t131.5 4.5l-18 -123
l-412 -46v64z" />
    <glyph glyph-name="uniFE8C" unicode="&#x626;" horiz-adv-x="642" arabic-form="medial" 
d="M210 730l177 153q72 -112 97 -252t25 -372v-13h213v-220l-79 -26h-643v207l77 39h294q-23 232 -161 484zM113 1055l135 48q-92 49 -92 157q0 78 51 126t131 48q94 0 151 -57l-26 -89q-67 23 -128 23q-46 0 -79 -20.5t-33 -48.5q0 -14 8.5 -27.5t30 -27t58 -21t92 -11
t131.5 4.5l-18 -123l-412 -46v64z" />
    <glyph glyph-name="uniFE8E" unicode="&#x627;" horiz-adv-x="445" arabic-form="final" 
d="M113 1413l202 46v-1213h210v-220l-80 -26h-286z" />
    <glyph glyph-name="uniFE90" unicode="&#x628;" horiz-adv-x="1743" arabic-form="final" 
d="M1311 730l176 153q72 -112 97.5 -252.5t25.5 -371.5v-13h213v-220l-80 -26h-1195q-235 0 -353 92.5t-118 301.5q0 145 71 379l64 -13q-15 -135 -15 -215q0 -112 36 -175.5t123.5 -93.5t245.5 -30h870q-23 232 -161 484zM822 -494l-156 156l156 154l156 -154z" />
    <glyph glyph-name="uniFE91" unicode="&#x628;" horiz-adv-x="637" arabic-form="initial" 
d="M210 730l177 153q72 -112 97 -252t25 -372v-259h-509v207l77 39h294q-23 232 -161 484zM271 -494l-156 156l156 154l157 -154z" />
    <glyph glyph-name="uniFE92" unicode="&#x628;" horiz-adv-x="642" arabic-form="medial" 
d="M210 730l177 153q72 -112 97 -252t25 -372v-13h213v-220l-79 -26h-643v207l77 39h294q-23 232 -161 484zM276 -494l-156 156l156 154l157 -154z" />
    <glyph glyph-name="uniFE94" unicode="&#x629;" horiz-adv-x="1026" arabic-form="final" 
d="M691 1052l190 46v-670q0 -60 15 -98t47.5 -55.5t67.5 -23t92 -5.5v-200q-3 -18 -28.5 -32t-45.5 -14q-121 0 -190.5 60.5t-96.5 190.5q-68 -87 -167 -143.5t-206 -56.5q-130 0 -212.5 83.5t-82.5 229.5q0 162 105 278.5t287 176.5l233 80zM407 287q79 0 164.5 26
t155.5 68l-15 300l-277 -64q-44 -11 -83.5 -27t-75.5 -39t-57.5 -55.5t-21.5 -70.5q0 -64 59 -101t151 -37zM284 1201l-151 148l151 151l138 -136l134 134l151 -151l-151 -149l-136 136z" />
    <glyph glyph-name="uniFE96" unicode="&#x62a;" horiz-adv-x="1743" arabic-form="final" 
d="M548 0q-235 0 -353 92.5t-118 301.5q0 145 71 379l64 -13q-15 -135 -15 -215q0 -112 36 -175.5t123.5 -93.5t245.5 -30h870q-23 232 -161 484l176 153q72 -112 97.5 -252.5t25.5 -371.5v-13h213v-220l-80 -26h-1195zM681 924l-151 149l151 151l138 -136l133 133l151 -151
l-151 -148l-135 135z" />
    <glyph glyph-name="uniFE97" unicode="&#x62a;" horiz-adv-x="637" arabic-form="initial" 
d="M210 730l177 153q72 -112 97 -252t25 -372v-259h-509v207l77 39h294q-23 232 -161 484zM172 1091l-152 148l152 151l138 -136l133 134l151 -152l-151 -148l-136 136z" />
    <glyph glyph-name="uniFE98" unicode="&#x62a;" horiz-adv-x="642" arabic-form="medial" 
d="M210 730l177 153q72 -112 97 -252t25 -372v-13h213v-220l-79 -26h-643v207l77 39h294q-23 232 -161 484zM195 1091l-151 148l151 151l138 -136l133 134l151 -152l-151 -148l-136 136z" />
    <glyph glyph-name="uniFE9A" unicode="&#x62b;" horiz-adv-x="1743" arabic-form="final" 
d="M548 0q-235 0 -353 92.5t-118 301.5q0 145 71 379l64 -13q-15 -135 -15 -215q0 -112 36 -175.5t123.5 -93.5t245.5 -30h870q-23 232 -161 484l176 153q72 -112 97.5 -252.5t25.5 -371.5v-13h213v-220l-80 -26h-1195zM681 924l-151 149l151 151l138 -136l133 133l151 -151
l-151 -148l-135 135zM819 1190l-146 146l146 146l146 -146z" />
    <glyph glyph-name="uniFE9B" unicode="&#x62b;" horiz-adv-x="637" arabic-form="initial" 
d="M210 730l177 153q72 -112 97 -252t25 -372v-259h-509v207l77 39h294q-23 232 -161 484zM174 1091l-151 148l151 151l138 -136l133 134l151 -152l-151 -148l-135 136zM310 1357l-146 146l146 146l146 -146z" />
    <glyph glyph-name="uniFE9C" unicode="&#x62b;" horiz-adv-x="642" arabic-form="medial" 
d="M210 730l177 153q72 -112 97 -252t25 -372v-13h213v-220l-79 -26h-643v207l77 39h294q-23 232 -161 484zM195 1091l-151 148l151 151l138 -136l133 134l151 -152l-151 -148l-136 136zM333 1357l-146 146l146 146l146 -146z" />
    <glyph glyph-name="uniFE9E" unicode="&#x62c;" horiz-adv-x="1259" arabic-form="final" 
d="M676 -348h525v-56l-551 -210q-120 14 -226 55t-192.5 107.5t-137 167.5t-50.5 223q0 449 696 683q-32 6 -102.5 19.5t-108 20.5t-89.5 13t-92 6q-124 0 -258 -72l-39 54q68 131 136.5 191t173.5 60q57 0 129.5 -19.5t136 -43.5t165.5 -43.5t212 -19.5h168l-25 -204
q-29 -6 -141 -36q-7 -44 -7 -78.5t8 -71t31.5 -62.5t60.5 -47t97 -32t140 -11v-220l-76 -26q-84 0 -150 19t-108.5 53.5t-72.5 82t-40.5 104.5t-12.5 121t10 132q-110 -36 -208.5 -78.5t-192 -97.5t-161.5 -114.5t-109 -131t-41 -144.5q0 -61 28 -112.5t85.5 -93t157 -65
t231.5 -23.5zM640 -84l-151 148l151 151l151 -151z" />
    <glyph glyph-name="uniFE9F" unicode="&#x62c;" horiz-adv-x="1231" arabic-form="initial" 
d="M0 0v187l79 59h702q-84 70 -172 199q-74 107 -144 165t-150 58q-72 0 -195 -48l-41 56q24 48 46.5 83.5t56.5 71.5t78 55.5t96 19.5q36 0 71 -10.5t62.5 -26t58 -44t51 -52t49 -64.5t44.5 -66.5t45 -71.5q39 -63 62.5 -98.5t63 -85t72 -76t76.5 -46t90 -19.5h92l-36 -246
h-1157zM550 -494l-156 156l156 154l157 -154z" />
    <glyph glyph-name="uniFEA0" unicode="&#x62c;" horiz-adv-x="1144" arabic-form="medial" 
d="M0 0v187l79 59h702q-84 70 -172 199q-74 107 -144 165t-150 58q-72 0 -195 -48l-41 56q24 48 46.5 83.5t56.5 71.5t78 55.5t96 19.5q36 0 71 -10.5t62.5 -26t58 -44t51 -52t49 -64.5t44.5 -66.5t45 -71.5q39 -63 62.5 -98.5t63 -85t72 -76t76.5 -46t90 -19.5h123v-200
q0 -18 -20.5 -29.5t-46.5 -16.5h-1157zM474 -494l-157 156l157 154l156 -154z" />
    <glyph glyph-name="uniFEA2" unicode="&#x62d;" horiz-adv-x="1259" arabic-form="final" 
d="M676 -348h525v-56l-551 -210q-120 14 -226 55t-192.5 107.5t-137 167.5t-50.5 223q0 449 696 683q-32 6 -102.5 19.5t-108 20.5t-89.5 13t-92 6q-124 0 -258 -72l-39 54q68 131 136.5 191t173.5 60q57 0 129.5 -19.5t136 -43.5t165.5 -43.5t212 -19.5h168l-25 -204
q-29 -6 -141 -36q-7 -44 -7 -78.5t8 -71t31.5 -62.5t60.5 -47t97 -32t140 -11v-220l-76 -26q-84 0 -150 19t-108.5 53.5t-72.5 82t-40.5 104.5t-12.5 121t10 132q-110 -36 -208.5 -78.5t-192 -97.5t-161.5 -114.5t-109 -131t-41 -144.5q0 -61 28 -112.5t85.5 -93t157 -65
t231.5 -23.5z" />
    <glyph glyph-name="uniFEA3" unicode="&#x62d;" horiz-adv-x="1231" arabic-form="initial" 
d="M0 0v187l79 59h702q-84 70 -172 199q-74 107 -144 165t-150 58q-72 0 -195 -48l-41 56q24 48 46.5 83.5t56.5 71.5t78 55.5t96 19.5q36 0 71 -10.5t62.5 -26t58 -44t51 -52t49 -64.5t44.5 -66.5t45 -71.5q39 -63 62.5 -98.5t63 -85t72 -76t76.5 -46t90 -19.5h92l-36 -246
h-1157z" />
    <glyph glyph-name="uniFEA4" unicode="&#x62d;" horiz-adv-x="1144" arabic-form="medial" 
d="M0 0v187l79 59h702q-84 70 -172 199q-74 107 -144 165t-150 58q-72 0 -195 -48l-41 56q24 48 46.5 83.5t56.5 71.5t78 55.5t96 19.5q36 0 71 -10.5t62.5 -26t58 -44t51 -52t49 -64.5t44.5 -66.5t45 -71.5q39 -63 62.5 -98.5t63 -85t72 -76t76.5 -46t90 -19.5h123v-200
q0 -18 -20.5 -29.5t-46.5 -16.5h-1157z" />
    <glyph glyph-name="uniFEA6" unicode="&#x62e;" horiz-adv-x="1259" arabic-form="final" 
d="M676 -348h525v-56l-551 -210q-120 14 -226 55t-192.5 107.5t-137 167.5t-50.5 223q0 449 696 683q-32 6 -102.5 19.5t-108 20.5t-89.5 13t-92 6q-124 0 -258 -72l-39 54q68 131 136.5 191t173.5 60q57 0 129.5 -19.5t136 -43.5t165.5 -43.5t212 -19.5h168l-25 -204
q-29 -6 -141 -36q-7 -44 -7 -78.5t8 -71t31.5 -62.5t60.5 -47t97 -32t140 -11v-220l-76 -26q-84 0 -150 19t-108.5 53.5t-72.5 82t-40.5 104.5t-12.5 121t10 132q-110 -36 -208.5 -78.5t-192 -97.5t-161.5 -114.5t-109 -131t-41 -144.5q0 -61 28 -112.5t85.5 -93t157 -65
t231.5 -23.5zM663 1101l-156 156l156 154l156 -154z" />
    <glyph glyph-name="uniFEA7" unicode="&#x62e;" horiz-adv-x="1231" arabic-form="initial" 
d="M0 0v187l79 59h702q-84 70 -172 199q-74 107 -144 165t-150 58q-72 0 -195 -48l-41 56q24 48 46.5 83.5t56.5 71.5t78 55.5t96 19.5q36 0 71 -10.5t62.5 -26t58 -44t51 -52t49 -64.5t44.5 -66.5t45 -71.5q39 -63 62.5 -98.5t63 -85t72 -76t76.5 -46t90 -19.5h92l-36 -246
h-1157zM361 1093l-156 156l156 154l156 -154z" />
    <glyph glyph-name="uniFEA8" unicode="&#x62e;" horiz-adv-x="1144" arabic-form="medial" 
d="M0 0v187l79 59h702q-84 70 -172 199q-74 107 -144 165t-150 58q-72 0 -195 -48l-41 56q24 48 46.5 83.5t56.5 71.5t78 55.5t96 19.5q36 0 71 -10.5t62.5 -26t58 -44t51 -52t49 -64.5t44.5 -66.5t45 -71.5q39 -63 62.5 -98.5t63 -85t72 -76t76.5 -46t90 -19.5h123v-200
q0 -18 -20.5 -29.5t-46.5 -16.5h-1157zM356 1093l-156 156l156 154l156 -154z" />
    <glyph glyph-name="uniFEAA" unicode="&#x62f;" horiz-adv-x="878" arabic-form="final" 
d="M317 988q95 -32 163.5 -69.5t128.5 -95.5t97 -135.5t58 -188t22 -253.5h169v-208q-5 -12 -32 -23.5t-45 -14.5h-840l36 246h571q-2 198 -100 323.5t-309 211.5z" />
    <glyph glyph-name="uniFEAC" unicode="&#x630;" horiz-adv-x="878" arabic-form="final" 
d="M317 988q95 -32 163.5 -69.5t128.5 -95.5t97 -135.5t58 -188t22 -253.5h169v-208q-5 -12 -32 -23.5t-45 -14.5h-840l36 246h571q-2 198 -100 323.5t-309 211.5zM323 1180l-157 156l157 154l156 -154z" />
    <glyph glyph-name="uniFEAE" unicode="&#x631;" horiz-adv-x="576" arabic-form="final" 
d="M-302 -284h120q116 0 213 33t159 87.5t96 121.5t34 137q0 82 -47 202t-130 256l167 164q146 -213 146 -471h199v-220l-79 -26h-156q-51 -168 -164.5 -312t-275.5 -238l-282 189v77z" />
    <glyph glyph-name="uniFEB0" unicode="&#x632;" horiz-adv-x="576" arabic-form="final" 
d="M-302 -284h120q116 0 213 33t159 87.5t96 121.5t34 137q0 82 -47 202t-130 256l167 164q146 -213 146 -471h199v-220l-79 -26h-156q-51 -168 -164.5 -312t-275.5 -238l-282 189v77zM264 906l-156 156l156 154l156 -154z" />
    <glyph glyph-name="uniFEB2" unicode="&#x633;" horiz-adv-x="2401" arabic-form="final" 
d="M1969 684l176 153q74 -114 100 -240.5t26 -314.5v-36h212v-220l-79 -26h-438q-157 0 -253 169q-47 -89 -123 -129t-162 -40h-232q-21 -122 -86 -221t-155.5 -160t-196 -93.5t-215.5 -32.5q-252 0 -388.5 135.5t-136.5 363.5q0 177 72 395l66 -16q-20 -126 -20 -238
q0 -188 105 -290t322 -102q122 0 240.5 34t195 92.5t76.5 124.5q0 62 -57.5 227t-118.5 275l184 143q87 -170 115 -391h371l98 325l163 23l-69 -277q63 -71 172 -71h197q-21 192 -161 438z" />
    <glyph glyph-name="uniFEB3" unicode="&#x633;" horiz-adv-x="1635" arabic-form="initial" 
d="M369 568l166 26l-102 -282q134 -66 271 -66h123l95 322l166 26l-74 -289q59 -59 158 -59h198q-21 189 -162 438l177 153q74 -113 99.5 -239.5t25.5 -315.5v-282h-304q-149 0 -243 151q-84 -151 -269 -151q-191 0 -341 133q-55 -76 -138.5 -104.5t-214.5 -28.5v200l79 46
h154z" />
    <glyph glyph-name="uniFEB4" unicode="&#x633;" horiz-adv-x="1643" arabic-form="medial" 
d="M1208 684l177 153q74 -113 99.5 -239.5t25.5 -315.5v-36h213v-220l-79 -26h-438q-149 0 -243 151q-84 -151 -269 -151q-191 0 -341 133q-55 -76 -138.5 -104.5t-214.5 -28.5v200l79 46h154l136 322l166 26l-102 -282q134 -66 271 -66h123l95 322l166 26l-74 -289
q59 -59 158 -59h198q-21 189 -162 438z" />
    <glyph glyph-name="uniFEB6" unicode="&#x634;" horiz-adv-x="2401" arabic-form="final" 
d="M1969 684l176 153q74 -114 100 -240.5t26 -314.5v-36h212v-220l-79 -26h-438q-157 0 -253 169q-47 -89 -123 -129t-162 -40h-232q-21 -122 -86 -221t-155.5 -160t-196 -93.5t-215.5 -32.5q-252 0 -388.5 135.5t-136.5 363.5q0 177 72 395l66 -16q-20 -126 -20 -238
q0 -188 105 -290t322 -102q122 0 240.5 34t195 92.5t76.5 124.5q0 62 -57.5 227t-118.5 275l184 143q87 -170 115 -391h371l98 325l163 23l-69 -277q63 -71 172 -71h197q-21 192 -161 438zM1536 817l-151 148l151 151l138 -136l133 134l151 -151l-151 -149l-135 136z
M1674 1085l-146 146l146 146l146 -146z" />
    <glyph glyph-name="uniFEB7" unicode="&#x634;" horiz-adv-x="1635" arabic-form="initial" 
d="M369 568l166 26l-102 -282q134 -66 271 -66h123l95 322l166 26l-74 -289q59 -59 158 -59h198q-21 189 -162 438l177 153q74 -113 99.5 -239.5t25.5 -315.5v-282h-304q-149 0 -243 151q-84 -151 -269 -151q-191 0 -341 133q-55 -76 -138.5 -104.5t-214.5 -28.5v200l79 46
h154zM786 801l-151 149l151 151l136 -136l133 133l151 -151l-151 -148l-136 135zM922 1070l-146 146l146 146l146 -146z" />
    <glyph glyph-name="uniFEB8" unicode="&#x634;" horiz-adv-x="1643" arabic-form="medial" 
d="M1208 684l177 153q74 -113 99.5 -239.5t25.5 -315.5v-36h213v-220l-79 -26h-438q-149 0 -243 151q-84 -151 -269 -151q-191 0 -341 133q-55 -76 -138.5 -104.5t-214.5 -28.5v200l79 46h154l136 322l166 26l-102 -282q134 -66 271 -66h123l95 322l166 26l-74 -289
q59 -59 158 -59h198q-21 189 -162 438zM771 801l-151 149l151 151l138 -136l133 133l151 -151l-151 -148l-136 135zM909 1070l-146 146l146 146l146 -146z" />
    <glyph glyph-name="uniFEBA" unicode="&#x635;" horiz-adv-x="2618" arabic-form="final" 
d="M899 494l184 143q87 -170 115 -391h156q174 312 357.5 474.5t385.5 162.5q192 0 313.5 -139.5t121.5 -392.5v-105h166v-208q-5 -12 -32 -23.5t-45 -14.5h-1425q-21 -122 -86 -221t-155.5 -160t-196 -93.5t-215.5 -32.5q-252 0 -388.5 135.5t-136.5 363.5q0 177 72 395
l66 -16q-20 -126 -20 -238q0 -188 105 -290t322 -102q122 0 240.5 34t195 92.5t76.5 124.5q0 62 -57.5 227t-118.5 275zM2010 668q-79 0 -155 -33.5t-144.5 -96.5t-124 -131.5t-117.5 -160.5h919q-2 75 -28.5 149t-73 135.5t-119 99.5t-157.5 38z" />
    <glyph glyph-name="uniFEBB" unicode="&#x635;" horiz-adv-x="1866" arabic-form="initial" 
d="M182 586l176 154q64 -98 86.5 -206t26.5 -288h108q174 313 357.5 475t384.5 162q192 0 313.5 -139.5t121.5 -392.5v-351h-1756v207l79 39h259q-30 130 -156 340zM694 246h919q-2 75 -29 149t-73.5 135.5t-119 99.5t-157.5 38q-64 0 -127 -23.5t-115.5 -61t-107.5 -94.5
t-98 -113.5t-92 -129.5z" />
    <glyph glyph-name="uniFEBC" unicode="&#x635;" horiz-adv-x="1845" arabic-form="medial" 
d="M0 0v207l79 39h259q-30 130 -156 340l176 154q64 -98 86.5 -206t26.5 -288h108q174 313 357.5 475t384.5 162q192 0 313.5 -139.5t121.5 -392.5v-105h169v-208q-5 -12 -32 -23.5t-45 -14.5h-1848zM694 246h919q-2 75 -29 149t-73.5 135.5t-119 99.5t-157.5 38
q-64 0 -127 -23.5t-115.5 -61t-107.5 -94.5t-98 -113.5t-92 -129.5z" />
    <glyph glyph-name="uniFEBE" unicode="&#x636;" horiz-adv-x="2618" arabic-form="final" 
d="M899 494l184 143q87 -170 115 -391h156q174 312 357.5 474.5t385.5 162.5q192 0 313.5 -139.5t121.5 -392.5v-105h166v-208q-5 -12 -32 -23.5t-45 -14.5h-1425q-21 -122 -86 -221t-155.5 -160t-196 -93.5t-215.5 -32.5q-252 0 -388.5 135.5t-136.5 363.5q0 177 72 395
l66 -16q-20 -126 -20 -238q0 -188 105 -290t322 -102q122 0 240.5 34t195 92.5t76.5 124.5q0 62 -57.5 227t-118.5 275zM2010 668q-79 0 -155 -33.5t-144.5 -96.5t-124 -131.5t-117.5 -160.5h919q-2 75 -28.5 149t-73 135.5t-119 99.5t-157.5 38zM1395 855l-156 156l156 154
l156 -154z" />
    <glyph glyph-name="uniFEBF" unicode="&#x636;" horiz-adv-x="1866" arabic-form="initial" 
d="M182 586l176 154q64 -98 86.5 -206t26.5 -288h108q174 313 357.5 475t384.5 162q192 0 313.5 -139.5t121.5 -392.5v-351h-1756v207l79 39h259q-30 130 -156 340zM694 246h919q-2 75 -29 149t-73.5 135.5t-119 99.5t-157.5 38q-64 0 -127 -23.5t-115.5 -61t-107.5 -94.5
t-98 -113.5t-92 -129.5zM640 927l-156 156l156 153l156 -153z" />
    <glyph glyph-name="uniFEC0" unicode="&#x636;" horiz-adv-x="1845" arabic-form="medial" 
d="M182 586l176 154q64 -98 86.5 -206t26.5 -288h108q174 313 357.5 475t384.5 162q192 0 313.5 -139.5t121.5 -392.5v-105h169v-208q-5 -12 -32 -23.5t-45 -14.5h-1848v207l79 39h259q-30 130 -156 340zM694 246h919q-2 75 -29 149t-73.5 135.5t-119 99.5t-157.5 38
q-64 0 -127 -23.5t-115.5 -61t-107.5 -94.5t-98 -113.5t-92 -129.5zM635 927l-156 156l156 153l156 -153z" />
    <glyph glyph-name="uniFEC2" unicode="&#x637;" horiz-adv-x="1630" arabic-form="final" 
d="M402 1405l200 49v-691q0 -116 -29 -200q254 320 533 320q192 0 313.5 -139.5t121.5 -392.5v-105h169v-208q-5 -12 -32 -23.5t-45 -14.5h-1559l-36 246h326q22 42 71 123zM1019 668q-64 0 -127 -23.5t-115.5 -61t-107.5 -94.5t-98 -113.5t-92 -129.5h919q-2 75 -29 149
t-73.5 135.5t-119 99.5t-157.5 38z" />
    <glyph glyph-name="uniFEC3" unicode="&#x637;" horiz-adv-x="1448" arabic-form="initial" 
d="M212 1405l200 49v-691q0 -99 -20 -174q247 294 512 294q192 0 313.5 -139.5t121.5 -392.5v-351h-1339v179l79 67h82q30 54 85 141zM1196 246q-2 75 -29 149t-73.5 135.5t-119 99.5t-157.5 38q-79 0 -155 -33.5t-144.5 -96.5t-124 -131.5t-117.5 -160.5h920z" />
    <glyph glyph-name="uniFEC4" unicode="&#x637;" horiz-adv-x="1428" arabic-form="medial" 
d="M212 1405l200 49v-691q0 -99 -20 -174q247 294 512 294q192 0 313.5 -139.5t121.5 -392.5v-105h169v-208q-5 -12 -32 -23.5t-45 -14.5h-1431v179l79 67h82q30 54 85 141zM1196 246q-2 75 -29 149t-73.5 135.5t-119 99.5t-157.5 38q-79 0 -155 -33.5t-144.5 -96.5
t-124 -131.5t-117.5 -160.5h920z" />
    <glyph glyph-name="uniFEC6" unicode="&#x638;" horiz-adv-x="1630" arabic-form="final" 
d="M402 1405l200 49v-691q0 -116 -29 -200q254 320 533 320q192 0 313.5 -139.5t121.5 -392.5v-105h169v-208q-5 -12 -32 -23.5t-45 -14.5h-1559l-36 246h326q22 42 71 123zM1019 668q-64 0 -127 -23.5t-115.5 -61t-107.5 -94.5t-98 -113.5t-92 -129.5h919q-2 75 -29 149
t-73.5 135.5t-119 99.5t-157.5 38zM1111 1070l-156 156l156 154l156 -154z" />
    <glyph glyph-name="uniFEC7" unicode="&#x638;" horiz-adv-x="1448" arabic-form="initial" 
d="M212 1405l200 49v-691q0 -99 -20 -174q247 294 512 294q192 0 313.5 -139.5t121.5 -392.5v-351h-1339v179l79 67h82q30 54 85 141zM817 668q-79 0 -155 -33.5t-144.5 -96.5t-124 -131.5t-117.5 -160.5h920q-2 75 -29 149t-73.5 135.5t-119 99.5t-157.5 38zM906 1070
l-156 156l156 154l156 -154z" />
    <glyph glyph-name="uniFEC8" unicode="&#x638;" horiz-adv-x="1428" arabic-form="medial" 
d="M212 1405l200 49v-691q0 -99 -20 -174q247 294 512 294q192 0 313.5 -139.5t121.5 -392.5v-105h169v-208q-5 -12 -32 -23.5t-45 -14.5h-1431v179l79 67h82q30 54 85 141zM1196 246q-2 75 -29 149t-73.5 135.5t-119 99.5t-157.5 38q-79 0 -155 -33.5t-144.5 -96.5
t-124 -131.5t-117.5 -160.5h920zM906 1070l-156 156l156 154l156 -154z" />
    <glyph glyph-name="uniFECA" unicode="&#x639;" horiz-adv-x="1047" arabic-form="final" 
d="M579 -453h417v-74l-453 -185q-111 17 -199.5 50.5t-159.5 87.5t-109.5 135.5t-38.5 185.5q0 158 85.5 275.5t239.5 184.5l-300 387v2l64 208q208 105 397 105q197 0 317.5 -92.5t120.5 -253.5q0 -180 -189 -317h353v-213l-77 -33h-369q-113 0 -192 64q-75 -31 -130 -60.5
t-100.5 -64.5t-68.5 -75.5t-23 -86.5q0 -107 118.5 -168.5t296.5 -61.5zM556 671q-170 0 -323 -57l248 -348q153 38 249.5 104t96.5 142q0 72 -74.5 115.5t-196.5 43.5z" />
    <glyph glyph-name="uniFECB" unicode="&#x639;" horiz-adv-x="1011" arabic-form="initial" 
d="M79 246h162q-108 131 -108 289q0 113 57 208.5t150 148.5t198 53q108 0 208 -53t153 -129l-72 -131q-142 75 -284 75q-129 0 -204 -55t-75 -117q0 -113 302 -289h407l-36 -246h-937v195z" />
    <glyph glyph-name="uniFECC" unicode="&#x639;" horiz-adv-x="1113" arabic-form="medial" 
d="M0 207l79 39h323l-271 348h-3l64 210q208 105 397 105q197 0 317.5 -92.5t120.5 -253.5q0 -98 -49 -174.5t-141 -142.5h356v-213l-77 -33h-1116v207zM622 671q-167 0 -320 -57l248 -348q153 38 248 103.5t95 142.5q0 72 -74.5 115.5t-196.5 43.5z" />
    <glyph glyph-name="uniFECE" unicode="&#x63a;" horiz-adv-x="1047" arabic-form="final" 
d="M579 -453h417v-74l-453 -185q-111 17 -199.5 50.5t-159.5 87.5t-109.5 135.5t-38.5 185.5q0 158 85.5 275.5t239.5 184.5l-300 387v2l64 208q208 105 397 105q197 0 317.5 -92.5t120.5 -253.5q0 -180 -189 -317h353v-213l-77 -33h-369q-113 0 -192 64q-75 -31 -130 -60.5
t-100.5 -64.5t-68.5 -75.5t-23 -86.5q0 -107 118.5 -168.5t296.5 -61.5zM556 671q-170 0 -323 -57l248 -348q153 38 249.5 104t96.5 142q0 72 -74.5 115.5t-196.5 43.5zM520 1096l-156 156l156 153l156 -153z" />
    <glyph glyph-name="uniFECF" unicode="&#x63a;" horiz-adv-x="1011" arabic-form="initial" 
d="M79 246h162q-108 131 -108 289q0 113 57 208.5t150 148.5t198 53q108 0 208 -53t153 -129l-72 -131q-142 75 -284 75q-129 0 -204 -55t-75 -117q0 -113 302 -289h407l-36 -246h-937v195zM532 1134l-156 156l156 154l157 -154z" />
    <glyph glyph-name="uniFED0" unicode="&#x63a;" horiz-adv-x="1113" arabic-form="medial" 
d="M0 207l79 39h323l-271 348h-3l64 210q208 105 397 105q197 0 317.5 -92.5t120.5 -253.5q0 -98 -49 -174.5t-141 -142.5h356v-213l-77 -33h-1116v207zM622 671q-167 0 -320 -57l248 -348q153 38 248 103.5t95 142.5q0 72 -74.5 115.5t-196.5 43.5zM589 1096l-156 156
l156 153l156 -153z" />
    <glyph glyph-name="uniFED2" unicode="&#x641;" horiz-adv-x="1927" arabic-form="final" 
d="M148 773l64 -13q-15 -135 -15 -215q0 -112 36 -175.5t123.5 -93.5t245.5 -30h542q-74 145 -65.5 277t68.5 232t156 159t197 59q145 0 244 -116t99 -276q0 -198 -174 -335h338v-213l-77 -33h-1382q-235 0 -353 92.5t-118 301.5q0 145 71 379zM1178 522q6 -44 71.5 -119
t150.5 -137q115 46 201.5 111t93.5 117q0 27 -16.5 67t-46.5 82t-83.5 72t-117.5 30q-75 0 -135.5 -40.5t-89 -90.5t-28.5 -92zM1469 1160l-156 156l156 153l157 -153z" />
    <glyph glyph-name="uniFED3" unicode="&#x641;" horiz-adv-x="1013" arabic-form="initial" 
d="M79 246h681v184h-640v238q0 251 98.5 389.5t265.5 138.5q175 0 289.5 -150.5t114.5 -402.5v-643h-888v200zM225 625h533q-19 155 -121.5 249t-221.5 94q-98 0 -144 -76t-46 -232v-35zM476 1382l-156 157l156 153l156 -153z" />
    <glyph glyph-name="uniFED4" unicode="&#x641;" horiz-adv-x="1008" arabic-form="medial" 
d="M79 246h146q-74 145 -65.5 277t68.5 232t156 159t197 59q145 0 244 -116t99 -276q0 -198 -174 -335h338v-213l-77 -33h-1011v202zM259 522q6 -44 71.5 -119t150.5 -137q115 46 201.5 111t93.5 117q0 27 -16.5 67t-46.5 82t-83.5 72t-117.5 30q-75 0 -135.5 -40.5
t-89 -90.5t-28.5 -92zM543 1162l-156 156l156 154l156 -154z" />
    <glyph glyph-name="uniFED6" unicode="&#x642;" horiz-adv-x="1377" arabic-form="final" 
d="M1293 0q-13 -112 -62.5 -207t-122 -160.5t-164.5 -111.5t-190 -67.5t-198 -21.5q-117 0 -210 27t-153.5 73.5t-100.5 112.5t-57 139.5t-17 159.5q0 193 69 394l67 -18q-18 -142 -18 -233q0 -98 19.5 -169t69 -129.5t143 -88.5t231.5 -30q140 0 270 34t217 104t81 159
l-5 30h-632v285q0 252 97.5 389.5t260.5 137.5q173 0 287 -148.5t120 -414.5h162v-202q-5 -14 -32 -27.5t-45 -16.5h-87zM635 230h532q-24 161 -124.5 257.5t-218.5 96.5q-98 0 -143.5 -76t-45.5 -232v-46zM748 1019l-152 148l152 151l138 -135l133 133l151 -151l-151 -149
l-136 136z" />
    <glyph glyph-name="uniFED7" unicode="&#x642;" horiz-adv-x="1013" arabic-form="initial" 
d="M79 246h681v184h-640v238q0 251 98.5 389.5t265.5 138.5q175 0 289.5 -150.5t114.5 -402.5v-643h-888v200zM225 625h533q-19 155 -121.5 249t-221.5 94q-98 0 -144 -76t-46 -232v-35zM340 1403l-151 148l151 151l136 -135l133 133l151 -151l-151 -149l-135 136z" />
    <glyph glyph-name="uniFED8" unicode="&#x642;" horiz-adv-x="1008" arabic-form="medial" 
d="M79 246h146q-74 145 -65.5 277t68.5 232t156 159t197 59q145 0 244 -116t99 -276q0 -198 -174 -335h338v-213l-77 -33h-1011v202zM259 522q6 -44 71.5 -119t150.5 -137q115 46 201.5 111t93.5 117q0 27 -16.5 67t-46.5 82t-83.5 72t-117.5 30q-75 0 -135.5 -40.5
t-89 -90.5t-28.5 -92zM407 1180l-151 149l151 151l136 -136l135 136l151 -151l-151 -149l-135 136z" />
    <glyph glyph-name="uniFEDA" unicode="&#x643;" horiz-adv-x="1625" arabic-form="final" 
d="M1298 1405l197 49v-1208h210v-208l-77 -38h-1080q-235 0 -353 92.5t-118 301.5q0 145 71 379l64 -13q-15 -135 -15 -215q0 -112 36 -175.5t123.5 -93.5t245.5 -30h734zM922 847q63 0 99 -38t36 -105q0 -66 -34.5 -104.5t-95.5 -38.5h-295v97h302q27 0 43 13t16 36
q0 43 -53 43h-282v74q0 57 54 103l143 110l49 -80l-174 -110h192z" />
    <glyph glyph-name="uniFEDB" unicode="&#x643;" horiz-adv-x="985" arabic-form="initial" 
d="M870 1559v-241l-622 -394q111 -32 196.5 -69t161 -90.5t124.5 -120t77 -157.5t28 -203v-284h-838v202l80 44h617v33q0 330 -579 481v313z" />
    <glyph glyph-name="uniFEDC" unicode="&#x643;" horiz-adv-x="926" arabic-form="medial" 
d="M870 1559v-241l-622 -394q111 -32 196.5 -69t161 -90.5t124.5 -120t77 -157.5t28 -203v-38h171v-208q-5 -12 -32 -23.5t-45 -14.5h-932v202l80 44h617v33q0 330 -579 481v313z" />
    <glyph glyph-name="uniFEDE" unicode="&#x644;" horiz-adv-x="1216" arabic-form="final" 
d="M886 1405l199 49v-1208h210v-195l-76 -51h-151q-46 -220 -195 -338t-379 -118q-233 0 -354.5 124t-121.5 358q0 159 72 391l66 -13q-20 -154 -20 -263q0 -351 407 -351q102 0 190.5 27t144 80t54.5 121z" />
    <glyph glyph-name="uniFEDF" unicode="&#x644;" horiz-adv-x="563" arabic-form="initial" 
d="M212 1405l198 49v-1454h-410v202l79 44h172z" />
    <glyph glyph-name="uniFEE0" unicode="&#x644;" horiz-adv-x="540" arabic-form="medial" 
d="M212 1405l198 49v-1208h210v-208l-77 -38h-543v202l79 44h172z" />
    <glyph glyph-name="uniFEE2" unicode="&#x645;" horiz-adv-x="1075" arabic-form="final" 
d="M282 338l-100 43l51 121q28 71 59.5 126t74.5 104.5t100 76t124 26.5q76 0 146.5 -33t127 -94t90 -159t33.5 -219v-84h167v-208q-5 -12 -32 -23.5t-45 -14.5h-883l43 -655l-200 -46v560q0 164 104.5 275.5t274.5 111.5h428q-5 93 -36.5 165.5t-78 113.5t-96 61.5
t-96.5 20.5q-76 0 -126 -51t-97 -144q-3 -7 -17 -36.5t-16 -37.5z" />
    <glyph glyph-name="uniFEE3" unicode="&#x645;" horiz-adv-x="1157" arabic-form="initial" 
d="M645 835q76 0 146.5 -33t127 -94t90 -159t33.5 -219v-330h-422q-240 0 -338 202q-46 -103 -113.5 -152.5t-168.5 -49.5v207l79 39q63 0 96.5 29.5t52.5 85.5l54 148q54 146 143.5 236t219.5 90zM325 307q67 -38 134.5 -49.5t180.5 -11.5h259q-5 93 -37 165t-79.5 112.5
t-98 60.5t-100.5 20q-159 0 -226 -197z" />
    <glyph glyph-name="uniFEE4" unicode="&#x645;" horiz-adv-x="1134" arabic-form="medial" 
d="M645 835q76 0 146.5 -33t127 -94t90 -159t33.5 -219v-84h169v-208q-5 -12 -32 -23.5t-45 -14.5h-514q-240 0 -338 202q-46 -103 -113.5 -152.5t-168.5 -49.5v207l79 39q63 0 96.5 29.5t52.5 85.5l54 148q54 146 143.5 236t219.5 90zM325 307q67 -38 134.5 -49.5
t180.5 -11.5h259q-5 93 -37 165t-79.5 112.5t-98 60.5t-100.5 20q-159 0 -226 -197z" />
    <glyph glyph-name="uniFEE6" unicode="&#x646;" horiz-adv-x="1344" arabic-form="final" 
d="M899 545l184 144q100 -192 120 -443h220v-208l-76 -38h-162q-29 -110 -95.5 -198.5t-154 -143.5t-188.5 -84.5t-204 -29.5q-252 0 -388.5 136t-136.5 364q0 176 72 394l66 -16q-20 -126 -20 -238q0 -188 105 -289.5t322 -101.5q122 0 240.5 34t195 92.5t76.5 124.5
q0 62 -57.5 226.5t-118.5 274.5zM561 622l-157 156l157 154l156 -154z" />
    <glyph glyph-name="uniFEE7" unicode="&#x646;" horiz-adv-x="637" arabic-form="initial" 
d="M210 730l177 153q72 -112 97 -252t25 -372v-259h-509v207l77 39h294q-23 232 -161 484zM310 1070l-156 156l156 154l156 -154z" />
    <glyph glyph-name="uniFEE8" unicode="&#x646;" horiz-adv-x="642" arabic-form="medial" 
d="M210 730l177 153q72 -112 97 -252t25 -372v-13h213v-220l-79 -26h-643v207l77 39h294q-23 232 -161 484zM333 1070l-156 156l156 154l156 -154z" />
    <glyph glyph-name="uniFEEA" unicode="&#x647;" horiz-adv-x="1026" arabic-form="final" 
d="M691 1052l190 46v-670q0 -60 15 -98t47.5 -55.5t67.5 -23t92 -5.5v-200q-3 -18 -28.5 -32t-45.5 -14q-121 0 -190.5 60.5t-96.5 190.5q-68 -87 -167 -143.5t-206 -56.5q-130 0 -212.5 83.5t-82.5 229.5q0 162 105 278.5t287 176.5l233 80zM407 287q79 0 164.5 26
t155.5 68l-15 300l-277 -64q-44 -11 -83.5 -27t-75.5 -39t-57.5 -55.5t-21.5 -70.5q0 -64 59 -101t151 -37z" />
    <glyph glyph-name="uniFEEB" unicode="&#x647;" horiz-adv-x="1336" arabic-form="initial" 
d="M79 246h108q-44 101 -44 199q0 117 39.5 215t114.5 152q-2 2 -10 2l20 228q282 -34 486 -124t317.5 -238t113.5 -342v-338h-1224v207zM479 755q-81 0 -140.5 -71.5t-74.5 -163.5q7 -55 60.5 -119.5t128.5 -118.5q215 131 233 220q0 32 -13.5 73.5t-38 82.5t-65.5 69
t-90 28zM822 545q0 -179 -146 -304h409q-7 159 -76 261.5t-208 168.5q21 -61 21 -126z" />
    <glyph glyph-name="uniFEEC" unicode="&#x647;" horiz-adv-x="936" arabic-form="medial" 
d="M602 -399q-155 0 -269.5 106.5t-160.5 295.5q-5 -3 -13 -3h-159v197l79 49h69q4 165 48.5 312.5t130 245t193.5 97.5q81 0 155.5 -53t119.5 -138.5t45 -177.5q0 -151 -123 -286h299v-208l-79 -38h-31q26 -54 26 -102q0 -122 -91.5 -209.5t-238.5 -87.5zM458 696
q-42 0 -88 -68.5t-77.5 -173t-36.5 -203.5q119 7 215 31.5t157 70.5t61 105q0 51 -45.5 109t-99.5 93.5t-86 35.5zM806 -92q0 45 -77.5 95.5t-229.5 86.5q-96 -44 -210 -70q39 -95 119 -151t196 -56q82 0 142 26t60 69z" />
    <glyph glyph-name="uniFEEE" unicode="&#x648;" horiz-adv-x="931" arabic-form="final" 
d="M852 0q-18 -98 -63 -189t-107 -163.5t-125 -127t-132 -99.5l-358 190v74h135q124 0 224.5 26t165 71.5t103 100t50.5 117.5h-648v284q0 252 98 390t263 138q173 0 287 -150t120 -416h144v-202q-5 -14 -32 -27.5t-45 -16.5h-80zM205 233h530q-24 161 -123.5 257t-217.5 96
q-99 0 -144 -75t-45 -232v-46z" />
    <glyph glyph-name="uniFEF0" unicode="&#x649;" horiz-adv-x="1249" arabic-form="final" 
d="M722 84l38 162h581v-159l-56 -54q69 -57 69 -151q0 -128 -112 -241.5t-290 -179t-368 -65.5q-134 0 -236 33.5t-163.5 87t-100 130t-52.5 152t-14 163.5q0 204 74 435l64 -16q-20 -142 -20 -307q0 -68 9.5 -123.5t40.5 -115t82 -100t140 -67t209 -26.5q143 0 291 36.5
t241 90.5t93 103q0 38 -126 91.5t-366 113.5z" />
    <glyph glyph-name="uniFEF2" unicode="&#x64a;" horiz-adv-x="1249" arabic-form="final" 
d="M722 84l38 162h581v-159l-56 -54q69 -57 69 -151q0 -128 -112 -241.5t-290 -179t-368 -65.5q-134 0 -236 33.5t-163.5 87t-100 130t-52.5 152t-14 163.5q0 204 74 435l64 -16q-20 -142 -20 -307q0 -68 9.5 -123.5t40.5 -115t82 -100t140 -67t209 -26.5q143 0 291 36.5
t241 90.5t93 103q0 38 -126 91.5t-366 113.5zM458 -1070l-151 148l151 151l136 -135l136 135l151 -151l-151 -148l-136 136z" />
    <glyph glyph-name="uniFEF3" unicode="&#x64a;" horiz-adv-x="637" arabic-form="initial" 
d="M210 730l177 153q72 -112 97 -252t25 -372v-259h-509v207l77 39h294q-23 232 -161 484zM33 -466l-151 149l151 151l136 -136l136 136l151 -151l-151 -149l-136 136z" />
    <glyph glyph-name="uniFEF4" unicode="&#x64a;" horiz-adv-x="642" arabic-form="medial" 
d="M210 730l177 153q72 -112 97 -252t25 -372v-13h213v-220l-79 -26h-643v207l77 39h294q-23 232 -161 484zM138 -466l-151 149l151 151l136 -136l136 136l151 -151l-151 -149l-136 136z" />
    <glyph glyph-name="uniFEF5" unicode="&#xfef5;" horiz-adv-x="1223" arabic-form="isolated" 
 />
    <glyph glyph-name="uniFEF6" unicode="&#xfef6;" horiz-adv-x="1205" arabic-form="final" 
 />
    <glyph glyph-name="uniFEF7" unicode="&#xfef7;" horiz-adv-x="1223" arabic-form="isolated" 
 />
    <glyph glyph-name="uniFEF8" unicode="&#xfef8;" horiz-adv-x="1205" arabic-form="final" 
 />
    <glyph glyph-name="uniFEF9" unicode="&#xfef9;" horiz-adv-x="1223" arabic-form="isolated" 
 />
    <glyph glyph-name="uniFEFA" unicode="&#xfefa;" horiz-adv-x="1205" arabic-form="final" 
 />
    <glyph glyph-name="uniFEFB" unicode="&#xfefb;" horiz-adv-x="1223" arabic-form="isolated" 
 />
    <glyph glyph-name="uniFEFC" unicode="&#xfefc;" horiz-adv-x="1231" arabic-form="final" 
 />
    <glyph glyph-name=".notdef" horiz-adv-x="601" 
 />
    <glyph glyph-name="uni0000" 
 />
    <glyph glyph-name="uni0000" 
 />
    <glyph glyph-name="uni000D" unicode="&#xd;" horiz-adv-x="852" 
 />
    <glyph glyph-name="space" unicode=" " horiz-adv-x="358" 
 />
    <glyph glyph-name="exclam" unicode="!" horiz-adv-x="529" 
d="M274 -26l-156 157l156 153l156 -153zM154 1428h222l-41 -1034h-140z" />
    <glyph glyph-name="quotedbl" unicode="&#x22;" horiz-adv-x="803" 
d="M125 881l-48 350v197h233v-197l-49 -350h-136zM543 881l-49 350v197h233v-197l-49 -350h-135z" />
    <glyph glyph-name="numbersign" unicode="#" horiz-adv-x="1541" 
d="M1001 1439h189l-64 -392h302l-30 -174h-302l-59 -358h345l-28 -175h-345l-57 -337h-194l56 340h-261l-59 -340h-192l59 340h-284l31 174h284l59 356h-331l34 174h327l67 392h189l-66 -392h263zM581 517l264 -2l59 358h-261z" />
    <glyph glyph-name="dollar" unicode="$" horiz-adv-x="1185" 
d="M558 1610h115v-133q146 -9 259 -55.5t179 -113.5l-154 -215q-37 80 -113 149t-171 105v-489q191 -64 272 -109q179 -99 203 -264q4 -27 4 -57q0 -181 -133.5 -301t-345.5 -145v-179h-115v171q-147 0 -283.5 43t-230.5 116l125 228q66 -99 167.5 -173t221.5 -96v581
q-184 57 -227 74q-177 70 -237 179q-38 70 -38 162q0 179 134.5 281.5t367.5 110.5v130zM940 335q0 61 -20 110t-59 84.5t-83 60t-105 47.5v-553q123 4 195 68.5t72 182.5zM515 1375q-111 0 -177.5 -56t-66.5 -152q0 -53 21.5 -96t64 -75t88.5 -54t113 -46v476q-13 3 -43 3z
" />
    <glyph glyph-name="percent" unicode="%" horiz-adv-x="1881" 
d="M1252 1441h210l-807 -1441h-212zM1469 727q177 0 277 -99t100 -277q0 -175 -97.5 -273t-273.5 -98q-178 0 -278.5 98.5t-100.5 274.5q0 177 98 275.5t275 98.5zM422 1446q177 0 277 -99t100 -277q0 -175 -97.5 -273t-273.5 -98q-178 0 -278.5 99t-100.5 275q0 177 98 275
t275 98zM1464 614q-85 0 -130.5 -68t-45.5 -193q0 -126 47.5 -193.5t133.5 -67.5q87 0 136 67t49 187q0 128 -51 198t-139 70zM417 1334q-85 0 -130.5 -68t-45.5 -193q0 -126 47.5 -193.5t133.5 -67.5q87 0 136 66.5t49 186.5q0 128 -51 198.5t-139 70.5z" />
    <glyph glyph-name="ampersand" unicode="&#x26;" horiz-adv-x="1333" 
d="M1039 691l172 -54l-161 -307l304 -330h-266l-146 161q-80 -87 -188.5 -137t-236.5 -50q-88 0 -166 23.5t-140 68t-98 116.5t-36 161q0 61 17.5 116t44.5 96.5t70 82.5t83 70t95 63q-104 112 -153.5 201.5t-49.5 187.5q0 140 107.5 228.5t297.5 88.5q177 0 284 -78.5
t107 -208.5q0 -63 -23 -115.5t-79 -101.5t-94.5 -75t-122.5 -77q-27 -17 -41 -25l343 -371zM566 87q83 0 164.5 41.5t142.5 107.5l-412 453q-167 -139 -167 -315q0 -138 80 -212.5t192 -74.5zM387 1190q0 -139 163 -320q104 67 161 134t57 153q0 93 -60.5 153t-149.5 60
q-80 0 -125.5 -50.5t-45.5 -129.5z" />
    <glyph glyph-name="quotesingle" unicode="'" horiz-adv-x="335" 
d="M113 881l-49 350v197h233v-197l-49 -350h-135z" />
    <glyph glyph-name="parenleft" unicode="(" horiz-adv-x="670" 
d="M609 -376h-192q-168 228 -254 504t-86 543q0 254 89.5 536.5t250.5 535.5h192q-61 -131 -97.5 -214.5t-83 -205.5t-72 -216t-44 -207.5t-18.5 -218.5q0 -195 51 -406.5t118 -367.5t146 -283z" />
    <glyph glyph-name="parenright" unicode=")" horiz-adv-x="619" 
d="M241 -376h-192q79 127 146 283t118 367.5t51 406.5q0 105 -18.5 218.5t-44 207.5t-72 216t-83 205.5t-97.5 214.5h192q161 -253 250.5 -535.5t89.5 -536.5q0 -267 -86 -543t-254 -504z" />
    <glyph glyph-name="asterisk" unicode="*" horiz-adv-x="773" 
d="M333 1114l-256 64l38 125l251 -107l-20 289h128l-23 -295l250 108l36 -128l-258 -64l171 -218l-105 -79l-143 248l-143 -240l-105 76z" />
    <glyph glyph-name="plus" unicode="+" horiz-adv-x="952" 
d="M399 540h-322v141h322v310h141v-310h325v-141h-325v-325h-141v325z" />
    <glyph glyph-name="comma" unicode="," horiz-adv-x="486" 
d="M251 0h-161v136q0 76 35.5 117t99.5 41q70 0 110.5 -50t40.5 -134q0 -42 -9.5 -83t-33 -87t-39.5 -74t-53.5 -84.5t-51.5 -78.5l-79 54z" />
    <glyph glyph-name="hyphen" unicode="-" horiz-adv-x="898" 
d="M812 538h-735v140h735v-140z" />
    <glyph glyph-name="period" unicode="." horiz-adv-x="512" 
d="M243 -26l-156 157l156 153l156 -153z" />
    <glyph glyph-name="slash" unicode="/" horiz-adv-x="990" 
d="M689 1833h263l-612 -1833h-263z" />
    <glyph glyph-name="zero" unicode="0" horiz-adv-x="1062" 
d="M77 724q0 400 105 578t353 178q247 0 350 -174.5t103 -568.5q0 -405 -103.5 -584t-352.5 -179q-247 0 -351 176.5t-104 573.5zM535 115q128 0 178 141t50 481q0 327 -50 463t-178 136q-134 0 -184.5 -139t-50.5 -473t50.5 -471.5t184.5 -137.5z" />
    <glyph glyph-name="one" unicode="1" horiz-adv-x="529" 
d="M154 1428h222v-1428h-222v1428z" />
    <glyph glyph-name="two" unicode="2" horiz-adv-x="980" 
d="M41 151q0 74 34 150.5t88.5 143.5t120.5 134.5t131.5 133t120 127.5t88.5 129t34 129q0 97 -76 156t-190 59q-141 0 -292 -71l-36 130q181 82 358 82q90 0 170.5 -19.5t148 -58.5t107.5 -106t40 -154q0 -78 -32.5 -156t-87 -145.5t-121 -133.5t-137.5 -128.5t-134 -120.5
t-114 -120t-73 -117h715l-36 -195h-827v151z" />
    <glyph glyph-name="three" unicode="3" horiz-adv-x="965" 
d="M141 842h197q147 0 227 61.5t80 176.5q0 109 -70.5 171t-185.5 62q-130 0 -292 -69l-36 131q183 79 367 79q206 0 323 -92t117 -256q0 -123 -66.5 -214t-189.5 -137q133 -43 204.5 -140.5t71.5 -220.5q0 -180 -142.5 -300t-369.5 -120q-193 0 -338 67l36 118
q142 -44 272 -44q150 0 232 74.5t82 212.5q0 141 -82.5 220t-231.5 79h-215z" />
    <glyph glyph-name="four" unicode="4" horiz-adv-x="1256" 
d="M742 1428h228v-929h251l-18 -141h-233v-358h-228v358h-704v149zM742 1196l-540 -697h540v697z" />
    <glyph glyph-name="five" unicode="5" horiz-adv-x="1085" 
d="M205 1428h770l-18 -140h-553l-38 -412l138 -11q233 -16 369 -126t136 -309q0 -145 -75 -249t-207 -155.5t-307 -51.5q-184 0 -343 70l36 130q154 -59 294 -59q161 0 268.5 85.5t107.5 232.5q0 135 -93 207t-250 84l-299 21z" />
    <glyph glyph-name="six" unicode="6" horiz-adv-x="1121" 
d="M596 1313q-141 0 -214 -111.5t-80 -356.5h282q201 0 330.5 -112.5t129.5 -307.5q0 -211 -129.5 -331t-351.5 -120q-90 0 -161.5 20t-134 68t-103.5 125t-64 196t-23 275v154q0 165 38.5 290t109.5 201t164.5 113.5t209.5 37.5q186 0 361 -92l-36 -115q-220 66 -328 66z
M302 696v-51q0 -153 17.5 -258t53.5 -164t83 -83.5t112 -24.5q119 0 185 80t66 220q0 132 -65.5 206.5t-185.5 74.5h-266z" />
    <glyph glyph-name="seven" unicode="7" horiz-adv-x="926" 
d="M38 1275l13 153h840v-125l-333 -1303h-235l335 1275h-620z" />
    <glyph glyph-name="eight" unicode="8" horiz-adv-x="1159" 
d="M1060 1070q0 -242 -218 -322q114 -47 177.5 -138t63.5 -221q0 -196 -131.5 -305.5t-367.5 -109.5q-240 0 -373.5 109t-133.5 304q0 133 61 223.5t172 137.5q-205 89 -205 314q0 185 128.5 288.5t357.5 103.5q221 0 345 -101.5t124 -282.5zM586 115q129 0 201.5 79
t72.5 213q0 131 -70.5 200t-198.5 69q-138 0 -214.5 -74.5t-76.5 -207.5q0 -132 75.5 -205.5t210.5 -73.5zM584 817q120 0 188 69t68 192q0 111 -67 173t-184 62q-125 0 -194.5 -65.5t-69.5 -182.5t69 -182.5t190 -65.5z" />
    <glyph glyph-name="nine" unicode="9" horiz-adv-x="1146" 
d="M520 115q137 0 210.5 99t86.5 318h-279q-133 0 -235.5 49.5t-164 153.5t-61.5 251q0 217 128 342.5t343 125.5q82 0 152 -19.5t135 -68t110 -124.5t72 -196t27 -275v-157q0 -164 -39.5 -288.5t-111 -200.5t-166.5 -113.5t-212 -37.5q-189 0 -367 90l39 118
q205 -67 333 -67zM545 1313q-116 0 -179.5 -85.5t-63.5 -234.5q0 -151 70.5 -233t216.5 -82h230v93q0 285 -69.5 413.5t-204.5 128.5z" />
    <glyph glyph-name="colon" unicode=":" horiz-adv-x="486" 
d="M243 -26l-156 157l156 153l156 -153zM243 407l-156 156l156 154l156 -154z" />
    <glyph glyph-name="semicolon" unicode=";" horiz-adv-x="486" 
d="M243 0l-156 156l156 154l156 -154zM251 765h-161v136q0 76 36 117.5t99 41.5q70 0 110.5 -50t40.5 -134q0 -42 -9.5 -83t-33 -87.5t-39.5 -74t-54 -85t-51 -78.5l-79 54z" />
    <glyph glyph-name="less" unicode="&#x3c;" horiz-adv-x="860" 
d="M801 156l-724 382v256l724 353v-200l-624 -281l624 -305v-205z" />
    <glyph glyph-name="equal" unicode="=" horiz-adv-x="1041" 
d="M929 781h-852v141h852v-141zM929 387h-852v140h852v-140z" />
    <glyph glyph-name="greater" unicode="&#x3e;" horiz-adv-x="888" 
d="M799 538l-725 -382v205l625 305l-625 281v200l725 -353v-256z" />
    <glyph glyph-name="question" unicode="?" horiz-adv-x="1059" 
d="M461 -26l-156 157l71 71q-65 83 -76 166.5t22.5 154t89.5 137t125 125t128.5 108.5t100 96.5t40.5 80.5q0 61 -99.5 108.5t-240.5 47.5q-171 0 -341 -77l-48 192q212 118 404 118q212 -2 339 -110t127 -264q0 -81 -38 -158t-94.5 -136t-122.5 -115.5t-122 -106.5
t-92.5 -98.5t-34 -102t53.5 -107.5l120 -130z" />
    <glyph glyph-name="at" unicode="@" horiz-adv-x="1600" 
d="M829 1344q-271 0 -413 -183.5t-142 -576.5q0 -211 41.5 -370.5t118.5 -258.5t181.5 -148.5t236.5 -49.5h364l-38 -115h-395q-338 0 -533.5 229t-195.5 649q0 445 223.5 692t623.5 247q284 0 441.5 -131.5t157.5 -398.5v-929h-102l-59 146q-124 -172 -338 -172
q-197 0 -311 145t-114 393q0 262 124 411.5t324 149.5q130 0 253 -64q-18 94 -61 161t-105.5 104t-131.5 53.5t-150 16.5zM1006 952q-97 0 -154.5 -93.5t-57.5 -272.5q0 -139 34 -250.5t96 -176t141 -64.5q92 0 155.5 86.5t69.5 238.5v409q-46 47 -131.5 85t-152.5 38z" />
    <glyph glyph-name="A" unicode="A" horiz-adv-x="1249" 
d="M-46 0l545 1454h251l545 -1454h-251l-156 422h-624l-87 -422h-223zM294 538h564l-285 768z" />
    <glyph glyph-name="B" unicode="B" horiz-adv-x="1310" 
d="M640 1454q279 0 431.5 -89t152.5 -257q0 -114 -72 -200.5t-215 -129.5q328 -79 328 -366q0 -199 -160.5 -305.5t-467.5 -106.5h-527v1454h530zM645 719h-289v-609h361q155 0 233.5 71t78.5 198q0 148 -101 244t-283 96zM622 1347h-266v-515h302q333 0 333 223
q0 125 -99 208.5t-270 83.5z" />
    <glyph glyph-name="C" unicode="C" horiz-adv-x="1144" 
d="M1091 328l48 -41q-77 -146 -201.5 -229.5t-297.5 -83.5q-273 0 -429.5 206.5t-156.5 561.5q0 353 157 545.5t442 192.5q159 0 280.5 -66t198.5 -193l-157 -243q-48 186 -142 286t-224 100q-156 0 -238 -133.5t-82 -403.5q0 -327 115 -524.5t320 -197.5q104 0 199 56
t168 167z" />
    <glyph glyph-name="D" unicode="D" horiz-adv-x="1315" 
d="M604 1454q168 0 294.5 -51t206 -146.5t118.5 -226t39 -295.5q0 -355 -173 -545t-495 -190h-484v1454h494zM550 1347h-194v-1237h302q77 0 142.5 30.5t119 93.5t84 170.5t30.5 250.5q0 101 -15 195.5t-51 186t-90 159.5t-138.5 109.5t-189.5 41.5z" />
    <glyph glyph-name="E" unicode="E" horiz-adv-x="1082" 
d="M110 1454h924l-36 -151l-535 36h-107v-525l642 18l-35 -151l-607 18v-586h79l635 38l-38 -151h-922v1454z" />
    <glyph glyph-name="F" unicode="F" horiz-adv-x="1024" 
d="M113 1454h898l-36 -151l-535 36h-82v-576l617 18l-35 -151l-582 18v-648h-245v1454z" />
    <glyph glyph-name="G" unicode="G" horiz-adv-x="1326" 
d="M689 717h576l-26 -103v-450q-183 -93 -320 -141.5t-276 -48.5q-276 0 -432.5 199t-156.5 546q0 361 171 561t479 200q173 0 304.5 -66.5t207.5 -192.5l-156 -241q-48 186 -154.5 286.5t-257.5 100.5q-175 0 -267 -137.5t-92 -420.5q0 -211 50 -372t149 -253t236 -92
q80 0 159.5 31t122.5 77v396l-343 -15z" />
    <glyph glyph-name="H" unicode="H" horiz-adv-x="1372" 
d="M1019 1454h246v-1454h-246v696h-663v-696h-246v1454h246v-630h663v630z" />
    <glyph glyph-name="I" unicode="I" horiz-adv-x="463" 
d="M110 1454h246v-1454h-246v1454z" />
    <glyph glyph-name="J" unicode="J" horiz-adv-x="522" 
d="M195 1454h245v-1067q0 -63 -15 -116.5t-51 -106t-105 -93.5t-169 -66l-123 -31l-23 64l97 54q84 45 114 102t30 167v1093z" />
    <glyph glyph-name="K" unicode="K" horiz-adv-x="1239" 
d="M110 1454h246v-768l258 287l249 481h312l-527 -619l655 -838l-287 3l-514 663l-146 -171v-492h-246v1454z" />
    <glyph glyph-name="L" unicode="L" horiz-adv-x="1034" 
d="M110 1454h246v-1341h59l606 38l-35 -151h-876v1454z" />
    <glyph glyph-name="M" unicode="M" horiz-adv-x="1669" 
d="M108 1454h304l420 -1213l440 1213h287v-1454h-230v1254l-461 -1254h-192l-453 1285v-650l61 -635h-176v1454z" />
    <glyph glyph-name="N" unicode="N" horiz-adv-x="1338" 
d="M1032 1454h197v-1454h-200l-806 1144v-509l61 -635h-176v1306l-105 148h258l853 -1203v568z" />
    <glyph glyph-name="O" unicode="O" horiz-adv-x="1372" 
d="M686 1480q299 0 464.5 -193t165.5 -545q0 -356 -167 -562t-463 -206q-297 0 -464.5 206t-167.5 562q0 352 166 545t466 193zM630 1367q-163 0 -253 -124.5t-90 -351.5q0 -377 120 -589t333 -212q164 0 253.5 126.5t89.5 356.5q0 375 -119 584.5t-334 209.5z" />
    <glyph glyph-name="P" unicode="P" horiz-adv-x="1274" 
d="M110 1454h543q303 0 448.5 -95.5t145.5 -288.5q0 -210 -165.5 -324t-472.5 -114h-253v-632h-246v1454zM632 1352h-276v-607h317q338 0 338 259q0 149 -100 248.5t-279 99.5z" />
    <glyph glyph-name="Q" unicode="Q" horiz-adv-x="1372" 
d="M686 1480q299 0 464.5 -193t165.5 -545q0 -259 -91 -442t-260 -264l300 -54l-87 -169l-615 172q-242 40 -375.5 240t-133.5 517q0 352 166 545t466 193zM630 1367q-163 0 -253 -124.5t-90 -351.5q0 -377 120 -589t333 -212q164 0 253.5 126.5t89.5 356.5
q0 375 -119 584.5t-334 209.5z" />
    <glyph glyph-name="R" unicode="R" horiz-adv-x="1282" 
d="M110 1454h543q303 0 448.5 -94.5t145.5 -284.5q0 -144 -81 -243.5t-237 -147.5l359 -684h-246l-338 645q-21 -2 -95 -2h-253v-643h-246v1454zM632 1352h-276v-597h317q341 0 341 256q0 145 -100.5 243t-281.5 98z" />
    <glyph glyph-name="S" unicode="S" horiz-adv-x="1175" 
d="M504 1375q-111 0 -177 -56t-66 -152q0 -61 30 -109t81 -80.5t117 -59t139.5 -49.5t146.5 -48t139 -59.5t117 -77.5t81 -108.5t30 -147.5q0 -135 -78.5 -239.5t-213 -159.5t-300.5 -55q-149 0 -286 43t-231 116l126 228q79 -119 206.5 -198t277.5 -79q131 0 208.5 65
t77.5 186q0 74 -30 130t-81.5 92t-117.5 63.5t-139 49t-146.5 44t-139.5 53.5t-117.5 71t-81.5 104t-30 146q0 186 146 289t397 103q175 0 306.5 -47.5t205.5 -124.5l-154 -215q-53 115 -177.5 198.5t-265.5 83.5z" />
    <glyph glyph-name="T" unicode="T" horiz-adv-x="1159" 
d="M38 1454h1073l36 -151l-438 36v-1339h-246v1339l-450 -36z" />
    <glyph glyph-name="U" unicode="U" horiz-adv-x="1246" 
d="M82 1454h246v-837q0 -223 100.5 -349.5t272.5 -126.5q167 0 260 114t76 308l-77 891h205v-804q0 -315 -144.5 -494t-406.5 -179q-250 0 -391 166t-141 461v850z" />
    <glyph glyph-name="V" unicode="V" horiz-adv-x="1177" 
d="M-46 1454h246l448 -1326l281 829l49 497h246l-497 -1454h-276z" />
    <glyph glyph-name="W" unicode="W" horiz-adv-x="1914" 
d="M1295 0l-320 1060l-340 -1060h-284l-371 1454h240l333 -1311l358 1124l-56 187h238l397 -1313l179 740l26 573h240l-361 -1454h-279z" />
    <glyph glyph-name="X" unicode="X" horiz-adv-x="1164" 
d="M809 1175l79 279h272l-466 -658l517 -796h-271l-397 612l-371 -612h-218l512 727l-471 727h271l356 -548z" />
    <glyph glyph-name="Y" unicode="Y" horiz-adv-x="1208" 
d="M909 1147l84 307h259l-502 -783v-684h-246v607l-550 860h274l440 -686z" />
    <glyph glyph-name="Z" unicode="Z" horiz-adv-x="1126" 
d="M33 1303l36 151h1024v-115l-804 -1219h3l827 36l-36 -156h-1073v120h-2l804 1219z" />
    <glyph glyph-name="bracketleft" unicode="[" horiz-adv-x="755" 
d="M643 -317v-141h-528v2166h528v-141h-303v-1884h303z" />
    <glyph glyph-name="backslash" unicode="\" horiz-adv-x="1036" 
d="M707 -184l-630 1886h240l630 -1886h-240z" />
    <glyph glyph-name="bracketright" unicode="]" horiz-adv-x="727" 
d="M49 -458v141h302v1884h-302v141h527v-2166h-527z" />
    <glyph glyph-name="underscore" unicode="_" horiz-adv-x="1187" 
d="M1188 -225h-1188v141h1188v-141z" />
    <glyph glyph-name="a" unicode="a" horiz-adv-x="1031" 
d="M566 975q-91 0 -169.5 -78t-120.5 -201l-186 187q105 96 226.5 141.5t236.5 45.5q170 0 283.5 -93t113.5 -268v-709h-110l-67 131q-126 -157 -353 -157q-166 0 -267.5 84.5t-101.5 225.5q0 67 25.5 121.5t65.5 90.5t99 62t117.5 40t129.5 22t126 9.5t116 0.5v79
q0 266 -164 266zM730 527q-42 0 -70.5 -0.5t-70 -2.5t-70.5 -6t-64 -12t-59.5 -18.5t-49 -26.5t-39 -36.5t-24 -48.5t-9.5 -61q0 -94 65 -163.5t168 -69.5q101 0 162 68.5t61 189.5v187z" />
    <glyph glyph-name="b" unicode="b" horiz-adv-x="1105" 
d="M110 15v1439l233 44v-530q117 105 284 105q199 0 314.5 -145t115.5 -393q0 -262 -127 -411.5t-331 -149.5q-140 0 -284 80zM614 95q97 0 155 93.5t58 272.5q0 139 -34 250.5t-96 176t-141 64.5q-97 0 -161.5 -92.5t-64.5 -255.5v-386q46 -47 131.5 -85t152.5 -38z" />
    <glyph glyph-name="c" unicode="c" horiz-adv-x="952" 
d="M896 236l46 -44q-55 -91 -162 -154.5t-253 -63.5q-218 0 -345.5 147.5t-127.5 405.5q0 256 126 401t352 145q269 0 402 -210l-181 -190q-37 136 -107 210t-160 74q-102 0 -153 -83t-51 -237q0 -250 91 -391t247 -141q81 0 153.5 37t122.5 94z" />
    <glyph glyph-name="d" unicode="d" horiz-adv-x="1105" 
d="M507 1073q128 0 256 -64v435l233 43v-458l2 3v-1032h-112l-62 146q-128 -172 -345 -172q-199 0 -313.5 145t-114.5 393q0 262 126 411.5t330 149.5zM492 952q-97 0 -155 -93.5t-58 -272.5q0 -139 34 -250.5t96 -176t141 -64.5q97 0 161.5 92.5t64.5 257.5v384
q-46 47 -131.5 85t-152.5 38z" />
    <glyph glyph-name="e" unicode="e" horiz-adv-x="1041" 
d="M287 479q24 -169 111.5 -271.5t218.5 -102.5q156 0 305 131l56 -57q-178 -205 -425 -205q-235 0 -367 145t-132 388q0 131 40.5 238.5t111 178t164.5 108.5t203 38q208 0 318 -133.5t110 -370.5v-87h-714zM525 965q-106 0 -176 -95.5t-70 -280.5v-5h489q-4 173 -67 277
t-176 104z" />
    <glyph glyph-name="f" unicode="f" horiz-adv-x="711" 
d="M-18 929l28 115h164v88q0 85 18 150.5t60 120t120 84t189 29.5h169l-54 -187l-97 59q-30 15 -57 15q-50 0 -78.5 -52.5t-28.5 -144.5v-162h315l-36 -151l-279 26v-922h-241v932h-192z" />
    <glyph glyph-name="g" unicode="g" horiz-adv-x="1116" 
d="M515 1073q145 0 289 -80l205 39v-1012q0 -71 -26 -130.5t-70.5 -101.5t-104.5 -71t-128 -43t-140 -14q-129 0 -246 44.5t-186 126.5l115 161q74 -113 168 -174t180 -61q92 0 149.5 65.5t57.5 185.5v123q-120 -105 -294 -105q-200 0 -311.5 135.5t-111.5 370.5
q0 254 125.5 397.5t328.5 143.5zM502 952q-97 0 -155 -88t-58 -255q0 -201 77 -332t202 -131q94 0 156 78t62 234v374q-45 47 -130.5 83.5t-153.5 36.5z" />
    <glyph glyph-name="h" unicode="h" horiz-adv-x="1111" 
d="M108 0v1459l235 39v-597q129 169 341 169q170 0 259 -107.5t89 -319.5v-643h-236v556q0 109 -13 184t-38 116t-57 58.5t-76 17.5q-124 0 -195 -120.5t-71 -335.5v-151h-3v-325h-235z" />
    <glyph glyph-name="i" unicode="i" horiz-adv-x="453" 
d="M110 0v1029l233 41v-1070h-233zM225 1157l-169 169l169 169l169 -169z" />
    <glyph glyph-name="j" unicode="j" horiz-adv-x="473" 
d="M125 1029l241 41v-1021q0 -50 -8.5 -93t-32 -88.5t-61 -81.5t-99 -68t-142.5 -53l-123 -29l-23 64l97 54q87 46 119 103t32 166v1006zM248 1157l-169 169l169 169l169 -169z" />
    <glyph glyph-name="k" unicode="k" horiz-adv-x="1082" 
d="M108 0v1459l235 39v-922l284 246l82 222h320l-427 -391l527 -653h-292l-402 504l-92 -84v-420h-235z" />
    <glyph glyph-name="l" unicode="l" horiz-adv-x="453" 
d="M108 0v1459l235 39v-1498h-235z" />
    <glyph glyph-name="m" unicode="m" horiz-adv-x="1797" 
d="M108 1021l158 36l36 -215q141 228 382 228t314 -212q138 212 372 212q170 0 259 -107.5t89 -319.5v-643h-236v556q0 109 -13 184t-38 116t-57 58.5t-76 17.5q-120 0 -191 -114.5t-75 -320.5v-497h-236v556q0 109 -13 184t-38 116t-57 58.5t-76 17.5q-124 0 -195 -120.5
t-71 -335.5v-151h-3v-325h-235v1021z" />
    <glyph glyph-name="n" unicode="n" horiz-adv-x="1111" 
d="M108 1021l158 36l36 -215q141 228 382 228q170 0 259 -107.5t89 -319.5v-643h-236v556q0 109 -13 184t-38 116t-57 58.5t-76 17.5q-124 0 -195 -120.5t-71 -335.5v-151h-3v-325h-235v1021z" />
    <glyph glyph-name="o" unicode="o" horiz-adv-x="1116" 
d="M558 1070q238 0 370 -144t132 -401q0 -258 -132.5 -404.5t-369.5 -146.5t-370.5 146.5t-133.5 404.5q0 257 133 401t371 144zM509 957q-112 0 -168.5 -84.5t-56.5 -240.5q0 -251 87.5 -396.5t232.5 -145.5q112 0 170 85.5t58 244.5q0 251 -87.5 394t-235.5 143z" />
    <glyph glyph-name="p" unicode="p" horiz-adv-x="1105" 
d="M108 1021l158 34l28 -136q125 154 331 154q199 0 314.5 -145t115.5 -393q0 -262 -127.5 -411.5t-331.5 -149.5q-130 0 -253 64v-435h-235v1418zM612 95q97 0 154.5 93.5t57.5 272.5q0 139 -34 250.5t-96 176t-141 64.5q-96 0 -160.5 -92.5t-64.5 -255.5v-386
q46 -47 131.5 -85t152.5 -38z" />
    <glyph glyph-name="q" unicode="q" horiz-adv-x="1105" 
d="M763 -397v476q-117 -105 -284 -105q-199 0 -313.5 145t-114.5 393q0 262 126 411.5t330 149.5q149 0 284 -80l207 39v-1429h-235zM492 952q-97 0 -155 -93.5t-58 -272.5q0 -139 34 -250.5t96 -176t141 -64.5q97 0 161.5 92.5t64.5 257.5v384q-46 47 -131.5 85t-152.5 38z
" />
    <glyph glyph-name="r" unicode="r" horiz-adv-x="770" 
d="M108 1021l158 36l41 -238q145 251 353 251q54 0 95 -18l-41 -243l-125 61q-46 0 -81 -9t-67 -35.5t-53 -70.5t-33 -116.5t-12 -172.5v-466h-235v1021z" />
    <glyph glyph-name="s" unicode="s" horiz-adv-x="1006" 
d="M443 970q-76 0 -122.5 -36.5t-46.5 -98.5q0 -54 38.5 -93t100 -63.5t135.5 -45.5t148 -46.5t135.5 -59t100 -90t38.5 -132.5q0 -150 -136.5 -240.5t-341.5 -90.5q-140 0 -262 43.5t-197 118.5l164 192q54 -115 147 -183t214 -68q95 0 147.5 40.5t52.5 110.5
q0 58 -38.5 100.5t-100 68.5t-135.5 49t-148.5 49t-136 59.5t-100 90.5t-38.5 133q0 138 118.5 215t317.5 77q287 0 443 -161l-164 -195q-52 115 -140.5 185.5t-192.5 70.5z" />
    <glyph glyph-name="t" unicode="t" horiz-adv-x="719" 
d="M-18 929l28 115h156v210l233 41v-251h338l-36 -151l-302 29v-561q0 -131 44.5 -189.5t147.5 -58.5h103l-36 -113h-110q-111 0 -186.5 27t-118 82.5t-60 128t-17.5 174.5v517h-184z" />
    <glyph glyph-name="u" unicode="u" horiz-adv-x="1111" 
d="M765 1032l236 38v-1070h-146l-46 156q-138 -179 -366 -179q-175 0 -268 112.5t-93 325.5v617l235 41v-576q0 -384 210 -384q92 0 158.5 68t79.5 213v638z" />
    <glyph glyph-name="v" unicode="v" horiz-adv-x="990" 
d="M-20 1044h240l241 -640l77 -240l199 527l31 353h243l-415 -1044h-225z" />
    <glyph glyph-name="w" unicode="w" horiz-adv-x="1566" 
d="M1359 1044h228l-333 -1044h-225l-246 737l-253 -737h-218l-332 1044h238l174 -578l76 -277l254 735l-41 120h220l289 -855l141 471z" />
    <glyph glyph-name="x" unicode="x" horiz-adv-x="1008" 
d="M727 1044h230l-343 -465l413 -574l-269 -2l-302 422l-290 -425h-186l401 525l-373 519l271 3l264 -366l110 151z" />
    <glyph glyph-name="y" unicode="y" horiz-adv-x="962" 
d="M799 1044h187l-594 -1461l-210 110l261 289l23 72h-128l-358 990h245l123 -335q104 -304 169 -502z" />
    <glyph glyph-name="z" unicode="z" horiz-adv-x="911" 
d="M18 883l36 161h822v-115l-589 -811l614 46l-36 -164h-857v118l588 811z" />
    <glyph glyph-name="braceleft" unicode="{" horiz-adv-x="878" 
d="M788 -404v-141q-496 0 -496 448v540q0 81 -60 124t-155 35v140q101 2 159 40t58 114v394q0 231 122 359t372 128v-141q-141 0 -204.5 -79.5t-63.5 -230.5v-392q0 -107 -57.5 -174.5t-168.5 -88.5q104 -15 163.5 -78t59.5 -163v-535q0 -152 71.5 -228.5t199.5 -70.5z" />
    <glyph glyph-name="bar" unicode="|" horiz-adv-x="527" 
d="M154 1748h220v-1932h-220v1932z" />
    <glyph glyph-name="braceright" unicode="}" horiz-adv-x="814" 
d="M64 -545v141q128 -6 199.5 70.5t71.5 228.5v535q0 100 59.5 163t163.5 78q-111 21 -168 88t-57 175v392q0 310 -269 310v141q250 0 372 -128t122 -359v-394q0 -76 58.5 -114t159.5 -40v-140q-95 8 -155 -35t-60 -124v-540q0 -448 -497 -448z" />
    <glyph glyph-name="uni00A0" unicode="&#xa0;" horiz-adv-x="563" 
 />
    <glyph glyph-name="cent" unicode="&#xa2;" horiz-adv-x="952" 
d="M351 -205l38 197q-157 42 -246 182t-89 353q0 256 126 401t352 145q29 0 62 -5l28 143h95l-31 -161q157 -45 248 -187l-181 -190q-34 130 -100 203l-144 -751q51 -20 111 -20q81 0 153.5 37t122.5 94l46 -44q-55 -91 -162 -154.5t-253 -63.5q-31 0 -46 3l-33 -182h-97z
M282 637q0 -317 143 -455l146 758q-37 17 -85 17q-102 0 -153 -83t-51 -237z" />
    <glyph glyph-name="sterling" unicode="&#xa3;" horiz-adv-x="1113" 
d="M407 1029v-297l458 46l-25 -166h-433v-492l599 46l-26 -166h-942v36l159 74v502h-159v38l159 72v261q0 236 121.5 369t316.5 133q127 0 236 -68t179 -196l-154 -243q-42 172 -128.5 282t-178.5 110q-85 0 -133.5 -83t-48.5 -258z" />
    <glyph glyph-name="yen" unicode="&#xa5;" horiz-adv-x="1208" 
d="M909 1147l84 307h259l-487 -755h428l-36 -123h-407v-184h443l-36 -121h-407v-284h-246v284h-512l36 121h476v184h-512l36 123h410l-484 755h274l440 -686z" />
    <glyph glyph-name="guillemotleft" unicode="&#xab;" horiz-adv-x="1118" 
d="M1044 292v-138l-496 286v159l496 282v-139l-394 -220zM573 292v-138l-496 286v159l496 282v-139l-394 -220z" />
    <glyph glyph-name="guillemotright" unicode="&#xbb;" horiz-adv-x="1131" 
d="M87 154v138l394 230l-394 220v139l497 -282v-159zM558 154v138l394 230l-394 220v139l497 -282v-159z" />
    <glyph glyph-name="multiply" unicode="&#xd7;" horiz-adv-x="993" 
d="M77 914l100 100l317 -318l318 318l104 -103l-320 -317l320 -323l-99 -97l-318 318l-320 -318l-102 102l317 320z" />
    <glyph glyph-name="divide" unicode="&#xf7;" horiz-adv-x="1167" 
d="M571 97l-156 156l156 154l156 -154zM568 829l-156 157l156 153l156 -153zM1080 543h-1003v141h1003v-141z" />
    <glyph glyph-name="uni060C" unicode="&#x60c;" horiz-adv-x="450" 
d="M197 241h161v-136q0 -76 -36 -117.5t-99 -41.5q-70 0 -110.5 50.5t-40.5 134.5q0 42 9.5 83t33 87t39.5 74t53.5 84.5t51.5 78.5l79 -54z" />
    <glyph glyph-name="uni061B" unicode="&#x61b;" horiz-adv-x="476" 
d="M215 0l-156 156l156 154l156 -154zM197 750h161v-136q0 -76 -35.5 -117t-99.5 -41q-70 0 -110.5 50t-40.5 134q0 42 9.5 83t33 87t39.5 74t53.5 84.5t51.5 78.5l79 -54z" />
    <glyph glyph-name="uni061F" unicode="&#x61f;" horiz-adv-x="1059" 
d="M717 131l-156 -157l-157 157l121 130q45 48 52 95.5t-17.5 88.5t-68.5 87t-98.5 89t-110.5 96t-102.5 106t-76 121.5t-29.5 140.5q0 75 32.5 142.5t91.5 118.5t148.5 81.5t196.5 31.5q190 0 402 -118l-49 -192q-170 77 -340 77q-141 0 -241 -47.5t-100 -108.5
q0 -34 40.5 -80.5t100 -96.5t128.5 -108.5t125 -125t89.5 -137t22.5 -154t-76 -166.5z" />
    <glyph glyph-name="uni0621" unicode="&#x621;" horiz-adv-x="857" 
d="M64 -51l-28 125l233 72q-182 112 -182 307q0 157 109 266.5t257 109.5q160 0 274 -138l-61 -118q-105 31 -210 31q-115 0 -179.5 -45.5t-64.5 -115.5q0 -203 512 -207h95l-36 -236h-322z" />
    <glyph glyph-name="uni0622" unicode="&#x622;" horiz-adv-x="504" 
d="M154 1193l199 49v-1242h-158zM489 1574l-15 -128h-287q-14 0 -27.5 -1.5t-28 -6t-24 -7t-25 -10t-21 -10.5t-23 -12t-20.5 -11l-51 64q45 40 72.5 61t73 41t89.5 20h287z" />
    <glyph glyph-name="uni0623" unicode="&#x623;" horiz-adv-x="504" 
d="M154 1193l199 49v-1242h-158zM36 1413l136 49q-93 50 -93 156q0 78 51 126t131 48q95 0 151 -56l-25 -90q-67 23 -128 23q-46 0 -79.5 -20.5t-33.5 -48.5q0 -14 8.5 -27.5t30 -27t58 -21t92 -11t131.5 4.5l-18 -123l-412 -46v64z" />
    <glyph glyph-name="uni0624" unicode="&#x624;" horiz-adv-x="977" 
d="M865 159q0 -99 -28 -193t-71 -167t-103.5 -141.5t-117.5 -116t-120 -89.5l-358 190v74h135q129 0 233 28t169 76.5t101.5 106.5t44.5 124h-653v284q0 252 98 390t263 138q178 0 292.5 -156.5t114.5 -435.5v-112zM205 284h530q-24 161 -123.5 257t-217.5 96
q-99 0 -144 -75t-45 -232v-46zM241 1037l135 48q-92 49 -92 157q0 78 51 126t131 48q94 0 151 -57l-26 -89q-67 23 -128 23q-46 0 -79 -20.5t-33 -48.5q0 -14 8.5 -27.5t30 -27t58 -21t92 -11t131.5 4.5l-18 -123l-412 -46v64z" />
    <glyph glyph-name="uni0625" unicode="&#x625;" horiz-adv-x="504" 
d="M200 0l-46 1405l199 49v-1454h-153zM38 -504l136 48q-92 49 -92 156q0 78 51 126.5t131 48.5q94 0 151 -57l-26 -89q-76 20 -128 20q-46 0 -79.5 -19t-33.5 -47q0 -14 8.5 -27.5t30 -27t58 -21t92 -11t131.5 4.5l-17 -123l-413 -46v64z" />
    <glyph glyph-name="uni0626" unicode="&#x626;" horiz-adv-x="1387" 
d="M978 735q-130 0 -216 -40.5t-86 -108.5q0 -40 35 -69t91.5 -48.5t124 -38t135.5 -45t124.5 -62t91.5 -95t35 -138.5q0 -106 -62.5 -200.5t-165.5 -159.5t-237 -102.5t-275 -37.5q-265 0 -411.5 131.5t-146.5 386.5q0 163 75 386l64 -10q-21 -153 -21 -241
q0 -219 120.5 -314t360.5 -95q128 0 256 28t215 79t87 110q0 33 -34 57.5t-88.5 41.5t-120 35t-131 44.5t-120 62t-88.5 95.5t-34 138q0 75 31 151.5t86.5 141t143 105t189.5 40.5q103 0 183.5 -36t131.5 -85l-69 -161q-130 54 -274 54zM-95 684l136 48q-92 49 -92 156
q0 78 51 126t131 48q95 0 151 -56l-26 -90q-70 24 -128 24q-46 0 -79.5 -21t-33.5 -49q0 -14 8.5 -27.5t30 -27t58 -21t92 -11t131.5 4.5l-18 -122l-412 -46v64z" />
    <glyph glyph-name="uni0627" unicode="&#x627;" horiz-adv-x="504" 
d="M200 0l-46 1405l199 49v-1454h-153z" />
    <glyph glyph-name="uni0628" unicode="&#x628;" horiz-adv-x="1751" 
d="M1324 730l176 153q72 -112 97.5 -252.5t25.5 -371.5v-259h-1075q-235 0 -353 92.5t-118 301.5q0 145 71 379l64 -13q-15 -135 -15 -215q0 -112 36 -175.5t123.5 -93.5t245.5 -30h883q-23 232 -161 484zM822 -494l-156 156l156 154l156 -154z" />
    <glyph glyph-name="uni0629" unicode="&#x629;" horiz-adv-x="1003" 
d="M77 340q0 98 28 207t67 180l23 146h209q235 0 361 -155.5t126 -471.5v-246h-474q-157 0 -248.5 86t-91.5 254zM325 1080l-151 149l151 151l138 -136l133 133l152 -151l-152 -148l-135 135zM261 648q-66 -150 -66 -244q0 -86 64.5 -121t208.5 -35h282q-8 400 -348 400
h-141z" />
    <glyph glyph-name="uni062A" unicode="&#x62a;" horiz-adv-x="1751" 
d="M1324 730l176 153q72 -112 97.5 -252.5t25.5 -371.5v-259h-1075q-235 0 -353 92.5t-118 301.5q0 145 71 379l64 -13q-15 -135 -15 -215q0 -112 36 -175.5t123.5 -93.5t245.5 -30h883q-23 232 -161 484zM689 924l-151 149l151 151l138 -136l133 133l151 -151l-151 -148
l-136 135z" />
    <glyph glyph-name="uni062B" unicode="&#x62b;" horiz-adv-x="1697" 
d="M1272 730l177 153q72 -112 97.5 -252.5t25.5 -371.5v-259h-1078q-235 0 -353 92.5t-118 301.5q0 142 72 379l64 -13q-16 -144 -16 -215q0 -112 36 -175.5t123.5 -93.5t245.5 -30h886q-23 230 -162 484zM637 924l-151 149l151 151l139 -136l133 133l151 -151l-151 -148
l-136 135zM776 1190l-146 146l146 146l146 -146z" />
    <glyph glyph-name="uni062C" unicode="&#x62c;" horiz-adv-x="1236" 
d="M676 -348h525v-56l-551 -210q-120 14 -226 55t-192.5 107.5t-137 167.5t-50.5 223q0 449 696 683q-32 6 -102.5 19.5t-108 20.5t-89.5 13t-92 6q-124 0 -258 -72l-39 54q68 131 136.5 191t173.5 60q57 0 129.5 -19.5t136 -43.5t165.5 -43.5t212 -19.5h168l-25 -204
q-125 -28 -253 -69t-259.5 -102t-232 -130t-164.5 -157.5t-64 -179.5q0 -61 28 -112.5t85.5 -93t157 -65t231.5 -23.5zM748 -77l-152 149l152 151l151 -151z" />
    <glyph glyph-name="uni062D" unicode="&#x62d;" horiz-adv-x="1236" 
d="M676 -348h525v-56l-551 -210q-120 14 -226 55t-192.5 107.5t-137 167.5t-50.5 223q0 449 696 683q-32 6 -102.5 19.5t-108 20.5t-89.5 13t-92 6q-124 0 -258 -72l-39 54q68 131 136.5 191t173.5 60q57 0 129.5 -19.5t136 -43.5t165.5 -43.5t212 -19.5h168l-25 -204
q-125 -28 -253 -69t-259.5 -102t-232 -130t-164.5 -157.5t-64 -179.5q0 -61 28 -112.5t85.5 -93t157 -65t231.5 -23.5z" />
    <glyph glyph-name="uni062E" unicode="&#x62e;" horiz-adv-x="1236" 
d="M676 -348h525v-56l-551 -210q-120 14 -226 55t-192.5 107.5t-137 167.5t-50.5 223q0 449 696 683q-32 6 -102.5 19.5t-108 20.5t-89.5 13t-92 6q-124 0 -258 -72l-39 54q68 131 136.5 191t173.5 60q57 0 129.5 -19.5t136 -43.5t165.5 -43.5t212 -19.5h168l-25 -204
q-125 -28 -253 -69t-259.5 -102t-232 -130t-164.5 -157.5t-64 -179.5q0 -61 28 -112.5t85.5 -93t157 -65t231.5 -23.5zM637 1101l-156 156l156 154l157 -154z" />
    <glyph glyph-name="uni062F" unicode="&#x62f;" horiz-adv-x="898" 
d="M317 988q95 -32 163.5 -69.5t129 -96t97.5 -136.5t58 -189t21 -256v-241h-748l36 246h571q-2 198 -100 323.5t-309 211.5z" />
    <glyph glyph-name="uni0630" unicode="&#x630;" horiz-adv-x="898" 
d="M317 988q95 -32 163.5 -69.5t129 -96t97.5 -136.5t58 -189t21 -256v-241h-748l36 246h571q-2 198 -100 323.5t-309 211.5zM323 1180l-157 156l157 154l156 -154z" />
    <glyph glyph-name="uni0631" unicode="&#x631;" horiz-adv-x="568" 
d="M-302 -269h95q123 0 225.5 39.5t166 102t98 135t34.5 143.5q0 173 -179 461l172 159q70 -124 108 -239.5t38 -244.5q0 -232 -125.5 -452.5t-350.5 -369.5l-282 189v77z" />
    <glyph glyph-name="uni0632" unicode="&#x632;" horiz-adv-x="568" 
d="M-302 -269h95q123 0 225.5 39.5t166 102t98 135t34.5 143.5q0 173 -179 461l172 159q70 -124 108 -239.5t38 -244.5q0 -232 -125.5 -452.5t-350.5 -369.5l-282 189v77zM233 955l-156 156l156 154l156 -154z" />
    <glyph glyph-name="uni0633" unicode="&#x633;" horiz-adv-x="2396" 
d="M1969 684l176 153q74 -114 100 -240.5t26 -314.5v-282h-305q-157 0 -253 169q-47 -89 -123 -129t-162 -40h-232q-21 -122 -86 -221t-155.5 -160t-196 -93.5t-215.5 -32.5q-252 0 -388.5 135.5t-136.5 363.5q0 177 72 395l66 -16q-20 -126 -20 -238q0 -188 105 -290
t322 -102q122 0 240.5 34t195 92.5t76.5 124.5q0 62 -57.5 227t-118.5 275l184 143q87 -170 115 -391h371l98 325l163 23l-69 -277q63 -71 172 -71h197q-21 192 -161 438z" />
    <glyph glyph-name="uni0634" unicode="&#x634;" horiz-adv-x="2396" 
d="M1969 684l176 153q74 -114 100 -240.5t26 -314.5v-282h-305q-157 0 -253 169q-47 -89 -123 -129t-162 -40h-232q-21 -122 -86 -221t-155.5 -160t-196 -93.5t-215.5 -32.5q-252 0 -388.5 135.5t-136.5 363.5q0 177 72 395l66 -16q-20 -126 -20 -238q0 -188 105 -290
t322 -102q122 0 240.5 34t195 92.5t76.5 124.5q0 62 -57.5 227t-118.5 275l184 143q87 -170 115 -391h371l98 325l163 23l-69 -277q63 -71 172 -71h197q-21 192 -161 438zM1533 817l-151 148l151 151l136 -136l136 136l151 -151l-151 -148l-136 135zM1672 1085l-146 146
l146 146l146 -146z" />
    <glyph glyph-name="uni0635" unicode="&#x635;" horiz-adv-x="2644" 
d="M899 494l184 143q87 -170 115 -391h156q174 312 357.5 474.5t385.5 162.5q192 0 313.5 -139.5t121.5 -392.5v-351h-1336q-21 -122 -86 -221t-155.5 -160t-196 -93.5t-215.5 -32.5q-252 0 -388.5 135.5t-136.5 363.5q0 177 72 395l66 -16q-20 -126 -20 -238
q0 -188 105 -290t322 -102q122 0 240.5 34t195 92.5t76.5 124.5q0 62 -57.5 227t-118.5 275zM2010 668q-79 0 -155 -33.5t-144.5 -96.5t-124 -131.5t-117.5 -160.5h919q-2 75 -28.5 149t-73 135.5t-119 99.5t-157.5 38z" />
    <glyph glyph-name="uni0636" unicode="&#x636;" horiz-adv-x="2644" 
d="M899 494l184 143q87 -170 115 -391h156q174 312 357.5 474.5t385.5 162.5q192 0 313.5 -139.5t121.5 -392.5v-351h-1336q-21 -122 -86 -221t-155.5 -160t-196 -93.5t-215.5 -32.5q-252 0 -388.5 135.5t-136.5 363.5q0 177 72 395l66 -16q-20 -126 -20 -238
q0 -188 105 -290t322 -102q122 0 240.5 34t195 92.5t76.5 124.5q0 62 -57.5 227t-118.5 275zM2010 668q-79 0 -155 -33.5t-144.5 -96.5t-124 -131.5t-117.5 -160.5h919q-2 75 -28.5 149t-73 135.5t-119 99.5t-157.5 38zM1395 855l-156 156l156 154l156 -154z" />
    <glyph glyph-name="uni0637" unicode="&#x637;" horiz-adv-x="1653" 
d="M402 1405l200 49v-691q0 -116 -29 -200q254 320 533 320q192 0 313.5 -139.5t121.5 -392.5v-351h-1467l-36 246h326q22 42 71 123zM1019 668q-64 0 -127 -23.5t-115.5 -61t-107.5 -94.5t-98 -113.5t-92 -129.5h919q-2 75 -29 149t-73.5 135.5t-119 99.5t-157.5 38z" />
    <glyph glyph-name="uni0638" unicode="&#x638;" horiz-adv-x="1653" 
d="M402 1405l200 49v-691q0 -116 -29 -200q254 320 533 320q192 0 313.5 -139.5t121.5 -392.5v-351h-1467l-36 246h326q22 42 71 123zM1019 668q-64 0 -127 -23.5t-115.5 -61t-107.5 -94.5t-98 -113.5t-92 -129.5h919q-2 75 -29 149t-73.5 135.5t-119 99.5t-157.5 38z
M1121 1070l-156 156l156 154l156 -154z" />
    <glyph glyph-name="uni0639" unicode="&#x639;" horiz-adv-x="1006" 
d="M883 591l-13 -230q-99 -34 -175 -62.5t-160 -66t-144 -75.5t-110.5 -82t-76 -94.5t-25.5 -105.5q0 -111 108.5 -181t329.5 -70h353v-75l-368 -181q-119 16 -218.5 52.5t-178 95.5t-123 147.5t-44.5 198.5q0 293 328 494q-130 43 -207 132t-77 221q0 169 118 281.5
t279 112.5q96 0 180 -42.5t142 -113.5l-53 -125q-135 46 -262 46q-115 0 -191.5 -49.5t-76.5 -101.5q0 -39 44.5 -86.5t121 -83t154.5 -35.5q139 0 345 79z" />
    <glyph glyph-name="uni063A" unicode="&#x63a;" horiz-adv-x="1006" 
d="M883 591l-13 -230q-99 -34 -175 -62.5t-160 -66t-144 -75.5t-110.5 -82t-76 -94.5t-25.5 -105.5q0 -111 108.5 -181t329.5 -70h353v-75l-368 -181q-119 16 -218.5 52.5t-178 95.5t-123 147.5t-44.5 198.5q0 293 328 494q-130 43 -207 132t-77 221q0 169 118 281.5
t279 112.5q96 0 180 -42.5t142 -113.5l-53 -125q-135 46 -262 46q-115 0 -191.5 -49.5t-76.5 -101.5q0 -39 44.5 -86.5t121 -83t154.5 -35.5q139 0 345 79zM486 1290l-156 156l156 154l157 -154z" />
    <glyph glyph-name="uni0640" unicode="&#x640;" horiz-adv-x="332" 
d="M79 246h333v-164q0 -46 -17 -64t-62 -18h-333v164q0 46 17 64t62 18z" />
    <glyph glyph-name="uni0641" unicode="&#x641;" horiz-adv-x="1799" 
d="M151 773l64 -13q-15 -108 -15 -215q0 -112 35.5 -175.5t123 -93.5t245.5 -30h945v184h-640v238q0 251 97.5 389.5t263.5 138.5q176 0 290 -150.5t114 -402.5v-643h-1124q-237 0 -355 92.5t-118 301.5q0 150 74 379zM1014 625h530q-19 155 -120.5 249t-220.5 94
q-98 0 -143.5 -76t-45.5 -232v-35zM1277 1382l-156 157l156 153l154 -153z" />
    <glyph glyph-name="uni0642" unicode="&#x642;" horiz-adv-x="1410" 
d="M1295 136q0 -128 -43 -237t-116 -184t-168.5 -128t-200 -77.5t-211.5 -24.5q-117 0 -210 27t-153.5 73.5t-100.5 112.5t-57 139.5t-17 159.5q0 194 69 395l67 -18q-18 -142 -18 -233q0 -98 19.5 -169t69 -129.5t143 -88.5t231.5 -30q140 0 270 34t217 103.5t81 158.5
l-5 31h-632v284q0 252 97.5 390t260.5 138q178 0 292.5 -156.5t114.5 -435.5v-135zM635 284h532q-24 161 -124.5 257t-218.5 96q-98 0 -143.5 -75.5t-45.5 -231.5v-46zM753 1070l-151 149l151 151l135 -136l136 136l151 -151l-151 -149l-136 136z" />
    <glyph glyph-name="uni0643" unicode="&#x643;" horiz-adv-x="1710" 
d="M1359 1405l197 49v-1454h-1008q-235 0 -353 92.5t-118 301.5q0 145 71 379l64 -13q-15 -135 -15 -215q0 -112 36 -175.5t123.5 -93.5t245.5 -30h796zM901 847q63 0 99.5 -38t36.5 -105q0 -66 -35 -104.5t-96 -38.5h-294v97h302q27 0 43 13t16 36q0 43 -54 43h-282v74
q0 57 54 103l144 110l48 -80l-174 -110h192z" />
    <glyph glyph-name="uni0644" unicode="&#x644;" horiz-adv-x="1239" 
d="M886 1405l199 49v-1262q0 -310 -157 -479t-434 -169q-233 0 -354.5 124t-121.5 358q0 159 72 391l66 -13q-20 -154 -20 -263q0 -351 407 -351q102 0 190.5 27t144 80t54.5 121z" />
    <glyph glyph-name="uni0645" unicode="&#x645;" horiz-adv-x="1100" 
d="M282 397l-100 43l51 121q28 71 59.5 126t74.5 104t100 75.5t124 26.5q76 0 146.5 -32.5t127 -94t90 -159t33.5 -218.5v-330h-793l43 -655l-200 -47v561q0 164 104.5 275.5t274.5 111.5h428q-5 93 -36.5 165.5t-78 113.5t-96 61.5t-96.5 20.5q-76 0 -126 -51t-97 -144
q-3 -7 -17 -36.5t-16 -37.5z" />
    <glyph glyph-name="uni0646" unicode="&#x646;" horiz-adv-x="1282" 
d="M899 617l184 143q65 -125 94 -266t29 -253q0 -120 -38.5 -223.5t-103.5 -176t-150.5 -124.5t-179.5 -76.5t-191 -24.5q-252 0 -388.5 135.5t-136.5 363.5q0 176 72 394l66 -15q-20 -126 -20 -238q0 -188 105 -290t322 -102q122 0 240.5 34t195 92.5t76.5 124.5
q0 62 -57.5 227t-118.5 275zM581 722l-156 156l156 154l156 -154z" />
    <glyph glyph-name="uni0647" unicode="&#x647;" horiz-adv-x="1003" 
d="M77 340q0 98 28 207t67 180l23 146h209q235 0 361 -155.5t126 -471.5v-246h-474q-157 0 -248.5 86t-91.5 254zM261 648q-66 -150 -66 -244q0 -86 64.5 -121t208.5 -35h282q-8 400 -348 400h-141z" />
    <glyph glyph-name="uni0648" unicode="&#x648;" horiz-adv-x="977" 
d="M202 -284q129 0 233 28t169 76.5t101.5 106.5t44.5 124h-653v284q0 252 98 390t263 138q178 0 292.5 -156.5t114.5 -435.5v-112q0 -99 -28 -193t-71 -167t-103.5 -141.5t-117.5 -116t-120 -89.5l-358 190v74h135zM205 284h530q-24 161 -123.5 257t-217.5 96
q-99 0 -144 -75t-45 -232v-46z" />
    <glyph glyph-name="uni0649" unicode="&#x649;" horiz-adv-x="1397" 
d="M978 735q-130 0 -216 -40.5t-86 -108.5q0 -40 35 -69t91.5 -48.5t124 -38t135.5 -45t124.5 -62t91.5 -95t35 -138.5q0 -106 -62.5 -200.5t-165.5 -159.5t-237 -102.5t-275 -37.5q-265 0 -411.5 131.5t-146.5 386.5q0 163 75 386l64 -10q-21 -153 -21 -241
q0 -219 120.5 -314t360.5 -95q128 0 256 28t215 79t87 110q0 33 -34 57.5t-88.5 41.5t-120 35t-131 44.5t-120 62t-88.5 95.5t-34 138q0 75 31 151.5t86.5 141t143 105t189.5 40.5q103 0 183.5 -36t131.5 -85l-69 -161q-130 54 -274 54z" />
    <glyph glyph-name="uni064A" unicode="&#x64a;" horiz-adv-x="1397" 
d="M978 735q-130 0 -216 -40.5t-86 -108.5q0 -40 35 -69t91.5 -48.5t124 -38t135.5 -45t124.5 -62t91.5 -95t35 -138.5q0 -106 -62.5 -200.5t-165.5 -159.5t-237 -102.5t-275 -37.5q-265 0 -411.5 131.5t-146.5 386.5q0 163 75 386l64 -10q-21 -153 -21 -241
q0 -219 120.5 -314t360.5 -95q128 0 256 28t215 79t87 110q0 33 -34 57.5t-88.5 41.5t-120 35t-131 44.5t-120 62t-88.5 95.5t-34 138q0 75 31 151.5t86.5 141t143 105t189.5 40.5q103 0 183.5 -36t131.5 -85l-69 -161q-130 54 -274 54zM445 -876l-151 149l151 151l136 -136
l136 136l151 -151l-151 -149l-136 136z" />
    <glyph glyph-name="uni064B" unicode="&#x64b;" 
d="M-269 74l566 87l-8 -71l-565 -87zM-269 323l566 87l-8 -72l-565 -87z" />
    <glyph glyph-name="uni064C" unicode="&#x64c;" 
d="M79 517q54 -21 83.5 -72.5t28 -108t-18.5 -111.5q-26 -74 -88.5 -131.5t-139.5 -96.5q-106 149 -223 149q-57 0 -118 -36l-38 79q73 47 143 47q73 0 138.5 -44t112.5 -110q76 43 125 105l-87 23q-85 19 -114 76.5t-3 128.5q20 53 60.5 81.5t87.5 28.5q22 0 51 -8z
M-79 392q-12 -32 10.5 -61t76.5 -42l115 -25q14 53 -7 99t-70 67q-21 8 -46 8q-61 0 -79 -46z" />
    <glyph glyph-name="uni064D" unicode="&#x64d;" 
d="M-282 -95l566 87l-8 -71l-565 -87zM-282 -348l566 87l-8 -72l-565 -87z" />
    <glyph glyph-name="uni064E" unicode="&#x64e;" 
d="M-266 72l566 87l-8 -72l-566 -87z" />
    <glyph glyph-name="uni064F" unicode="&#x64f;" 
d="M31 515q39 -14 65 -46t35 -72t7.5 -81.5t-13.5 -79.5q-25 -79 -89.5 -140.5t-143.5 -98.5l-76 -41l-36 75l92 51q122 52 169 105l-92 20q-85 20 -114.5 77t-3.5 128q21 51 62 82t87 31q28 0 51 -10zM-128 394q-12 -34 10 -63t74 -42l126 -28q10 52 -15 101t-75 68
q-24 8 -46 8q-56 0 -74 -44z" />
    <glyph glyph-name="uni0650" unicode="&#x650;" 
d="M-261 -95l566 87l-8 -71l-566 -87z" />
    <glyph glyph-name="uni0651" unicode="&#x651;" 
d="M172 317l84 21v-141q0 -97 -38 -147t-105 -50q-86 0 -118 72q-21 -38 -57.5 -59t-78.5 -21q-128 0 -148 180l-11 92l82 18v-113q0 -39 25 -62t70 -23q37 0 63 14t24 35l-13 133l85 18v-92q0 -45 27.5 -71t69.5 -26q58 0 54 38z" />
    <glyph glyph-name="uni0652" unicode="&#x652;" 
d="M0 371q73 0 118.5 -59.5t45.5 -139.5q0 -76 -45 -124t-122 -48q-72 0 -116.5 48t-44.5 124q0 80 46 139.5t118 59.5zM-3 95q53 0 87 22t34 55q0 36 -35 70t-86 34q-47 0 -81 -34t-34 -70q0 -33 33.5 -55t81.5 -22z" />
    <glyph glyph-name="uni0653" unicode="&#x653;" 
d="M233 128l-15 -128h-287q-17 0 -34 -3t-28.5 -6t-30 -11t-25.5 -11.5t-27.5 -14.5t-23.5 -13l-51 64q34 30 54 46t52 37t63.5 30.5t65.5 9.5h287z" />
    <glyph glyph-name="uni0654" unicode="&#x654;" 
d="M-215 67l136 48q-93 50 -93 156q0 78 51 126t131 48q95 0 151 -56l-25 -89q-67 23 -128 23q-46 0 -79.5 -21t-33.5 -49q0 -14 8.5 -27.5t30 -27t58 -21t92 -10.5t131.5 5l-18 -123l-412 -46v64z" />
    <glyph glyph-name="uni0655" unicode="&#x655;" 
d="M-228 -384l136 49q-92 49 -92 156q0 78 50.5 126t130.5 48q95 0 151 -56l-25 -90q-67 23 -128 23q-46 0 -79.5 -20.5t-33.5 -48.5q0 -14 8.5 -27.5t30 -27t58 -21t92 -11t131.5 4.5l-18 -123l-412 -46v64z" />
    <glyph glyph-name="uni0660" unicode="&#x660;" horiz-adv-x="586" 
d="M274 799l200 -200l-198 -200l-199 200z" />
    <glyph glyph-name="uni0661" unicode="&#x661;" horiz-adv-x="565" 
d="M154 1405l197 49l61 -1454h-151z" />
    <glyph glyph-name="uni0662" unicode="&#x662;" horiz-adv-x="898" 
d="M556 1196q-72 0 -124 -10.5t-76.5 -27t-22.5 -37.5l48 -1121h-151l-74 927q-21 242 116.5 371.5t393.5 129.5h197l-36 -232h-271z" />
    <glyph glyph-name="uni0663" unicode="&#x663;" horiz-adv-x="1349" 
d="M154 1405l197 49l15 -282q11 -209 197 -209q63 0 101.5 22t34.5 59l-33 361l194 49v-271q0 -112 49.5 -166t132.5 -54q38 0 58 12.5t16 43.5l-38 386l197 49v-266q0 -215 -64.5 -331.5t-181.5 -116.5q-80 0 -143.5 54.5t-94.5 145.5q-75 -216 -238 -216q-102 0 -174 77
l33 -801h-151z" />
    <glyph glyph-name="uni0664" unicode="&#x664;" horiz-adv-x="834" 
d="M671 1464l-49 -220l-118 -20q-94 -17 -185 -63.5t-91 -92.5q0 -90 407 -210v-157q-25 -13 -83 -41t-94.5 -46t-86.5 -48t-79 -55t-50.5 -58t-21.5 -66q0 -76 98 -113.5t250 -37.5h228v-75l-310 -171q-77 12 -146.5 39t-130 70.5t-96.5 109.5t-36 147q0 68 25.5 130
t74 115t102 95t125.5 87q-74 21 -125.5 43t-98 55.5t-70 80.5t-23.5 108q0 63 26.5 115.5t65.5 88t99.5 66t112 48t118.5 35.5z" />
    <glyph glyph-name="uni0665" unicode="&#x665;" horiz-adv-x="960" 
d="M481 1203q108 0 201 -77t147 -204.5t54 -271.5q0 -109 -33 -194t-90.5 -136.5t-131.5 -78t-160 -26.5q-178 0 -284.5 108.5t-106.5 316.5q0 150 56 280.5t149 206.5t199 76zM468 968q-69 0 -136 -51.5t-107.5 -127.5t-40.5 -146q0 -97 81.5 -146t202.5 -49q126 0 200 50
t74 142q0 67 -36 142.5t-101.5 130.5t-136.5 55z" />
    <glyph glyph-name="uni0666" unicode="&#x666;" horiz-adv-x="988" 
d="M74 1428h648l113 -1428h-200l-51 1201h-546z" />
    <glyph glyph-name="uni0667" unicode="&#x667;" horiz-adv-x="1134" 
d="M635 3h-190l-407 1425h236l310 -1185l315 1185h199z" />
    <glyph glyph-name="uni0668" unicode="&#x668;" horiz-adv-x="1134" 
d="M499 1428h190l407 -1428h-236l-310 1185l-314 -1185h-198z" />
    <glyph glyph-name="uni0669" unicode="&#x669;" horiz-adv-x="1057" 
d="M448 1454q63 0 116 -17t103.5 -60t87.5 -110.5t64.5 -174.5t38.5 -247l71 -845h-189l-26 640h-637v238q0 126 18.5 224.5t51 164t79.5 108t101.5 61t120.5 18.5zM182 876h519q-9 86 -42 155t-79.5 111t-99.5 64.5t-106 22.5q-192 0 -192 -307v-46z" />
    <glyph glyph-name="uni066A" unicode="&#x66a;" horiz-adv-x="1984" 
d="M1280 1441h210l-806 -1441h-213zM1498 727q177 0 276.5 -99t99.5 -277q0 -175 -97.5 -273t-273.5 -98q-178 0 -278.5 98.5t-100.5 274.5q0 177 98.5 275.5t275.5 98.5zM451 1446q177 0 276.5 -99t99.5 -277q0 -175 -97.5 -273t-273.5 -98q-178 0 -278.5 99t-100.5 275
q0 177 98.5 275t275.5 98zM1492 614q-85 0 -130.5 -68t-45.5 -193t48 -193t134 -68q87 0 135.5 67t48.5 187q0 128 -51 198t-139 70zM445 1334q-85 0 -130.5 -68t-45.5 -193t48 -193t134 -68q87 0 135.5 66.5t48.5 186.5q0 128 -51 198.5t-139 70.5z" />
    <glyph glyph-name="uni066B" unicode="&#x66b;" horiz-adv-x="486" 
d="M210 256h161v-136q0 -76 -35.5 -117t-99.5 -41q-71 0 -111.5 50.5t-40.5 133.5q0 42 9.5 83t33 87t39.5 74t53.5 84.5t51.5 78.5l80 -54z" />
    <glyph glyph-name="uni066D" unicode="&#x66d;" horiz-adv-x="849" 
d="M333 1114l-256 64l38 125l251 -107l-20 289h128l-23 -295l250 108l36 -128l-258 -64l171 -218l-105 -79l-143 248l-143 -240l-105 76z" />
    <glyph glyph-name="uni066E" unicode="&#x66e;" horiz-adv-x="1748" 
d="M1324 730l176 153q72 -112 97.5 -252.5t25.5 -371.5v-259h-1075q-235 0 -353 92.5t-118 301.5q0 145 71 379l64 -13q-15 -135 -15 -215q0 -112 36 -175.5t123.5 -93.5t245.5 -30h883q-23 232 -161 484z" />
    <glyph glyph-name="uni066F" unicode="&#x66f;" horiz-adv-x="1423" 
d="M1295 136q0 -128 -43 -237t-116 -184t-168.5 -128t-200 -77.5t-211.5 -24.5q-117 0 -210 27t-153.5 73.5t-100.5 112.5t-57 139.5t-17 159.5q0 194 69 395l67 -18q-18 -142 -18 -233q0 -98 19.5 -169t69 -129.5t143 -88.5t231.5 -30q140 0 270 34t217 103.5t81 158.5
l-5 31h-632v284q0 252 97.5 390t260.5 138q178 0 292.5 -156.5t114.5 -435.5v-135zM635 284h532q-24 161 -124.5 257t-218.5 96q-98 0 -143.5 -75.5t-45.5 -231.5v-46z" />
    <glyph glyph-name="uni0670" unicode="&#x670;" 
d="M41 343v-299l-82 -49v330z" />
    <glyph glyph-name="uni067E" unicode="&#x67e;" horiz-adv-x="1751" 
d="M1324 730l176 153q72 -112 97.5 -252.5t25.5 -371.5v-259h-1075q-235 0 -353 92.5t-118 301.5q0 145 71 379l64 -13q-15 -135 -15 -215q0 -112 36 -175.5t123.5 -93.5t245.5 -30h883q-23 232 -161 484zM535 -356l151 149l136 -136l135 136l151 -149l-151 -151l-135 136
l-136 -136zM678 -622l146 146l146 -146l-146 -146z" />
    <glyph glyph-name="uni0686" unicode="&#x686;" horiz-adv-x="1236" 
d="M676 -348h525v-56l-551 -210q-120 14 -226 55t-192.5 107.5t-137 167.5t-50.5 223q0 449 696 683q-32 6 -102.5 19.5t-108 20.5t-89.5 13t-92 6q-124 0 -258 -72l-39 54q68 131 136.5 191t173.5 60q57 0 129.5 -19.5t136 -43.5t165.5 -43.5t212 -19.5h168l-25 -204
q-125 -28 -253 -69t-259.5 -102t-232 -130t-164.5 -157.5t-64 -179.5q0 -61 28 -112.5t85.5 -93t157 -65t231.5 -23.5zM543 95l105 105l94 -95l95 95l105 -105l-105 -105l-95 92l-94 -92zM643 -92l102 102l102 -102l-102 -103z" />
    <glyph glyph-name="uni06A1" unicode="&#x6a1;" horiz-adv-x="1786" 
d="M151 773l64 -13q-15 -108 -15 -215q0 -112 35.5 -175.5t123 -93.5t245.5 -30h945v184h-640v238q0 251 97.5 389.5t263.5 138.5q176 0 290 -150.5t114 -402.5v-643h-1124q-237 0 -355 92.5t-118 301.5q0 150 74 379zM1014 625h530q-19 155 -120.5 249t-220.5 94
q-98 0 -143.5 -76t-45.5 -232v-35z" />
    <glyph glyph-name="uni06A4" unicode="&#x6a4;" horiz-adv-x="1799" 
d="M151 773l64 -13q-15 -108 -15 -215q0 -112 35.5 -175.5t123 -93.5t245.5 -30h945v184h-640v238q0 251 97.5 389.5t263.5 138.5q176 0 290 -150.5t114 -402.5v-643h-1124q-237 0 -355 92.5t-118 301.5q0 150 74 379zM1014 625h530q-19 155 -120.5 249t-220.5 94
q-98 0 -143.5 -76t-45.5 -232v-35zM1137 1403l-149 148l149 151l138 -135l133 133l151 -151l-151 -149l-136 136zM1275 1669l-146 146l146 146l148 -146z" />
    <glyph glyph-name="uni06BA" unicode="&#x6ba;" horiz-adv-x="1282" 
d="M899 617l184 143q65 -125 94 -266t29 -253q0 -120 -38.5 -223.5t-103.5 -176t-150.5 -124.5t-179.5 -76.5t-191 -24.5q-252 0 -388.5 135.5t-136.5 363.5q0 176 72 394l66 -15q-20 -126 -20 -238q0 -188 105 -290t322 -102q122 0 240.5 34t195 92.5t76.5 124.5
q0 62 -57.5 227t-118.5 275z" />
    <glyph glyph-name="uni06D4" unicode="&#x6d4;" horiz-adv-x="486" 
d="M243 -10l-156 156l156 154l156 -154z" />
    <glyph glyph-name="endash" unicode="&#x2013;" horiz-adv-x="1397" 
d="M1311 543h-1234v141h1234v-141z" />
    <glyph glyph-name="emdash" unicode="&#x2014;" horiz-adv-x="1981" 
d="M1894 543h-1817v141h1817v-141z" />
    <glyph glyph-name="quoteleft" unicode="&#x2018;" horiz-adv-x="476" 
d="M197 1426h161v-136q0 -76 -35.5 -117t-99.5 -41q-70 0 -110.5 50t-40.5 134q0 42 9.5 83t33 87t39.5 74t53.5 84.5t51.5 78.5l79 -54z" />
    <glyph glyph-name="quoteright" unicode="&#x2019;" horiz-adv-x="476" 
d="M238 1157h-161v136q0 76 36 117.5t99 41.5q70 0 111 -50.5t41 -134.5q0 -42 -9.5 -83t-33 -87t-39.5 -74t-53.5 -84.5t-51.5 -78.5l-80 54z" />
    <glyph glyph-name="quotesinglbase" unicode="&#x201a;" horiz-adv-x="476" 
d="M197 256h161v-136q0 -76 -35.5 -117t-99.5 -41q-70 0 -110.5 50t-40.5 134q0 42 9.5 83t33 87t39.5 74t53.5 84.5t51.5 78.5l79 -54z" />
    <glyph glyph-name="quotedblleft" unicode="&#x201c;" horiz-adv-x="862" 
d="M586 1444h162v-136q0 -76 -36 -117.5t-100 -41.5q-70 0 -110.5 50.5t-40.5 134.5q0 42 9.5 83t33 87t39.5 74t53.5 84.5t51.5 78.5l79 -54zM197 1444h161v-136q0 -76 -36 -117.5t-99 -41.5q-70 0 -110.5 50.5t-40.5 134.5q0 42 9.5 83t33 87t39.5 74t53.5 84.5t51.5 78.5
l79 -54z" />
    <glyph glyph-name="quotedblright" unicode="&#x201d;" horiz-adv-x="862" 
d="M241 1311h-162v135q0 76 36 117.5t100 41.5q70 0 110.5 -50t40.5 -134q0 -42 -9.5 -83t-33 -87t-39.5 -74t-53.5 -84.5t-51.5 -78.5l-79 54zM630 1311h-162v135q0 76 36 117.5t100 41.5q70 0 110.5 -50t40.5 -134q0 -42 -9.5 -83t-33 -87t-39.5 -74t-53.5 -84.5
t-51.5 -78.5l-79 54z" />
    <glyph glyph-name="quotedblbase" unicode="&#x201e;" horiz-adv-x="862" 
d="M586 238h162v-136q0 -76 -36 -117t-100 -41q-70 0 -110.5 50t-40.5 134q0 42 9.5 83t33 87t39.5 74t53.5 84.5t51.5 78.5l79 -54zM197 238h161v-136q0 -76 -35.5 -117t-99.5 -41q-70 0 -110.5 50t-40.5 134q0 42 9.5 83t33 87t39.5 74t53.5 84.5t51.5 78.5l79 -54z" />
    <glyph glyph-name="guilsinglleft" unicode="&#x2039;" horiz-adv-x="660" 
d="M573 292v-138l-496 286v159l496 282v-139l-394 -220z" />
    <glyph glyph-name="guilsinglright" unicode="&#x203a;" horiz-adv-x="647" 
d="M74 154v138l394 230l-394 220v139l497 -282v-159z" />
    <glyph glyph-name="Euro" unicode="&#x20ac;" horiz-adv-x="1336" 
d="M13 776l25 115h218q33 282 186.5 435.5t404.5 153.5q159 0 280.5 -66t198.5 -193l-156 -243q-48 186 -142 286t-224 100q-299 0 -318 -473h628l-26 -115h-604q5 -109 15 -174h615l-26 -113h-563q47 -182 148 -283t246 -101q104 0 198 56t168 167l49 -41
q-77 -146 -201.5 -229.5t-297.5 -83.5q-219 0 -364.5 135.5t-196.5 379.5h-261l25 113h218q-8 59 -8 174h-235z" />
    <glyph glyph-name="minus" unicode="&#x2212;" horiz-adv-x="888" 
d="M812 538h-735v140h735v-140z" />
    <glyph glyph-name="uniFBB2" unicode="&#xfbb2;" 
d="M0 0l-156 156l156 154l156 -154z" />
    <glyph glyph-name="uniFBB3" unicode="&#xfbb3;" 
d="M0 -307l-156 156l156 154l156 -154z" />
    <glyph glyph-name="uniFBB4" unicode="&#xfbb4;" 
d="M-138 0l-151 151l151 149l138 -136l133 133l151 -149l-151 -151l-138 139z" />
    <glyph glyph-name="uniFBB5" unicode="&#xfbb5;" 
d="M-136 -297l-151 151l151 149l139 -136l133 133l151 -148l-151 -152l-139 139z" />
    <glyph glyph-name="uniFBB6" unicode="&#xfbb6;" horiz-adv-x="168" 
d="M-138 0l-151 151l151 149l138 -136l133 133l151 -149l-151 -151l-138 139zM0 271l-146 146l146 146l146 -146z" />
    <glyph glyph-name="uniFBB7" unicode="&#xfbb7;" 
d="M-143 3l-151 151l151 148l138 -136l133 134l151 -149l-151 -151l-138 138zM-5 274l-146 146l146 146l146 -146z" />
    <glyph glyph-name="uniFBB8" unicode="&#xfbb8;" 
d="M-515 535l151 151l134 -136l138 139l151 -151l-151 -149l-133 133l-139 -135zM-371 269l146 146l146 -146l-146 -146z" />
    <glyph glyph-name="uniFBB9" unicode="&#xfbb9;" 
d="M-287 -151l151 151l133 -136l139 139l151 -151l-151 -149l-133 133l-139 -136zM-143 -417l146 146l145 -146l-145 -146z" />
    <glyph glyph-name="uniFBBD" unicode="&#xfbbd;" horiz-adv-x="199" 
d="M0 0l-151 151l136 133l-136 136l151 148l151 -148l-136 -136l136 -133z" />
    <glyph glyph-name="uniFBBE" unicode="&#xfbbe;" horiz-adv-x="168" 
d="M-31 -566l-151 151l136 133l-136 136l151 149l151 -149l-135 -136l135 -133z" />
    <glyph glyph-name="uniFD3E" unicode="&#xfd3e;" horiz-adv-x="913" 
d="M801 156l-724 382v256l724 353v-200l-624 -281l624 -305v-205z" />
    <glyph glyph-name="uniFD3F" unicode="&#xfd3f;" horiz-adv-x="860" 
d="M799 538l-725 -382v205l625 305l-625 281v200l725 -353v-256z" />
    <glyph glyph-name="CR" horiz-adv-x="601" 
 />
    <glyph glyph-name="a.ss03" horiz-adv-x="1108" 
d="M512 1073q144 0 284 -80l205 39v-1032h-113l-59 146q-128 -172 -345 -172q-199 0 -313.5 145t-114.5 393q0 262 126 411.5t330 149.5zM497 952q-97 0 -155 -93.5t-58 -272.5q0 -211 76 -351t196 -140q88 0 150.5 80.5t71.5 223.5v430q-46 47 -130 85t-151 38z" />
    <glyph glyph-name="f_f" horiz-adv-x="1336" 
d="M799 -3v932h-384v-932h-241v932h-192l28 115h164v88q0 85 18 150.5t60 120t120 84t189 29.5h169l-54 -187l-97 59q-30 15 -57 15q-50 0 -78.5 -52.5t-28.5 -144.5v-162h384v88q0 85 18 150.5t59.5 120t119.5 84t189 29.5h169l-54 -187l-97 59q-30 15 -56 15
q-50 0 -79 -52.5t-29 -144.5v-162h315l-36 -151l-279 26v-922h-240z" />
    <glyph glyph-name="f_t" horiz-adv-x="1331" 
d="M778 412v517h-363v-932h-241v932h-192l28 115h164v88q0 85 18 150.5t60 120t120 84t189 29.5h169l-54 -187l-97 59q-30 15 -57 15q-50 0 -78.5 -52.5t-28.5 -144.5v-162h363v210l233 41v-251h338l-36 -151l-302 29v-561q0 -131 44.5 -189.5t147.5 -58.5h103l-36 -113
h-110q-111 0 -186.5 27t-118 82.5t-60 128t-17.5 174.5z" />
    <glyph glyph-name="alefMaddaAr.fina.calt" horiz-adv-x="565" 
d="M72 246h396l-337 873l186 97q141 -391 167 -492q82 -263 82 -478h79v-205l-79 -41h-530zM492 1549l-16 -128h-287q-17 0 -34 -3t-28.5 -6t-30 -11t-25.5 -11.5t-27.5 -14.5t-23.5 -13l-51 64q45 40 72.5 61t73.5 41.5t90 20.5h287z" />
    <glyph glyph-name="alefHamzaaboveAr.fina.calt" horiz-adv-x="565" 
d="M72 246h396l-337 873l186 97q141 -391 167 -492q82 -263 82 -478h79v-205l-79 -41h-530zM38 1388l136 48q-92 49 -92 156q0 78 51 126t131 48q95 0 151 -56l-26 -90q-70 24 -128 24q-46 0 -79.5 -21t-33.5 -49q0 -14 8.5 -27.5t30 -27t58 -21t92 -11t131.5 4.5l-17 -122
l-413 -46v64z" />
    <glyph glyph-name="alefHamzabelowAr.fina.calt" horiz-adv-x="565" 
d="M72 246h396l-337 873l186 97q141 -391 167 -492q82 -263 82 -478h79v-205l-79 -41h-530zM84 -504l136 48q-92 49 -92 156q0 78 51 126.5t131 48.5q94 0 151 -57l-26 -89q-76 20 -128 20q-46 0 -79 -19t-33 -47q0 -14 8.5 -27.5t30 -27t58 -21t92 -11t131.5 4.5l-18 -123
l-413 -46v64z" />
    <glyph glyph-name="yehHamzaaboveAr.fina.calt" horiz-adv-x="1556" 
d="M1065 589q-85 0 -152.5 -13.5t-105.5 -33t-63.5 -43.5t-34 -42t-8.5 -32q0 -21 26.5 -40t68.5 -37.5t93 -39.5t101.5 -52t92.5 -69t68.5 -96.5t26.5 -128.5q0 -101 -52 -185t-139.5 -138t-200 -83.5t-236.5 -29.5q-260 0 -396 129t-136 373q0 181 72 371l64 -7
q-21 -176 -21 -246q0 -193 100 -288.5t333 -95.5q111 0 215.5 19t180 62.5t75.5 102.5q0 33 -25 58.5t-65.5 43.5t-89 36t-97 42t-89 56t-65.5 83.5t-25 118.5q0 79 34 154.5t96.5 137.5t162 100t219.5 38q164 0 328 -79v-292q0 -115 50.5 -156t164.5 -41v-223l-77 -23
q-56 0 -97 12t-69 36t-47 59t-31.5 81t-22.5 102.5t-20 122.5q-1 11 -2 17l-18 149q-86 10 -187 10zM-97 602l135 48q-92 49 -92 156q0 78 51 126t131 48q95 0 151 -56l-26 -89q-67 23 -128 23q-46 0 -79 -20.5t-33 -49.5q0 -14 8.5 -27.5t30 -27t58 -21t92 -10.5t131.5 5
l-18 -123l-412 -46v64z" />
    <glyph glyph-name="yehHamzaaboveAr.fina.calt.ss01" horiz-adv-x="2549" 
d="M2068 589q-154 0 -263.5 -44.5t-109.5 -116.5q0 -23 26.5 -43.5t68 -39t92.5 -38.5t102 -48t92.5 -62t68 -86t26.5 -114q0 -99 -66 -180t-176 -134t-257 -89.5t-303 -52t-322 -15.5q-609 0 -1050 226l-207 325l49 48q196 -163 526.5 -267t732.5 -104q205 0 414.5 24.5
t362.5 75.5t153 115q0 25 -25 45t-65 35.5t-88.5 32.5t-97 42t-88.5 57.5t-65 85.5t-25 120q0 82 37 159t102 136.5t162 95.5t209 36q182 0 330 -79v-292q0 -115 50.5 -156t164.5 -41v-223l-77 -23q-56 0 -97 12t-69 36t-47 59t-31.5 81t-22.5 102.5t-20 122.5q-1 11 -2 17
l-18 149q-122 10 -177 10zM151 243l136 49q-92 49 -92 156q0 78 50.5 126t130.5 48q95 0 151 -56l-25 -90q-67 23 -128 23q-46 0 -79.5 -20.5t-33.5 -48.5q0 -14 8.5 -27.5t30 -27t58 -21t92 -11t131.5 4.5l-18 -123l-412 -46v64z" />
    <glyph glyph-name="yehHamzaaboveAr.fina.ss01" horiz-adv-x="2255" 
d="M1723 84l38 162h581v-159l-58 -56q51 -54 51 -126q0 -83 -62 -148.5t-161 -105.5t-233.5 -66.5t-267.5 -37t-275 -10.5q-344 0 -611.5 61t-442.5 161l-205 328l46 49q195 -164 520 -268t716 -104q260 0 557.5 35.5t297.5 87.5q0 32 -118 82t-335 108q-35 6 -38 7z
M340 338l136 49q-92 49 -92 156q0 78 51 126t131 48q94 0 151 -57l-26 -89q-67 23 -128 23q-46 0 -79 -20.5t-33 -48.5q0 -14 8.5 -27.5t30 -27t58 -21t92 -11t131.5 4.5l-18 -123l-413 -46v64z" />
    <glyph glyph-name="yehHamzaaboveAr.medi.calt" horiz-adv-x="40" 
d="M-445 973l135 48q-92 49 -92 157q0 78 51 126t131 48q46 0 86 -16t62 -41l-23 -89q-67 23 -128 23q-46 0 -79 -20.5t-33 -48.5q0 -14 8.5 -27.5t30 -27t58 -21t92 -11t131.5 4.5l-18 -123l-412 -46v64zM0 220l79 26h41v-208l-79 -38h-41v220z" />
    <glyph glyph-name="yehHamzaaboveAr.medi.calt.heh" horiz-adv-x="40" 
d="M-445 771l135 48q-92 49 -92 156q0 78 51 126t131 48q46 0 86 -16t62 -40l-23 -89q-67 23 -128 23q-46 0 -79 -20.5t-33 -49.5q0 -14 8.5 -27.5t30 -27t58 -21t92 -10.5t131.5 5l-18 -123l-412 -46v64zM0 220l79 26h41v-208l-79 -38h-41v220z" />
    <glyph glyph-name="yehHamzaaboveAr.ss01" horiz-adv-x="2219" 
d="M1815 735q-70 0 -137.5 -15.5t-117.5 -51.5t-50 -84q0 -33 27.5 -59.5t72.5 -44t102 -37.5t117 -38t117 -46.5t102 -62t72.5 -85.5t27.5 -116q0 -85 -47 -157t-130 -123t-191 -89.5t-236 -61.5t-258.5 -34t-264.5 -11q-296 0 -567.5 54.5t-463.5 170.5l-200 325l46 49
q216 -177 527.5 -274.5t704.5 -97.5q98 0 209 5.5t244 21t237.5 39t175 64t70.5 91.5q0 27 -34 48t-88 36.5t-119.5 33.5t-131 45t-119.5 63.5t-88 97.5t-34 139q0 79 33.5 157t90 139t140 99t176.5 38q168 0 326 -121l-70 -164q-85 31 -143.5 44t-127.5 13zM184 338l136 49
q-92 49 -92 156q0 78 51 126t131 48q94 0 151 -57l-26 -89q-67 23 -128 23q-46 0 -79.5 -20.5t-33.5 -48.5q0 -14 8.5 -27.5t30 -27t58 -21t92 -11t131.5 4.5l-18 -123l-412 -46v64z" />
    <glyph glyph-name="alefAr.fina.calt" horiz-adv-x="565" 
d="M72 246h396l-337 873l186 97q141 -391 167 -492q82 -263 82 -478h79v-205l-79 -41h-530z" />
    <glyph glyph-name="alefAr.fina.short" horiz-adv-x="445" 
d="M113 1193l202 49v-996h210v-220l-80 -26h-286z" />
    <glyph glyph-name="alefAr.short" horiz-adv-x="504" 
d="M154 1193l199 49v-1242h-158z" />
    <glyph glyph-name="behAr.fina.ss01" horiz-adv-x="2411" 
d="M36 246h2104q-23 232 -161 484l177 153q72 -112 97 -252t25 -372v-13h213v-220l-79 -26h-2338zM1165 -494l-156 156l156 154l156 -154z" />
    <glyph glyph-name="behAr.medi.calt" horiz-adv-x="40" 
d="M-207 -494l-157 156l157 154l156 -154zM0 220l79 26h41v-208l-79 -38h-41v220z" />
    <glyph glyph-name="behAr.ss01" horiz-adv-x="2378" 
d="M36 246h2089q-23 232 -161 484l176 153q72 -112 97.5 -252.5t25.5 -371.5v-259h-2189zM1162 -494l-156 156l156 154l156 -154z" />
    <glyph glyph-name="tehMarbutaAr.fina.ss04" horiz-adv-x="1026" 
d="M691 1052l190 46v-670q0 -60 15 -98t47.5 -55.5t67.5 -23t92 -5.5v-200q-3 -18 -28.5 -32t-45.5 -14q-121 0 -190.5 60.5t-96.5 190.5q-68 -87 -167 -143.5t-206 -56.5q-130 0 -212.5 83.5t-82.5 229.5q0 162 105 278.5t287 176.5l233 80zM161 1236l36 177
q133 -15 325 -15h179l-35 -182h-177q-188 0 -328 20zM407 287q79 0 164.5 26t155.5 68l-15 300l-277 -64q-44 -11 -83.5 -27t-75.5 -39t-57.5 -55.5t-21.5 -70.5q0 -64 59 -101t151 -37z" />
    <glyph glyph-name="tehMarbutaAr.ss04" horiz-adv-x="1003" 
d="M77 340q0 98 28 207t67 180l23 146h209q235 0 361 -155.5t126 -471.5v-246h-474q-157 0 -248.5 86t-91.5 254zM261 648q-66 -150 -66 -244q0 -86 64.5 -121t208.5 -35h282q-8 400 -348 400h-141zM202 1116l36 177q142 -16 325 -16h179l-35 -181h-177q-188 0 -328 20z" />
    <glyph glyph-name="tehAr.fina.ss01" horiz-adv-x="2411" 
d="M36 246h2104q-23 232 -161 484l177 153q72 -112 97 -252t25 -372v-13h213v-220l-79 -26h-2338zM1016 668l-151 149l151 151l136 -136l136 136l151 -151l-151 -149l-136 136z" />
    <glyph glyph-name="tehAr.fina.ss01.ss04" horiz-adv-x="2411" 
d="M36 246h2104q-23 232 -161 484l177 153q72 -112 97 -252t25 -372v-13h213v-220l-79 -26h-2338zM891 707l36 176q133 -15 325 -15h179l-36 -182h-176q-181 0 -328 21z" />
    <glyph glyph-name="tehAr.fina.ss04" horiz-adv-x="1743" 
d="M548 0q-235 0 -353 92.5t-118 301.5q0 145 71 379l64 -13q-15 -135 -15 -215q0 -112 36 -175.5t123.5 -93.5t245.5 -30h870q-23 232 -161 484l176 153q72 -112 97.5 -252.5t25.5 -371.5v-13h213v-220l-80 -26h-1195zM558 960l36 177q142 -16 325 -16h179l-36 -181h-176
q-188 0 -328 20z" />
    <glyph glyph-name="tehAr.init.ss04" horiz-adv-x="637" 
d="M210 730l177 153q72 -112 97 -252t25 -372v-259h-509v207l77 39h294q-23 232 -161 484zM49 1126l35 177q133 -15 326 -15h179l-36 -182h-177q-187 0 -327 20z" />
    <glyph glyph-name="tehAr.init.wide" horiz-adv-x="719" 
d="M456 246q-23 230 -162 484l177 153q72 -112 97.5 -252.5t25.5 -371.5v-259h-594v207l79 39h377zM256 1091l-151 148l151 151l138 -136l133 134l151 -152l-151 -148l-135 136z" />
    <glyph glyph-name="tehAr.init.wide.ss04" horiz-adv-x="719" 
d="M294 730l177 153q72 -112 97.5 -252.5t25.5 -371.5v-259h-594v207l79 39h377q-23 230 -162 484zM133 1126l36 177q133 -15 325 -15h179l-36 -182h-176q-188 0 -328 20z" />
    <glyph glyph-name="tehAr.medi.calt" horiz-adv-x="40" 
d="M-364 1009l-151 148l151 151l139 -136l133 134l151 -151l-151 -149l-138 136zM0 220l79 26h41v-208l-79 -38h-41v220z" />
    <glyph glyph-name="tehAr.medi.calt.heh" horiz-adv-x="40" 
d="M-364 804l-151 148l151 151l139 -135l133 133l151 -151l-151 -149l-138 136zM0 220l79 26h41v-208l-79 -38h-41v220z" />
    <glyph glyph-name="tehAr.medi.calt.heh.ss04" horiz-adv-x="40" 
d="M-486 840l35 176q133 -15 326 -15h179l-36 -182h-177q-180 0 -327 21zM0 220l79 26h41v-208l-79 -38h-41v220z" />
    <glyph glyph-name="tehAr.medi.calt.ss04" horiz-adv-x="40" 
d="M-486 1044l35 177q133 -15 326 -15h179l-36 -182h-177q-187 0 -327 20zM0 220l79 26h41v-208l-79 -38h-41v220z" />
    <glyph glyph-name="tehAr.medi.ss04" horiz-adv-x="642" 
d="M210 730l177 153q72 -112 97 -252t25 -372v-13h213v-220l-79 -26h-643v207l77 39h294q-23 232 -161 484zM72 1126l36 177q133 -15 325 -15h179l-36 -182h-177q-187 0 -327 20z" />
    <glyph glyph-name="tehAr.medi.wide" horiz-adv-x="655" 
d="M294 730l177 153q72 -112 97.5 -252.5t25.5 -371.5v-13h141v-220l-80 -26h-655v207l79 39h377q-23 230 -162 484zM215 1091l-151 148l151 151l138 -136l133 134l151 -152l-151 -148l-135 136z" />
    <glyph glyph-name="tehAr.medi.wide.ss04" horiz-adv-x="655" 
d="M294 730l177 153q72 -112 97.5 -252.5t25.5 -371.5v-13h141v-220l-80 -26h-655v207l79 39h377q-23 230 -162 484zM92 1126l36 177q133 -15 325 -15h179l-36 -182h-176q-188 0 -328 20z" />
    <glyph glyph-name="tehAr.ss01" horiz-adv-x="2391" 
d="M36 246h2089q-23 232 -161 484l176 153q72 -112 97.5 -252.5t25.5 -371.5v-259h-2189zM1027 668l-151 149l151 151l135 -136l136 136l151 -151l-151 -149l-136 136z" />
    <glyph glyph-name="tehAr.ss01.ss04" horiz-adv-x="2391" 
d="M36 246h2089q-23 232 -161 484l176 153q72 -112 97.5 -252.5t25.5 -371.5v-259h-2189zM904 707l36 176q133 -15 325 -15h179l-36 -182h-177q-180 0 -327 21z" />
    <glyph glyph-name="tehAr.ss04" horiz-adv-x="1751" 
d="M1324 730l176 153q72 -112 97.5 -252.5t25.5 -371.5v-259h-1075q-235 0 -353 92.5t-118 301.5q0 145 71 379l64 -13q-15 -135 -15 -215q0 -112 36 -175.5t123.5 -93.5t245.5 -30h883q-23 232 -161 484zM566 960l36 177q142 -16 325 -16h179l-36 -181h-177q-187 0 -327 20
z" />
    <glyph glyph-name="thehAr.fina.ss01" horiz-adv-x="2411" 
d="M36 246h2104q-23 232 -161 484l177 153q72 -112 97 -252t25 -372v-13h213v-220l-79 -26h-2338zM1016 668l-151 149l151 151l136 -136l136 136l151 -151l-151 -149l-136 136zM1152 937l-146 146l146 146l146 -146z" />
    <glyph glyph-name="thehAr.fina.ss01.ss04" horiz-adv-x="2411" 
d="M36 246h2104q-23 232 -161 484l177 153q72 -112 97 -252t25 -372v-13h213v-220l-79 -26h-2338zM865 684l36 176q133 -15 325 -15h179l-35 -182h-177q-181 0 -328 21zM1147 968l-143 143l143 143l143 -143z" />
    <glyph glyph-name="thehAr.fina.ss04" horiz-adv-x="1743" 
d="M548 0q-235 0 -353 92.5t-118 301.5q0 145 71 379l64 -13q-15 -135 -15 -215q0 -112 36 -175.5t123.5 -93.5t245.5 -30h870q-23 232 -161 484l176 153q72 -112 97.5 -252.5t25.5 -371.5v-13h213v-220l-80 -26h-1195zM530 940l36 176q133 -15 325 -15h179l-36 -182h-176
q-181 0 -328 21zM814 1224l-143 143l143 143l143 -143z" />
    <glyph glyph-name="thehAr.init.ss04" horiz-adv-x="637" 
d="M210 730l177 153q72 -112 97 -252t25 -372v-259h-509v207l77 39h294q-23 232 -161 484zM23 1106l36 177q142 -16 325 -16h179l-36 -182h-176q-181 0 -328 21zM305 1390l-144 143l144 144l143 -144z" />
    <glyph glyph-name="thehAr.init.wide" horiz-adv-x="719" 
d="M456 246q-23 230 -162 484l177 153q72 -112 97.5 -252.5t25.5 -371.5v-259h-594v207l79 39h377zM256 1091l-151 148l151 151l138 -136l133 134l151 -152l-151 -148l-135 136zM394 1357l-146 146l146 146l146 -146z" />
    <glyph glyph-name="thehAr.init.wide.ss04" horiz-adv-x="719" 
d="M456 246q-23 230 -162 484l177 153q72 -112 97.5 -252.5t25.5 -371.5v-259h-594v207l79 39h377zM105 1106l36 177q142 -16 325 -16h179l-36 -182h-176q-181 0 -328 21zM387 1390l-144 143l144 144l143 -144z" />
    <glyph glyph-name="thehAr.medi.calt" horiz-adv-x="40" 
d="M-364 1009l-151 148l151 151l139 -136l133 134l151 -151l-151 -149l-138 136zM-225 1275l-146 146l146 146l146 -146zM0 220l79 26h41v-208l-79 -38h-41v220z" />
    <glyph glyph-name="thehAr.medi.calt.heh" horiz-adv-x="40" 
d="M-364 804l-151 148l151 151l139 -135l133 133l151 -151l-151 -149l-138 136zM-225 1073l-146 146l146 145l146 -145zM0 220l79 26h41v-208l-79 -38h-41v220z" />
    <glyph glyph-name="thehAr.medi.calt.heh.ss04" horiz-adv-x="40" 
d="M-515 819l36 177q142 -16 325 -16h180l-39 -181h-174q-188 0 -328 20zM-233 1103l-143 144l143 143l143 -143zM0 220l79 26h41v-208l-79 -38h-41v220z" />
    <glyph glyph-name="thehAr.medi.calt.ss04" horiz-adv-x="40" 
d="M-515 1024l36 177q142 -16 325 -16h180l-39 -181h-174q-188 0 -328 20zM-233 1308l-143 144l143 143l143 -143zM0 220l79 26h41v-208l-79 -38h-41v220z" />
    <glyph glyph-name="thehAr.medi.ss04" horiz-adv-x="642" 
d="M210 730l177 153q72 -112 97 -252t25 -372v-13h213v-220l-79 -26h-643v207l77 39h294q-23 232 -161 484zM44 1106l35 177q142 -16 325 -16h180l-36 -182h-177q-180 0 -327 21zM325 1390l-143 143l143 144l143 -144z" />
    <glyph glyph-name="thehAr.medi.wide" horiz-adv-x="655" 
d="M294 730l177 153q72 -112 97.5 -252.5t25.5 -371.5v-13h141v-220l-80 -26h-655v207l79 39h377q-23 230 -162 484zM215 1091l-151 148l151 151l138 -136l133 134l151 -152l-151 -148l-135 136zM353 1357l-146 146l146 146l146 -146z" />
    <glyph glyph-name="thehAr.medi.wide.ss04" horiz-adv-x="655" 
d="M294 730l177 153q72 -112 97.5 -252.5t25.5 -371.5v-13h141v-220l-80 -26h-655v207l79 39h377q-23 230 -162 484zM64 1106l36 177q142 -16 325 -16h179l-36 -182h-176q-181 0 -328 21zM346 1390l-144 143l144 144l143 -144z" />
    <glyph glyph-name="thehAr.ss01" horiz-adv-x="2391" 
d="M36 246h2089q-23 232 -161 484l176 153q72 -112 97.5 -252.5t25.5 -371.5v-259h-2189zM1027 668l-151 149l151 151l135 -136l136 136l151 -151l-151 -149l-136 136zM1165 937l-146 146l146 146l146 -146z" />
    <glyph glyph-name="thehAr.ss01.ss04" horiz-adv-x="2391" 
d="M36 246h2089q-23 232 -161 484l176 153q72 -112 97.5 -252.5t25.5 -371.5v-259h-2189zM876 684l35 176q133 -15 325 -15h180l-36 -182h-177q-180 0 -327 21zM1160 968l-144 143l144 143l143 -143z" />
    <glyph glyph-name="thehAr.ss04" horiz-adv-x="1697" 
d="M1272 730l177 153q72 -112 97.5 -252.5t25.5 -371.5v-259h-1078q-235 0 -353 92.5t-118 301.5q0 142 72 379l64 -13q-16 -144 -16 -215q0 -112 36 -175.5t123.5 -93.5t245.5 -30h886q-23 230 -162 484zM486 940l36 176q133 -15 325 -15h180l-36 -182h-177q-181 0 -328 21
zM768 1224l-143 143l143 143l143 -143z" />
    <glyph glyph-name="rehAr.fina.beh" horiz-adv-x="1157" 
d="M947 809h77v-394q0 -101 52.5 -135t159.5 -34v-223l-76 -23q-144 0 -209.5 86.5t-85.5 284.5l-5 90q-49 -84 -121 -133t-153 -49q-67 0 -130 33q-8 -226 -133 -439t-343 -357l-282 190v74h95q123 0 225.5 39.5t166 102t98 135.5t34.5 145q0 173 -179 461l172 156v-2
q82 -145 134 -207q103 -124 209 -124q86 0 159.5 80t127.5 220l2 8q2 2 3 7t2 8z" />
    <glyph glyph-name="rehAr.fina.calt" horiz-adv-x="995" 
d="M860 625v-244q0 -41 15.5 -68.5t46 -41.5t66.5 -19.5t87 -5.5v-223l-79 -23q-33 0 -60.5 6.5t-49.5 21t-39.5 30.5t-32.5 44.5t-26 53t-22.5 64t-19.5 71t-19 80.5l-8 28h-322q51 -135 51 -238q0 -213 -119.5 -394t-348.5 -302l-282 189v75h120q226 0 362.5 98t136.5 227
q0 150 -174 407l133 164h584z" />
    <glyph glyph-name="zainAr.fina.beh" horiz-adv-x="1157" 
d="M947 809h77v-394q0 -101 52.5 -135t159.5 -34v-223l-76 -23q-144 0 -209.5 86.5t-85.5 284.5l-5 90q-49 -84 -121 -133t-153 -49q-67 0 -130 33q-8 -226 -133 -439t-343 -357l-282 190v74h95q123 0 225.5 39.5t166 102t98 135.5t34.5 145q0 173 -179 461l172 156v-2
q82 -145 134 -207q103 -124 209 -124q86 0 159.5 80t127.5 220l2 8q2 2 3 7t2 8zM310 1009l-156 156l156 153l156 -153z" />
    <glyph glyph-name="zainAr.fina.calt" horiz-adv-x="995" 
d="M860 625v-244q0 -41 15.5 -68.5t46 -41.5t66.5 -19.5t87 -5.5v-223l-79 -23q-33 0 -60.5 6.5t-49.5 21t-39.5 30.5t-32.5 44.5t-26 53t-22.5 64t-19.5 71t-19 80.5l-8 28h-322q51 -135 51 -238q0 -213 -119.5 -394t-348.5 -302l-282 189v75h120q226 0 362.5 98t136.5 227
q0 150 -174 407l133 164h584zM325 814l-156 156l156 154l156 -154z" />
    <glyph glyph-name="seenAr.fina.ss01" horiz-adv-x="3256" 
d="M2836 684l177 153q74 -114 100 -240.5t26 -314.5v-36h212v-220l-79 -26h-438q-160 0 -254 166q-47 -87 -121.5 -126.5t-159.5 -39.5h-259q-40 -97 -134.5 -169.5t-229 -116t-294 -64.5t-345.5 -21q-610 0 -1042 223l-205 327l46 49q201 -175 523 -272t724 -97
q226 0 428.5 30t315.5 74t113 86q0 84 -171 443l184 143q38 -65 68 -175t42 -214h377l97 325l164 23l-69 -279q33 -35 71 -52t98 -17h197q-21 189 -162 438z" />
    <glyph glyph-name="seenAr.init.calt" horiz-adv-x="1011" 
d="M307 568l167 26l-75 -297q56 -51 151 -51h198q-21 189 -162 438l177 153q74 -113 99.5 -239.5t25.5 -315.5v-282h-304q-149 0 -244 148q-94 -148 -340 -148v207l79 39h131z" />
    <glyph glyph-name="seenAr.medi.calt" horiz-adv-x="1021" 
d="M586 684l177 153q74 -113 99.5 -239.5t25.5 -315.5v-36h213v-220l-80 -26h-437q-149 0 -244 148q-94 -148 -340 -148v207l79 39h131l97 322l167 26l-75 -297q56 -51 151 -51h198q-21 189 -162 438z" />
    <glyph glyph-name="seenAr.ss01" horiz-adv-x="3261" 
d="M2836 684l177 153q74 -114 100 -240.5t26 -314.5v-282h-305q-160 0 -254 166q-47 -87 -121.5 -126.5t-159.5 -39.5h-259q-40 -97 -134.5 -169.5t-229 -116t-294 -64.5t-345.5 -21q-610 0 -1042 223l-205 327l46 49q201 -175 523 -272t724 -97q226 0 428.5 30t315.5 74
t113 86q0 84 -171 443l184 143q38 -65 68 -175t42 -214h377l97 325l164 23l-69 -279q33 -35 71 -52t98 -17h197q-21 189 -162 438z" />
    <glyph glyph-name="sheenAr.fina.ss01" horiz-adv-x="3484" 
d="M3064 684l177 153q74 -113 99.5 -239.5t25.5 -315.5v-36h213v-220l-79 -26h-438q-160 0 -254 166q-47 -87 -121.5 -126.5t-159.5 -39.5h-259q-40 -97 -134.5 -169.5t-229 -116t-294 -64.5t-345.5 -21q-610 0 -1042 223l-205 327l46 49q201 -175 523 -272t724 -97
q226 0 428.5 30t315.5 74t113 86q0 84 -171 443l184 143q38 -65 68 -175t42 -214h377l97 325l164 23l-69 -279q33 -35 70.5 -52t97.5 -17h198q-21 189 -162 438zM2655 817l-151 148l151 151l138 -136l133 134l151 -151l-151 -149l-136 136zM2790 1085l-146 146l146 146
l146 -146z" />
    <glyph glyph-name="sheenAr.fina.ss01.ss04" horiz-adv-x="3499" 
d="M3064 684l177 153q74 -113 99.5 -239.5t25.5 -315.5v-36h213v-220l-79 -26h-438q-160 0 -254 166q-47 -87 -121.5 -126.5t-159.5 -39.5h-259q-40 -97 -134.5 -169.5t-229 -116t-294 -64.5t-345.5 -21q-610 0 -1042 223l-205 327l46 49q201 -175 523 -272t724 -97
q226 0 428.5 30t315.5 74t113 86q0 84 -171 443l184 143q38 -65 68 -175t42 -214h377l97 325l164 23l-69 -279q33 -35 70.5 -52t97.5 -17h198q-21 189 -162 438zM2504 832l36 177q142 -16 325 -16h179l-36 -181h-177q-187 0 -327 20zM2785 1116l-143 144l143 143l144 -143z
" />
    <glyph glyph-name="sheenAr.fina.ss04" horiz-adv-x="2401" 
d="M1969 684l176 153q74 -114 100 -240.5t26 -314.5v-36h212v-220l-79 -26h-438q-157 0 -253 169q-47 -89 -123 -129t-162 -40h-232q-21 -122 -86 -221t-155.5 -160t-196 -93.5t-215.5 -32.5q-252 0 -388.5 135.5t-136.5 363.5q0 177 72 395l66 -16q-20 -126 -20 -238
q0 -188 105 -290t322 -102q122 0 240.5 34t195 92.5t76.5 124.5q0 62 -57.5 227t-118.5 275l184 143q87 -170 115 -391h371l98 325l163 23l-69 -277q63 -71 172 -71h197q-21 192 -161 438zM1385 832l36 177q142 -16 325 -16h179l-36 -181h-176q-188 0 -328 20zM1667 1116
l-144 144l144 143l143 -143z" />
    <glyph glyph-name="sheenAr.init.calt" horiz-adv-x="1011" 
d="M307 568l167 26l-75 -297q56 -51 151 -51h198q-21 189 -162 438l177 153q74 -113 99.5 -239.5t25.5 -315.5v-282h-304q-149 0 -244 148q-94 -148 -340 -148v207l79 39h131zM164 829l-151 149l151 151l136 -136l135 136l151 -151l-151 -149l-135 136zM302 1098l-146 146
l146 146l146 -146z" />
    <glyph glyph-name="sheenAr.init.calt.ss04" horiz-adv-x="1011" 
d="M307 568l167 26l-75 -297q56 -51 151 -51h198q-21 189 -162 438l177 153q74 -113 99.5 -239.5t25.5 -315.5v-282h-304q-149 0 -244 148q-94 -148 -340 -148v207l79 39h131zM13 847l36 177q133 -15 325 -15h179l-36 -182h-177q-187 0 -327 20zM294 1132l-143 143l143 143
l144 -143z" />
    <glyph glyph-name="sheenAr.init.ss04" horiz-adv-x="1635" 
d="M369 568l166 26l-102 -282q134 -66 271 -66h123l95 322l166 26l-74 -289q59 -59 158 -59h198q-21 189 -162 438l177 153q74 -113 99.5 -239.5t25.5 -315.5v-282h-304q-149 0 -243 151q-84 -151 -269 -151q-191 0 -341 133q-55 -76 -138.5 -104.5t-214.5 -28.5v200l79 46
h154zM635 817l36 176q133 -15 325 -15h179l-36 -182h-176q-181 0 -328 21zM916 1101l-143 143l143 144l144 -144z" />
    <glyph glyph-name="sheenAr.medi.calt" horiz-adv-x="1021" 
d="M586 684l177 153q74 -113 99.5 -239.5t25.5 -315.5v-36h213v-220l-80 -26h-437q-149 0 -244 148q-94 -148 -340 -148v207l79 39h131l97 322l167 26l-75 -297q56 -51 151 -51h198q-21 189 -162 438zM166 829l-151 149l151 151l136 -136l136 136l151 -151l-151 -149
l-136 136zM302 1098l-146 146l146 146l146 -146z" />
    <glyph glyph-name="sheenAr.medi.calt.ss04" horiz-adv-x="1021" 
d="M586 684l177 153q74 -113 99.5 -239.5t25.5 -315.5v-36h213v-220l-80 -26h-437q-149 0 -244 148q-94 -148 -340 -148v207l79 39h131l97 322l167 26l-75 -297q56 -51 151 -51h198q-21 189 -162 438zM15 847l36 177q133 -15 325 -15h180l-36 -182h-177q-188 0 -328 20z
M297 1132l-143 143l143 143l143 -143z" />
    <glyph glyph-name="sheenAr.medi.ss04" horiz-adv-x="1643" 
d="M1208 684l177 153q74 -113 99.5 -239.5t25.5 -315.5v-36h213v-220l-79 -26h-438q-149 0 -243 151q-84 -151 -269 -151q-191 0 -341 133q-55 -76 -138.5 -104.5t-214.5 -28.5v200l79 46h154l136 322l166 26l-102 -282q134 -66 271 -66h123l95 322l166 26l-74 -289
q59 -59 158 -59h198q-21 189 -162 438zM620 817l35 176q133 -15 325 -15h180l-36 -182h-177q-180 0 -327 21zM901 1101l-143 143l143 144l143 -144z" />
    <glyph glyph-name="sheenAr.ss01" horiz-adv-x="3489" 
d="M3064 684l177 153q74 -113 99.5 -239.5t25.5 -315.5v-282h-304q-160 0 -254 166q-47 -87 -121.5 -126.5t-159.5 -39.5h-259q-40 -97 -134.5 -169.5t-229 -116t-294 -64.5t-345.5 -21q-610 0 -1042 223l-205 327l46 49q201 -175 523 -272t724 -97q226 0 428.5 30t315.5 74
t113 86q0 84 -171 443l184 143q38 -65 68 -175t42 -214h377l97 325l164 23l-69 -279q33 -35 70.5 -52t97.5 -17h198q-21 189 -162 438zM2632 817l-151 148l151 151l138 -136l133 134l151 -151l-151 -149l-136 136zM2770 1085l-146 146l146 146l146 -146z" />
    <glyph glyph-name="sheenAr.ss01.ss04" horiz-adv-x="3489" 
d="M3064 684l177 153q74 -113 99.5 -239.5t25.5 -315.5v-282h-304q-160 0 -254 166q-47 -87 -121.5 -126.5t-159.5 -39.5h-259q-40 -97 -134.5 -169.5t-229 -116t-294 -64.5t-345.5 -21q-610 0 -1042 223l-205 327l46 49q201 -175 523 -272t724 -97q226 0 428.5 30t315.5 74
t113 86q0 84 -171 443l184 143q38 -65 68 -175t42 -214h377l97 325l164 23l-69 -279q33 -35 70.5 -52t97.5 -17h198q-21 189 -162 438zM2481 832l35 177q142 -16 326 -16h179l-36 -181h-177q-187 0 -327 20zM2762 1116l-143 144l143 143l144 -143z" />
    <glyph glyph-name="sheenAr.ss04" horiz-adv-x="2396" 
d="M1969 684l176 153q74 -114 100 -240.5t26 -314.5v-282h-305q-157 0 -253 169q-47 -89 -123 -129t-162 -40h-232q-21 -122 -86 -221t-155.5 -160t-196 -93.5t-215.5 -32.5q-252 0 -388.5 135.5t-136.5 363.5q0 177 72 395l66 -16q-20 -126 -20 -238q0 -188 105 -290
t322 -102q122 0 240.5 34t195 92.5t76.5 124.5q0 62 -57.5 227t-118.5 275l184 143q87 -170 115 -391h371l98 325l163 23l-69 -277q63 -71 172 -71h197q-21 192 -161 438zM1382 832l36 177q142 -16 325 -16h180l-36 -181h-177q-188 0 -328 20zM1664 1119l-143 143l143 143
l143 -143z" />
    <glyph glyph-name="sadAr.fina.ss01" horiz-adv-x="3463" 
d="M1769 494l184 143q38 -65 68 -176t42 -215h136q174 313 357.5 475t384.5 162q192 0 314 -139.5t122 -392.5v-105h166v-208q-5 -12 -32 -23.5t-45 -14.5h-1428q-41 -96 -135.5 -168.5t-228 -115.5t-293 -64t-344.5 -21q-610 0 -1042 223l-205 328l46 48
q201 -175 523 -271.5t724 -96.5q227 0 429 30t315 73.5t113 85.5q0 84 -171 443zM2314 246h919q-2 75 -29 149t-73.5 135.5t-119 99.5t-157.5 38q-64 0 -127 -23.5t-115.5 -61t-107.5 -94.5t-98 -113.5t-92 -129.5z" />
    <glyph glyph-name="sadAr.init.calt" horiz-adv-x="1272" 
d="M-41 202q5 13 21 39l-3 5h5q174 313 357.5 475t384.5 162q192 0 314 -139.5t122 -392.5v-351h-1160v179zM637 668q-64 0 -127 -23.5t-115.5 -61t-107.5 -94.5t-98 -113.5t-92 -129.5h919q-2 75 -29 149t-73.5 135.5t-119 99.5t-157.5 38z" />
    <glyph glyph-name="sadAr.medi.calt" horiz-adv-x="1239" 
d="M-41 202q5 13 21 39l-3 5h5q174 313 357.5 475t384.5 162q192 0 314 -139.5t122 -392.5v-105h156v-208q-5 -12 -32 -23.5t-45 -14.5h-1239v179zM637 668q-64 0 -127 -23.5t-115.5 -61t-107.5 -94.5t-98 -113.5t-92 -129.5h919q-2 75 -29 149t-73.5 135.5t-119 99.5
t-157.5 38z" />
    <glyph glyph-name="sadAr.ss01" horiz-adv-x="3450" 
d="M1769 494l184 143q38 -65 68 -176t42 -215h136q174 313 357.5 475t384.5 162q192 0 314 -139.5t122 -392.5v-351h-1339q-41 -96 -135.5 -168.5t-228 -115.5t-293 -64t-344.5 -21q-610 0 -1042 223l-205 328l46 48q201 -175 523 -271.5t724 -96.5q227 0 429 30t315 73.5
t113 85.5q0 84 -171 443zM2854 668q-64 0 -127 -23.5t-115.5 -61t-107.5 -94.5t-98 -113.5t-92 -129.5h919q-2 75 -29 149t-73.5 135.5t-119 99.5t-157.5 38z" />
    <glyph glyph-name="dadAr.fina.ss01" horiz-adv-x="3463" 
d="M1769 494l184 143q38 -65 68 -176t42 -215h136q174 313 357.5 475t384.5 162q192 0 314 -139.5t122 -392.5v-105h166v-208q-5 -12 -32 -23.5t-45 -14.5h-1428q-41 -96 -135.5 -168.5t-228 -115.5t-293 -64t-344.5 -21q-610 0 -1042 223l-205 328l46 48
q201 -175 523 -271.5t724 -96.5q227 0 429 30t315 73.5t113 85.5q0 84 -171 443zM2854 668q-64 0 -127 -23.5t-115.5 -61t-107.5 -94.5t-98 -113.5t-92 -129.5h919q-2 75 -29 149t-73.5 135.5t-119 99.5t-157.5 38zM2237 896l-156 156l156 154l157 -154z" />
    <glyph glyph-name="dadAr.fina.ss01.ss04" horiz-adv-x="3463" 
d="M1769 494l184 143q38 -65 68 -176t42 -215h136q174 313 357.5 475t384.5 162q192 0 314 -139.5t122 -392.5v-105h166v-208q-5 -12 -32 -23.5t-45 -14.5h-1428q-41 -96 -135.5 -168.5t-228 -115.5t-293 -64t-344.5 -21q-610 0 -1042 223l-205 328l46 48
q201 -175 523 -271.5t724 -96.5q227 0 429 30t315 73.5t113 85.5q0 84 -171 443zM2854 668q-64 0 -127 -23.5t-115.5 -61t-107.5 -94.5t-98 -113.5t-92 -129.5h919q-2 75 -29 149t-73.5 135.5t-119 99.5t-157.5 38zM2237 893l-156 157l156 153l157 -153z" />
    <glyph glyph-name="dadAr.init.calt" horiz-adv-x="1272" 
d="M-41 202q5 13 21 39l-3 5h5q174 313 357.5 475t384.5 162q192 0 314 -139.5t122 -392.5v-351h-1160v179zM20 927l-156 156l156 153l157 -153zM637 668q-64 0 -127 -23.5t-115.5 -61t-107.5 -94.5t-98 -113.5t-92 -129.5h919q-2 75 -29 149t-73.5 135.5t-119 99.5
t-157.5 38z" />
    <glyph glyph-name="dadAr.medi.calt" horiz-adv-x="1239" 
d="M-41 202q5 13 21 39l-3 5h5q174 313 357.5 475t384.5 162q192 0 314 -139.5t122 -392.5v-105h156v-208q-5 -12 -32 -23.5t-45 -14.5h-1239v179zM97 246h919q-2 75 -29 149t-73.5 135.5t-119 99.5t-157.5 38q-64 0 -127 -23.5t-115.5 -61t-107.5 -94.5t-98 -113.5
t-92 -129.5zM20 922l-156 156l156 153l157 -153z" />
    <glyph glyph-name="dadAr.ss01" horiz-adv-x="3489" 
d="M1769 494l184 143q38 -65 68 -176t42 -215h136q174 313 357.5 475t384.5 162q192 0 314 -139.5t122 -392.5v-351h-1339q-41 -96 -135.5 -168.5t-228 -115.5t-293 -64t-344.5 -21q-610 0 -1042 223l-205 328l46 48q201 -175 523 -271.5t724 -96.5q227 0 429 30t315 73.5
t113 85.5q0 84 -171 443zM2854 668q-64 0 -127 -23.5t-115.5 -61t-107.5 -94.5t-98 -113.5t-92 -129.5h919q-2 75 -29 149t-73.5 135.5t-119 99.5t-157.5 38zM2240 896l-156 156l156 154l156 -154z" />
    <glyph glyph-name="dadAr.ss01.ss04" horiz-adv-x="3489" 
d="M1769 494l184 143q38 -65 68 -176t42 -215h136q174 313 357.5 475t384.5 162q192 0 314 -139.5t122 -392.5v-351h-1339q-41 -96 -135.5 -168.5t-228 -115.5t-293 -64t-344.5 -21q-610 0 -1042 223l-205 328l46 48q201 -175 523 -271.5t724 -96.5q227 0 429 30t315 73.5
t113 85.5q0 84 -171 443zM2854 668q-64 0 -127 -23.5t-115.5 -61t-107.5 -94.5t-98 -113.5t-92 -129.5h919q-2 75 -29 149t-73.5 135.5t-119 99.5t-157.5 38zM2240 893l-156 157l156 153l156 -153z" />
    <glyph glyph-name="fehAr.fina.ss01" horiz-adv-x="2711" 
d="M36 246h1892q-74 145 -65.5 277t68.5 232t156 159t197 59q145 0 244 -116t99 -276q0 -197 -175 -335h338v-213l-76 -33h-2640zM1961 522q6 -44 71.5 -119t151.5 -137q114 46 200.5 111t93.5 117q0 27 -16.5 67t-46.5 82t-83.5 72t-117.5 30q-75 0 -135.5 -40.5t-89 -90.5
t-28.5 -92zM2253 1160l-156 156l156 153l156 -153z" />
    <glyph glyph-name="fehAr.ss01" horiz-adv-x="2718" 
d="M36 246h2442v184h-637v238q0 251 98.5 389.5t264.5 138.5q175 0 290 -150.5t115 -402.5v-144h-3v-499h-2532zM1946 625h532q-19 155 -121.5 249t-221.5 94q-98 0 -143.5 -76t-45.5 -232v-35zM2212 1382l-156 157l156 153l156 -153z" />
    <glyph glyph-name="qafAr.fina.ss01" horiz-adv-x="2068" 
d="M1032 -266q217 0 411.5 31t312.5 84.5t118 114.5v36h-648v284q0 252 98 390t263 138q173 0 287 -150t120 -416h154v-202q-5 -14 -32 -27.5t-45 -16.5h-77v-13q0 -103 -72 -192t-201 -153.5t-319 -101.5t-416 -37q-622 0 -996 267l-200 345l46 46q191 -207 497.5 -317
t698.5 -110zM1334 233h530q-24 161 -123.5 257t-217.5 96q-99 0 -144 -75t-45 -232v-46zM1462 1021l-151 149l151 151l138 -136l133 133l151 -151l-151 -148l-136 136z" />
    <glyph glyph-name="qafAr.fina.ss01.ss04" horiz-adv-x="2068" 
d="M1032 -266q217 0 411.5 31t312.5 84.5t118 114.5v36h-648v284q0 252 98 390t263 138q173 0 287 -150t120 -416h154v-202q-5 -14 -32 -27.5t-45 -16.5h-77v-13q0 -103 -72 -192t-201 -153.5t-319 -101.5t-416 -37q-622 0 -996 267l-200 345l46 46q191 -207 497.5 -317
t698.5 -110zM1334 233h530q-24 161 -123.5 257t-217.5 96q-99 0 -144 -75t-45 -232v-46zM1339 1060l36 176q133 -15 325 -15h179l-36 -182h-176q-181 0 -328 21z" />
    <glyph glyph-name="qafAr.fina.ss04" horiz-adv-x="1377" 
d="M1293 0q-13 -112 -62.5 -207t-122 -160.5t-164.5 -111.5t-190 -67.5t-198 -21.5q-117 0 -210 27t-153.5 73.5t-100.5 112.5t-57 139.5t-17 159.5q0 193 69 394l67 -18q-18 -142 -18 -233q0 -98 19.5 -169t69 -129.5t143 -88.5t231.5 -30q140 0 270 34t217 104t81 159
l-5 30h-632v285q0 252 97.5 389.5t260.5 137.5q173 0 287 -148.5t120 -414.5h162v-202q-5 -14 -32 -27.5t-45 -16.5h-87zM635 230h532q-24 161 -124.5 257.5t-218.5 96.5q-98 0 -143.5 -76t-45.5 -232v-46zM622 1055l36 176q133 -15 325 -15h179l-36 -182h-176
q-181 0 -328 21z" />
    <glyph glyph-name="qafAr.init.ss04" horiz-adv-x="1013" 
d="M760 246v184h-640v238q0 251 98.5 389.5t265.5 138.5q175 0 289.5 -150.5t114.5 -402.5v-643h-888v200l79 46h681zM225 625h533q-19 155 -121.5 249t-221.5 94q-98 0 -144 -76t-46 -232v-35zM215 1439l36 176q133 -15 325 -15h179l-36 -182h-176q-181 0 -328 21z" />
    <glyph glyph-name="qafAr.medi.ss04" horiz-adv-x="1008" 
d="M79 246h146q-74 145 -65.5 277t68.5 232t156 159t197 59q145 0 244 -116t99 -276q0 -198 -174 -335h338v-213l-77 -33h-1011v202zM259 522q6 -44 71.5 -119t150.5 -137q115 46 201.5 111t93.5 117q0 27 -16.5 67t-46.5 82t-83.5 72t-117.5 30q-75 0 -135.5 -40.5
t-89 -90.5t-28.5 -92zM282 1219l35 176q133 -15 326 -15h179l-36 -182h-177q-180 0 -327 21z" />
    <glyph glyph-name="qafAr.ss01" horiz-adv-x="2119" 
d="M1032 -246q217 0 411.5 31.5t312.5 85t118 114.5v35h-648v285q0 252 98 389.5t263 137.5q178 0 292.5 -156t114.5 -435v-233q0 -103 -72 -192t-201 -153.5t-319 -101.5t-416 -37q-623 0 -996 266l-200 346l46 46q191 -207 498 -317.5t698 -110.5zM1334 253h530
q-24 161 -123.5 257.5t-217.5 96.5q-99 0 -144 -75t-45 -232v-47zM1462 1042l-151 148l151 151l138 -135l133 133l151 -151l-151 -149l-136 136z" />
    <glyph glyph-name="qafAr.ss01.ss04" horiz-adv-x="2119" 
d="M1032 -246q217 0 411.5 31.5t312.5 85t118 114.5v35h-648v285q0 252 98 389.5t263 137.5q178 0 292.5 -156t114.5 -435v-233q0 -103 -72 -192t-201 -153.5t-319 -101.5t-416 -37q-623 0 -996 266l-200 346l46 46q191 -207 498 -317.5t698 -110.5zM1339 1078l36 176
q133 -15 325 -15h179l-36 -182h-176q-181 0 -328 21zM1334 253h530q-24 161 -123.5 257.5t-217.5 96.5q-99 0 -144 -75t-45 -232v-47z" />
    <glyph glyph-name="qafAr.ss04" horiz-adv-x="1423" 
d="M1162 51h-632v284q0 252 97.5 390t260.5 138q178 0 292.5 -156.5t114.5 -435.5v-135q0 -128 -43 -237t-116 -184t-168.5 -128t-200 -77.5t-211.5 -24.5q-117 0 -210 27t-153.5 73.5t-100.5 112.5t-57 139.5t-17 159.5q0 194 69 395l67 -18q-18 -142 -18 -233
q0 -98 19.5 -169t69 -129.5t143 -88.5t231.5 -30q140 0 270 34t217 103.5t81 158.5zM627 1108l36 177q133 -15 325 -15h179l-35 -182h-177q-188 0 -328 20zM635 284h532q-24 161 -124.5 257t-218.5 96q-98 0 -143.5 -75.5t-45.5 -231.5v-46z" />
    <glyph glyph-name="kafAr.fina.ss01" horiz-adv-x="2375" 
d="M1106 1357l-51 -243q-23 -15 -70 -45t-65.5 -41.5t-55.5 -36t-52.5 -35.5t-44 -31t-41.5 -31t-33 -28t-32 -30t-24.5 -28.5t-22.5 -31.5h1158q517 0 517 -446v-84h166v-208q-5 -12 -32 -23.5t-45 -14.5h-1869q-235 0 -353 92.5t-118 301.5q0 142 72 379l64 -13
q-15 -135 -15 -215q0 -112 35.5 -175.5t123 -93.5t245.5 -30h1582l-13 46q-19 77 -53.5 130t-84.5 82t-107.5 41.5t-132.5 12.5h-1332v31q0 45 10.5 98t43.5 129t85.5 150t146 159.5t214.5 159.5l151 97q33 -22 33 -25z" />
    <glyph glyph-name="kafAr.init.ss01" horiz-adv-x="2135" 
d="M840 1357l-52 -243q-21 -14 -61 -39q-128 -82 -183 -119t-111 -85.5t-85 -94.5h1157q517 0 517 -446v-330h-2022v195l79 51h1800l-13 46q-19 77 -53.5 130t-85 82t-108 41.5t-132.5 12.5h-1331v31q0 45 10.5 98t43.5 129t85 150t145.5 159.5t214.5 159.5l151 97
q34 -22 34 -25z" />
    <glyph glyph-name="kafAr.medi.ss01" horiz-adv-x="2099" 
d="M840 1357l-52 -243q-21 -14 -61 -39q-128 -82 -183 -119t-111 -85.5t-85 -94.5h1157q517 0 517 -446v-84h157v-208q-5 -12 -32 -23.5t-45 -14.5h-2102v195l79 51h1800l-13 46q-19 77 -53.5 130t-85 82t-108 41.5t-132.5 12.5h-1331v31q0 45 10.5 98t43.5 129t85 150
t145.5 159.5t214.5 159.5l151 97q34 -22 34 -25z" />
    <glyph glyph-name="kafAr.ss01" horiz-adv-x="2401" 
d="M1106 1357l-51 -243q-23 -15 -70 -45t-65.5 -41.5t-55.5 -36t-52.5 -35.5t-44 -31t-41.5 -31t-33 -28t-32 -30t-24.5 -28.5t-22.5 -31.5h1158q517 0 517 -446v-330h-1780q-235 0 -353 92.5t-118 301.5q0 142 72 379l64 -13q-15 -135 -15 -215q0 -112 35.5 -175.5
t123 -93.5t245.5 -30h1582l-13 46q-19 77 -53.5 130t-84.5 82t-107.5 41.5t-132.5 12.5h-1332v31q0 45 10.5 98t43.5 129t85.5 150t146 159.5t214.5 159.5l151 97q33 -22 33 -25z" />
    <glyph glyph-name="lamAr.fina.ss01" horiz-adv-x="2152" 
d="M1815 1403l200 49v-1206h215v-195l-77 -51h-202q-54 -89 -152.5 -155t-226 -103t-265.5 -54.5t-291 -17.5q-297 0 -559 61.5t-449 166.5l-218 338l46 46q183 -171 504.5 -277.5t701.5 -106.5q148 0 293 14.5t263 41t190.5 67.5t70.5 89z" />
    <glyph glyph-name="lamAr.init.meem" horiz-adv-x="407" 
d="M0 1388l202 48v-1249h-36q-81 0 -106 37.5t-29 131.5z" />
    <glyph glyph-name="lamAr.medi.allah" horiz-adv-x="540" 
d="M212 1405l198 49v-1208h210v-208l-77 -38h-543v202l79 44h172zM484 2004l84 21v-141q0 -97 -38 -147t-105 -50q-86 0 -118 72q-21 -38 -57 -59t-78 -21q-129 0 -149 180l-10 92l82 18v-113q0 -39 24.5 -61.5t69.5 -22.5q38 0 63.5 13.5t23.5 34.5l-12 133l84 18v-92
q0 -45 27.5 -71t69.5 -26q58 0 54 38zM343 2412v-300l-82 -49v331z" />
    <glyph glyph-name="lamAr.medi.meem" horiz-adv-x="332" 
d="M0 1413l202 46v-1213h210v-220l-79 -26h-287z" />
    <glyph glyph-name="lamAr.ss01" horiz-adv-x="2165" 
d="M1815 1403l200 49v-1222q0 -122 -57 -219.5t-152 -160t-226 -104t-270 -59t-294 -17.5q-297 0 -559 61.5t-449 166.5l-218 338l46 46q183 -171 504.5 -277.5t701.5 -106.5q148 0 293 14.5t263 41t190.5 67.5t70.5 89z" />
    <glyph glyph-name="meemAr.fina.calt" horiz-adv-x="1216" 
d="M763 809h194l100 -415q23 -93 74.5 -120.5t163.5 -27.5v-223l-79 -23q-287 0 -328 276l-51 297h-177q-150 0 -224.5 -48.5t-74.5 -122.5q0 -71 67.5 -113.5t175.5 -42.5h182l-36 -246h-555l43 -655l-200 -46v560q0 132 70 233.5t192 137.5q-54 76 -54 185
q0 171 141 282.5t376 111.5z" />
    <glyph glyph-name="meemAr.fina.calt.lam" horiz-adv-x="842" 
d="M922 809v-236h-262q-150 0 -224.5 -48.5t-74.5 -122.5q0 -71 67.5 -113.5t175.5 -42.5h182l-36 -246h-555l43 -655l-200 -46v560q0 132 70 233.5t192 137.5q-54 76 -54 185q0 171 141 282.5t376 111.5h159z" />
    <glyph glyph-name="meemAr.medi.calt" horiz-adv-x="1118" 
d="M0 0v187l79 59h113q-44 80 -44 169q0 171 141.5 282.5t376.5 111.5h194l100 -415q23 -93 74.5 -120.5t163.5 -27.5v-223l-79 -23q-287 0 -328 276l-51 297h-177q-150 0 -224.5 -48.5t-74.5 -122.5q0 -71 67.5 -113.5t175.5 -42.5h161l-46 -246h-622z" />
    <glyph glyph-name="meemAr.medi.calt.lam" horiz-adv-x="744" 
d="M824 809v-236h-261q-150 0 -224.5 -48.5t-74.5 -122.5q0 -71 67.5 -113.5t175.5 -42.5h161l-46 -246h-622v187l79 59h113q-44 80 -44 169q0 171 141.5 282.5t376.5 111.5h158z" />
    <glyph glyph-name="meemAr.medi.lam" horiz-adv-x="238" 
d="M79 246h210q243 0 400 -72l-46 -241q-94 37 -178.5 52t-195.5 15h-269v207z" />
    <glyph glyph-name="noonAr.fina.calt" horiz-adv-x="1914" 
d="M1702 809h77v-394q0 -101 53 -135t160 -34v-223l-77 -23q-144 0 -209.5 86.5t-85.5 284.5l-5 80q-49 -87 -120 -137t-151 -50q-71 0 -138 38v-18q0 -120 -38.5 -223.5t-103.5 -176t-150.5 -124t-179.5 -76t-191 -24.5q-252 0 -388.5 135.5t-136.5 363.5q0 176 72 394
l66 -15q-20 -126 -20 -238q0 -188 105 -290t322 -102q122 0 240.5 34t195 92.5t76.5 124.5q0 62 -57.5 226.5t-118.5 274.5l184 144q166 -341 333 -341q135 0 240 223zM586 740l-156 156l156 154l156 -154z" />
    <glyph glyph-name="noonAr.fina.calt.ss01" horiz-adv-x="2800" 
d="M2591 809h77v-394q0 -101 52.5 -135t159.5 -34v-223l-77 -23q-144 0 -209 86.5t-85 284.5l-5 90q-49 -84 -121 -133t-153 -49q-86 0 -162 51q-1 -109 -55 -197t-147.5 -147t-224.5 -98.5t-281 -57t-323 -17.5q-610 0 -1042 223l-205 328l46 48q201 -175 523 -271.5
t724 -96.5q227 0 429 30t315 73.5t113 85.5q0 84 -171 443l184 143q0 -2 3 -5l13 -26q162 -302 327 -302q86 0 160.5 80.5t126.5 219.5l3 8q2 3 3 8t2 7zM1103 520l-156 156l156 153l157 -153z" />
    <glyph glyph-name="noonAr.fina.ss01" horiz-adv-x="2255" 
d="M1764 527l182 144q91 -164 120 -425h269v-208l-77 -38h-218q-40 -102 -134 -178t-228.5 -121t-294 -66.5t-346.5 -21.5q-610 0 -1042 223l-205 330l46 46q201 -175 523 -271.5t724 -96.5q227 0 429 30t315 74t113 88q0 92 -176 491zM1068 402l-157 156l157 154l156 -154z
" />
    <glyph glyph-name="noonAr.medi.calt" horiz-adv-x="40" 
d="M-225 988l-156 156l156 154l156 -154zM0 220l79 26h41v-208l-79 -38h-41v220z" />
    <glyph glyph-name="noonAr.ss01" horiz-adv-x="2145" 
d="M1764 573l182 144q63 -115 94 -264t31 -248q0 -117 -53.5 -209.5t-147 -155t-225.5 -103.5t-282.5 -59t-325.5 -18q-611 0 -1042 222l-205 330l46 47q201 -175 523 -272t724 -97q227 0 429 30t315 74t113 88q0 92 -176 491zM1006 451l-156 156l156 153l156 -153z" />
    <glyph glyph-name="hehAr.medi.beh" horiz-adv-x="1433" 
d="M328 561l97 -11q-26 -227 -26 -286q0 -86 20.5 -156t54 -117.5t82.5 -83.5t99 -56.5t110 -34.5q-130 161 -130 348q0 81 29.5 150t76.5 118t112.5 88t131.5 62.5t139 39.5l66 13l64 -228q23 -93 87.5 -127t171.5 -34v-223l-79 -23q-123 0 -212.5 74.5t-123.5 207.5
l-28 107q-78 -18 -149 -49.5t-125 -83.5t-54 -110q0 -44 36 -113.5t66.5 -111.5t98.5 -130q8 -11 12 -16l-172 -159q-63 5 -130 27.5t-139.5 65t-133.5 118t-93 173.5h-287v184l79 62h180q24 151 69 315z" />
    <glyph glyph-name="alefMaksuraAr.fina.calt" horiz-adv-x="1556" 
d="M1065 589q-85 0 -152.5 -13.5t-105.5 -33t-63.5 -43.5t-34 -42t-8.5 -32q0 -21 26.5 -40t68.5 -37.5t93 -39.5t101.5 -52t92.5 -69t68.5 -96.5t26.5 -128.5q0 -101 -52 -185t-139.5 -138t-200 -83.5t-236.5 -29.5q-260 0 -396 129t-136 373q0 181 72 371l64 -7
q-21 -176 -21 -246q0 -193 100 -288.5t333 -95.5q111 0 215.5 19t180 62.5t75.5 102.5q0 33 -25 58.5t-65.5 43.5t-89 36t-97 42t-89 56t-65.5 83.5t-25 118.5q0 79 34 154.5t96.5 137.5t162 100t219.5 38q164 0 328 -79v-292q0 -115 50.5 -156t164.5 -41v-223l-77 -23
q-56 0 -97 12t-69 36t-47 59t-31.5 81t-22.5 102.5t-20 122.5q-1 11 -2 17l-18 149q-86 10 -187 10z" />
    <glyph glyph-name="alefMaksuraAr.fina.calt.ss01" horiz-adv-x="2549" 
d="M2068 589q-154 0 -263.5 -44.5t-109.5 -116.5q0 -23 26.5 -43.5t68 -39t92.5 -38.5t102 -48t92.5 -62t68 -86t26.5 -114q0 -99 -66 -180t-176 -134t-257 -89.5t-303 -52t-322 -15.5q-609 0 -1050 226l-207 325l49 48q196 -163 526.5 -267t732.5 -104q205 0 414.5 24.5
t362.5 75.5t153 115q0 25 -25 45t-65 35.5t-88.5 32.5t-97 42t-88.5 57.5t-65 85.5t-25 120q0 82 37 159t102 136.5t162 95.5t209 36q182 0 330 -79v-292q0 -115 50.5 -156t164.5 -41v-223l-77 -23q-56 0 -97 12t-69 36t-47 59t-31.5 81t-22.5 102.5t-20 122.5q-1 11 -2 17
l-18 149q-122 10 -177 10z" />
    <glyph glyph-name="alefMaksuraAr.fina.calt.ss02" horiz-adv-x="1556" 
d="M1065 589q-85 0 -152.5 -13.5t-105.5 -33t-63.5 -43.5t-34 -42t-8.5 -32q0 -21 26.5 -40t68.5 -37.5t93 -39.5t101.5 -52t92.5 -69t68.5 -96.5t26.5 -128.5q0 -101 -52 -185t-139.5 -138t-200 -83.5t-236.5 -29.5q-260 0 -396 129t-136 373q0 181 72 371l64 -7
q-21 -176 -21 -246q0 -193 100 -288.5t333 -95.5q111 0 215.5 19t180 62.5t75.5 102.5q0 33 -25 58.5t-65.5 43.5t-89 36t-97 42t-89 56t-65.5 83.5t-25 118.5q0 79 34 154.5t96.5 137.5t162 100t219.5 38q164 0 328 -79v-292q0 -115 50.5 -156t164.5 -41v-223l-77 -23
q-56 0 -97 12t-69 36t-47 59t-31.5 81t-22.5 102.5t-20 122.5q-1 11 -2 17l-18 149q-86 10 -187 10z" />
    <glyph glyph-name="alefMaksuraAr.fina.ss01" horiz-adv-x="2063" 
d="M1533 84l39 162h581v-159l-59 -59q49 -49 49 -123q0 -83 -62 -148.5t-161 -105.5t-233.5 -66.5t-267.5 -37t-275 -10.5q-344 0 -611.5 61t-442.5 161l-205 328l46 49q195 -164 520 -268t716 -104q260 0 557.5 35.5t297.5 87.5q0 31 -120.5 81t-345.5 111q-5 1 -12.5 2
t-10.5 3z" />
    <glyph glyph-name="alefMaksuraAr.fina.ss02" horiz-adv-x="1249" 
d="M722 84l38 162h581v-159l-56 -54q69 -57 69 -151q0 -128 -112 -241.5t-290 -179t-368 -65.5q-134 0 -236 33.5t-163.5 87t-100 130t-52.5 152t-14 163.5q0 204 74 435l64 -16q-20 -142 -20 -307q0 -68 9.5 -123.5t40.5 -115t82 -100t140 -67t209 -26.5q143 0 291 36.5
t241 90.5t93 103q0 38 -126 91.5t-366 113.5z" />
    <glyph glyph-name="alefMaksuraAr.ss01" horiz-adv-x="2229" 
d="M1815 735q-70 0 -137.5 -15.5t-117.5 -51.5t-50 -84q0 -33 27.5 -59.5t72.5 -44t102 -37.5t117 -38t117 -46.5t102 -62t72.5 -85.5t27.5 -116q0 -85 -47 -157t-130 -123t-191 -89.5t-236 -61.5t-258.5 -34t-264.5 -11q-296 0 -567.5 54.5t-463.5 170.5l-200 325l46 49
q216 -177 527.5 -274.5t704.5 -97.5q98 0 209 5.5t244 21t237.5 39t175 64t70.5 91.5q0 27 -34 48t-88 36.5t-119.5 33.5t-131 45t-119.5 63.5t-88 97.5t-34 139q0 79 33.5 157t90 139t140 99t176.5 38q168 0 326 -121l-70 -164q-85 31 -143.5 44t-127.5 13z" />
    <glyph glyph-name="alefMaksuraAr.ss02" horiz-adv-x="1405" 
d="M986 735q-130 0 -216 -40.5t-86 -108.5q0 -40 35 -69t91.5 -48.5t124 -38t135.5 -45t124.5 -62t91.5 -95t35 -138.5q0 -106 -62.5 -200.5t-165.5 -159.5t-237 -102.5t-275 -37.5q-265 0 -411.5 131.5t-146.5 386.5q0 166 74 386l64 -10q-20 -146 -20 -241
q0 -219 120.5 -314t360.5 -95q128 0 256 28t215 79t87 110q0 33 -34 57.5t-88.5 41.5t-120 35t-131.5 44.5t-120.5 62t-88.5 95.5t-34 138q0 75 31.5 151.5t87 141t143 105t189.5 40.5q103 0 183.5 -36t131.5 -85l-69 -161q-131 54 -274 54z" />
    <glyph glyph-name="yehAr.fina.calt" horiz-adv-x="1556" 
d="M1065 589q-85 0 -152.5 -13.5t-105.5 -33t-63.5 -43.5t-34 -42t-8.5 -32q0 -21 26.5 -40t68.5 -37.5t93 -39.5t101.5 -52t92.5 -69t68.5 -96.5t26.5 -128.5q0 -101 -52 -185t-139.5 -138t-200 -83.5t-236.5 -29.5q-260 0 -396 129t-136 373q0 181 72 371l64 -7
q-21 -176 -21 -246q0 -193 100 -288.5t333 -95.5q111 0 215.5 19t180 62.5t75.5 102.5q0 33 -25 58.5t-65.5 43.5t-89 36t-97 42t-89 56t-65.5 83.5t-25 118.5q0 79 34 154.5t96.5 137.5t162 100t219.5 38q164 0 328 -79v-292q0 -115 50.5 -156t164.5 -41v-223l-77 -23
q-56 0 -97 12t-69 36t-47 59t-31.5 81t-22.5 102.5t-20 122.5q-1 11 -2 17l-18 149q-86 10 -187 10zM415 -937l-151 149l151 151l138 -136l133 133l151 -151l-151 -149l-136 136z" />
    <glyph glyph-name="yehAr.fina.calt.ss01" horiz-adv-x="2549" 
d="M2068 589q-154 0 -263.5 -44.5t-109.5 -116.5q0 -23 26.5 -43.5t68 -39t92.5 -38.5t102 -48t92.5 -62t68 -86t26.5 -114q0 -99 -66 -180t-176 -134t-257 -89.5t-303 -52t-322 -15.5q-609 0 -1050 226l-207 325l49 48q196 -163 526.5 -267t732.5 -104q205 0 414.5 24.5
t362.5 75.5t153 115q0 25 -25 45t-65 35.5t-88.5 32.5t-97 42t-88.5 57.5t-65 85.5t-25 120q0 82 37 159t102 136.5t162 95.5t209 36q182 0 330 -79v-292q0 -115 50.5 -156t164.5 -41v-223l-77 -23q-56 0 -97 12t-69 36t-47 59t-31.5 81t-22.5 102.5t-20 122.5q-1 11 -2 17
l-18 149q-122 10 -177 10zM911 -937l-151 149l151 151l139 -136l133 133l151 -151l-151 -149l-136 136z" />
    <glyph glyph-name="yehAr.fina.calt.ss01.ss02" horiz-adv-x="2549" 
d="M2068 589q-154 0 -263.5 -44.5t-109.5 -116.5q0 -23 26.5 -43.5t68 -39t92.5 -38.5t102 -48t92.5 -62t68 -86t26.5 -114q0 -99 -66 -180t-176 -134t-257 -89.5t-303 -52t-322 -15.5q-609 0 -1050 226l-207 325l49 48q196 -163 526.5 -267t732.5 -104q205 0 414.5 24.5
t362.5 75.5t153 115q0 25 -25 45t-65 35.5t-88.5 32.5t-97 42t-88.5 57.5t-65 85.5t-25 120q0 82 37 159t102 136.5t162 95.5t209 36q182 0 330 -79v-292q0 -115 50.5 -156t164.5 -41v-223l-77 -23q-56 0 -97 12t-69 36t-47 59t-31.5 81t-22.5 102.5t-20 122.5q-1 11 -2 17
l-18 149q-122 10 -177 10zM371 276l-151 149l136 136l-136 133l151 151l151 -151l-135 -133l135 -136z" />
    <glyph glyph-name="yehAr.fina.calt.ss01.ss02.ss04" horiz-adv-x="2549" 
d="M2068 589q-154 0 -263.5 -44.5t-109.5 -116.5q0 -23 26.5 -43.5t68 -39t92.5 -38.5t102 -48t92.5 -62t68 -86t26.5 -114q0 -99 -66 -180t-176 -134t-257 -89.5t-303 -52t-322 -15.5q-609 0 -1050 226l-207 325l49 48q196 -163 526.5 -267t732.5 -104q205 0 414.5 24.5
t362.5 75.5t153 115q0 25 -25 45t-65 35.5t-88.5 32.5t-97 42t-88.5 57.5t-65 85.5t-25 120q0 82 37 159t102 136.5t162 95.5t209 36q182 0 330 -79v-292q0 -115 50.5 -156t164.5 -41v-223l-77 -23q-56 0 -97 12t-69 36t-47 59t-31.5 81t-22.5 102.5t-20 122.5q-1 11 -2 17
l-18 149q-122 10 -177 10zM59 289l36 177q133 -15 325 -15h179l-36 -182h-176q-188 0 -328 20z" />
    <glyph glyph-name="yehAr.fina.calt.ss01.ss04" horiz-adv-x="2549" 
d="M2068 589q-154 0 -263.5 -44.5t-109.5 -116.5q0 -23 26.5 -43.5t68 -39t92.5 -38.5t102 -48t92.5 -62t68 -86t26.5 -114q0 -99 -66 -180t-176 -134t-257 -89.5t-303 -52t-322 -15.5q-609 0 -1050 226l-207 325l49 48q196 -163 526.5 -267t732.5 -104q205 0 414.5 24.5
t362.5 75.5t153 115q0 25 -25 45t-65 35.5t-88.5 32.5t-97 42t-88.5 57.5t-65 85.5t-25 120q0 82 37 159t102 136.5t162 95.5t209 36q182 0 330 -79v-292q0 -115 50.5 -156t164.5 -41v-223l-77 -23q-56 0 -97 12t-69 36t-47 59t-31.5 81t-22.5 102.5t-20 122.5q-1 11 -2 17
l-18 149q-122 10 -177 10zM796 -860l31 159q144 20 328 20h166l-31 -164h-169q-192 0 -325 -15z" />
    <glyph glyph-name="yehAr.fina.calt.ss02" horiz-adv-x="1556" 
d="M1065 589q-85 0 -152.5 -13.5t-105.5 -33t-63.5 -43.5t-34 -42t-8.5 -32q0 -21 26.5 -40t68.5 -37.5t93 -39.5t101.5 -52t92.5 -69t68.5 -96.5t26.5 -128.5q0 -101 -52 -185t-139.5 -138t-200 -83.5t-236.5 -29.5q-260 0 -396 129t-136 373q0 181 72 371l64 -7
q-21 -176 -21 -246q0 -193 100 -288.5t333 -95.5q111 0 215.5 19t180 62.5t75.5 102.5q0 33 -25 58.5t-65.5 43.5t-89 36t-97 42t-89 56t-65.5 83.5t-25 118.5q0 79 34 154.5t96.5 137.5t162 100t219.5 38q164 0 328 -79v-292q0 -115 50.5 -156t164.5 -41v-223l-77 -23
q-56 0 -97 12t-69 36t-47 59t-31.5 81t-22.5 102.5t-20 122.5q-1 11 -2 17l-18 149q-86 10 -187 10zM351 517l-151 149l135 135l-135 136l151 151l151 -151l-136 -136l136 -135z" />
    <glyph glyph-name="yehAr.fina.calt.ss02.ss04" horiz-adv-x="1556" 
d="M1065 589q-85 0 -152.5 -13.5t-105.5 -33t-63.5 -43.5t-34 -42t-8.5 -32q0 -21 26.5 -40t68.5 -37.5t93 -39.5t101.5 -52t92.5 -69t68.5 -96.5t26.5 -128.5q0 -101 -52 -185t-139.5 -138t-200 -83.5t-236.5 -29.5q-260 0 -396 129t-136 373q0 181 72 371l64 -7
q-21 -176 -21 -246q0 -193 100 -288.5t333 -95.5q111 0 215.5 19t180 62.5t75.5 102.5q0 33 -25 58.5t-65.5 43.5t-89 36t-97 42t-89 56t-65.5 83.5t-25 118.5q0 79 34 154.5t96.5 137.5t162 100t219.5 38q164 0 328 -79v-292q0 -115 50.5 -156t164.5 -41v-223l-77 -23
q-56 0 -97 12t-69 36t-47 59t-31.5 81t-22.5 102.5t-20 122.5q-1 11 -2 17l-18 149q-86 10 -187 10zM38 530l36 177q142 -16 325 -16h180l-36 -182h-177q-181 0 -328 21z" />
    <glyph glyph-name="yehAr.fina.calt.ss04" horiz-adv-x="1556" 
d="M1065 589q-85 0 -152.5 -13.5t-105.5 -33t-63.5 -43.5t-34 -42t-8.5 -32q0 -21 26.5 -40t68.5 -37.5t93 -39.5t101.5 -52t92.5 -69t68.5 -96.5t26.5 -128.5q0 -101 -52 -185t-139.5 -138t-200 -83.5t-236.5 -29.5q-260 0 -396 129t-136 373q0 181 72 371l64 -7
q-21 -176 -21 -246q0 -193 100 -288.5t333 -95.5q111 0 215.5 19t180 62.5t75.5 102.5q0 33 -25 58.5t-65.5 43.5t-89 36t-97 42t-89 56t-65.5 83.5t-25 118.5q0 79 34 154.5t96.5 137.5t162 100t219.5 38q164 0 328 -79v-292q0 -115 50.5 -156t164.5 -41v-223l-77 -23
q-56 0 -97 12t-69 36t-47 59t-31.5 81t-22.5 102.5t-20 122.5q-1 11 -2 17l-18 149q-86 10 -187 10zM300 -860l30 159q144 20 328 20h166l-30 -164h-169q-192 0 -325 -15z" />
    <glyph glyph-name="yehAr.fina.ss01" horiz-adv-x="2196" 
d="M1664 84l38 162h582v-159l-59 -56q51 -54 51 -126q0 -83 -62 -148.5t-161 -105.5t-233.5 -66.5t-267.5 -37t-275 -10.5q-344 0 -611.5 61t-442.5 161l-205 328l46 49q195 -164 520 -268t716 -104q156 0 349 14t350 43.5t157 65.5q0 32 -118 82t-336 108q-35 6 -38 7z
M1134 -929l-151 148l151 151l138 -135l133 133l151 -151l-151 -149l-135 136z" />
    <glyph glyph-name="yehAr.fina.ss01.ss02" horiz-adv-x="2232" 
d="M1664 84l38 162h582v-159l-59 -56q51 -54 51 -126q0 -83 -62 -148.5t-161 -105.5t-233.5 -66.5t-267.5 -37t-275 -10.5q-344 0 -611.5 61t-442.5 161l-205 328l46 49q195 -164 520 -268t716 -104q156 0 349 14t350 43.5t157 65.5q0 32 -118 82t-336 108q-35 6 -38 7z
M502 374l-151 148l135 136l-135 133l151 151l151 -151l-136 -133l136 -136z" />
    <glyph glyph-name="yehAr.fina.ss01.ss02.ss04" horiz-adv-x="2232" 
d="M1664 84l38 162h582v-159l-59 -56q51 -54 51 -126q0 -83 -62 -148.5t-161 -105.5t-233.5 -66.5t-267.5 -37t-275 -10.5q-344 0 -611.5 61t-442.5 161l-205 328l46 49q195 -164 520 -268t716 -104q156 0 349 14t350 43.5t157 65.5q0 32 -118 82t-336 108q-35 6 -38 7z
M189 384l36 177q142 -16 325 -16h180l-36 -181h-177q-188 0 -328 20z" />
    <glyph glyph-name="yehAr.fina.ss01.ss04" horiz-adv-x="2232" 
d="M1664 84l38 162h582v-159l-59 -56q51 -54 51 -126q0 -83 -62 -148.5t-161 -105.5t-233.5 -66.5t-267.5 -37t-275 -10.5q-344 0 -611.5 61t-442.5 161l-205 328l46 49q195 -164 520 -268t716 -104q156 0 349 14t350 43.5t157 65.5q0 32 -118 82t-336 108q-35 6 -38 7z
M1019 -852l31 158q151 21 327 21h167l-31 -164h-169q-192 0 -325 -15z" />
    <glyph glyph-name="yehAr.fina.ss02" horiz-adv-x="1249" 
d="M722 84l38 162h581v-159l-56 -54q69 -57 69 -151q0 -128 -112 -241.5t-290 -179t-368 -65.5q-134 0 -236 33.5t-163.5 87t-100 130t-52.5 152t-14 163.5q0 204 74 435l64 -16q-20 -142 -20 -307q0 -68 9.5 -123.5t40.5 -115t82 -100t140 -67t209 -26.5q143 0 291 36.5
t241 90.5t93 103q0 38 -126 91.5t-366 113.5zM489 456l-151 148l136 136l-136 136l151 151l151 -151l-136 -136l136 -136z" />
    <glyph glyph-name="yehAr.fina.ss02.ss04" horiz-adv-x="1249" 
d="M722 84l38 162h581v-159l-56 -54q69 -57 69 -151q0 -128 -112 -241.5t-290 -179t-368 -65.5q-134 0 -236 33.5t-163.5 87t-100 130t-52.5 152t-14 163.5q0 204 74 435l64 -16q-20 -142 -20 -307q0 -68 9.5 -123.5t40.5 -115t82 -100t140 -67t209 -26.5q143 0 291 36.5
t241 90.5t93 103q0 38 -126 91.5t-366 113.5zM177 468l35 177q133 -15 326 -15h179l-36 -182h-177q-187 0 -327 20z" />
    <glyph glyph-name="yehAr.fina.ss04" horiz-adv-x="1249" 
d="M722 84l38 162h581v-159l-56 -54q69 -57 69 -151q0 -128 -112 -241.5t-290 -179t-368 -65.5q-134 0 -236 33.5t-163.5 87t-100 130t-52.5 152t-14 163.5q0 204 74 435l64 -16q-20 -142 -20 -307q0 -68 9.5 -123.5t40.5 -115t82 -100t140 -67t209 -26.5q143 0 291 36.5
t241 90.5t93 103q0 38 -126 91.5t-366 113.5zM343 -993l31 158q151 21 327 21h167l-31 -164h-169q-192 0 -325 -15z" />
    <glyph glyph-name="yehAr.init.c" horiz-adv-x="637" 
d="M210 730l177 153q72 -112 97 -252t25 -372v-259h-509v207l77 39h294q-23 232 -161 484zM131 -745l-151 149l151 151l138 -136l133 133l151 -151l-151 -149l-136 136z" />
    <glyph glyph-name="yehAr.init.c.ss04" horiz-adv-x="637" 
d="M210 730l177 153q72 -112 97 -252t25 -372v-259h-509v207l77 39h294q-23 232 -161 484zM15 -668l31 159q144 20 328 20h166l-31 -164h-169q-192 0 -325 -15z" />
    <glyph glyph-name="yehAr.init.ss04" horiz-adv-x="637" 
d="M210 730l177 153q72 -112 97 -252t25 -372v-259h-509v207l77 39h294q-23 232 -161 484zM-82 -389l31 159q144 20 327 20h167l-31 -164h-169q-192 0 -325 -15z" />
    <glyph glyph-name="yehAr.init.wide" horiz-adv-x="719" 
d="M456 246q-23 230 -162 484l177 153q72 -112 97.5 -252.5t25.5 -371.5v-259h-594v207l79 39h377zM131 -466l-151 149l151 151l135 -136l136 136l151 -151l-151 -149l-136 136z" />
    <glyph glyph-name="yehAr.init.wide.ss04" horiz-adv-x="719" 
d="M456 246q-23 230 -162 484l177 153q72 -112 97.5 -252.5t25.5 -371.5v-259h-594v207l79 39h377zM15 -389l31 159q144 20 328 20h166l-31 -164h-169q-192 0 -325 -15z" />
    <glyph glyph-name="yehAr.medi.calt" horiz-adv-x="40" 
d="M-343 -466l-151 149l151 151l136 -136l135 136l151 -151l-151 -149l-135 136zM0 220l79 26h41v-208l-79 -38h-41v220z" />
    <glyph glyph-name="yehAr.medi.calt.ss04" horiz-adv-x="40" 
d="M-458 -389l30 159q144 20 328 20h167l-31 -164h-169q-192 0 -325 -15zM0 220l79 26h41v-208l-79 -38h-41v220z" />
    <glyph glyph-name="yehAr.medi.calt.yeh" horiz-adv-x="40" 
d="M-207 -735l-151 149l135 135l-135 136l151 151l151 -151l-136 -136l136 -135zM0 220l79 26h41v-208l-79 -38h-41v220z" />
    <glyph glyph-name="yehAr.medi.ss04" horiz-adv-x="642" 
d="M210 730l177 153q72 -112 97 -252t25 -372v-13h213v-220l-79 -26h-643v207l77 39h294q-23 232 -161 484zM23 -389l31 159q144 20 327 20h167l-31 -164h-169q-192 0 -325 -15z" />
    <glyph glyph-name="yehAr.medi.wide" horiz-adv-x="655" 
d="M294 730l177 153q72 -112 97.5 -252.5t25.5 -371.5v-13h141v-220l-80 -26h-655v207l79 39h377q-23 230 -162 484zM146 -466l-151 149l151 151l136 -136l135 136l151 -151l-151 -149l-135 136z" />
    <glyph glyph-name="yehAr.medi.wide.ss04" horiz-adv-x="655" 
d="M294 730l177 153q72 -112 97.5 -252.5t25.5 -371.5v-13h141v-220l-80 -26h-655v207l79 39h377q-23 230 -162 484zM31 -389l30 159q144 20 328 20h167l-31 -164h-169q-192 0 -325 -15z" />
    <glyph glyph-name="yehAr.ss01" horiz-adv-x="2229" 
d="M1815 735q-70 0 -137.5 -15.5t-117.5 -51.5t-50 -84q0 -33 27.5 -59.5t72.5 -44t102 -37.5t117 -38t117 -46.5t102 -62t72.5 -85.5t27.5 -116q0 -85 -47 -157t-130 -123t-191 -89.5t-236 -61.5t-258.5 -34t-264.5 -11q-296 0 -567.5 54.5t-463.5 170.5l-200 325l46 49
q216 -177 527.5 -274.5t704.5 -97.5q98 0 209 5.5t244 21t237.5 39t175 64t70.5 91.5q0 27 -34 48t-88 36.5t-119.5 33.5t-131 45t-119.5 63.5t-88 97.5t-34 139q0 79 33.5 157t90 139t140 99t176.5 38q168 0 326 -121l-70 -164q-85 31 -143.5 44t-127.5 13zM891 -847
l-151 148l151 151l136 -136l135 136l151 -151l-151 -148l-135 135z" />
    <glyph glyph-name="yehAr.ss01.ss02" horiz-adv-x="2229" 
d="M1815 735q-70 0 -137.5 -15.5t-117.5 -51.5t-50 -84q0 -33 27.5 -59.5t72.5 -44t102 -37.5t117 -38t117 -46.5t102 -62t72.5 -85.5t27.5 -116q0 -85 -47 -157t-130 -123t-191 -89.5t-236 -61.5t-258.5 -34t-264.5 -11q-296 0 -567.5 54.5t-463.5 170.5l-200 325l46 49
q216 -177 527.5 -274.5t704.5 -97.5q98 0 209 5.5t244 21t237.5 39t175 64t70.5 91.5q0 27 -34 48t-88 36.5t-119.5 33.5t-131 45t-119.5 63.5t-88 97.5t-34 139q0 79 33.5 157t90 139t140 99t176.5 38q168 0 326 -121l-70 -164q-85 31 -143.5 44t-127.5 13zM404 374
l-151 148l136 136l-136 133l151 151l152 -151l-136 -133l136 -136z" />
    <glyph glyph-name="yehAr.ss01.ss02.ss04" horiz-adv-x="2229" 
d="M92 387l36 176q133 -15 325 -15h179l-36 -182h-176q-181 0 -328 21zM1815 735q-70 0 -137.5 -15.5t-117.5 -51.5t-50 -84q0 -33 27.5 -59.5t72.5 -44t102 -37.5t117 -38t117 -46.5t102 -62t72.5 -85.5t27.5 -116q0 -85 -47 -157t-130 -123t-191 -89.5t-236 -61.5
t-258.5 -34t-264.5 -11q-296 0 -567.5 54.5t-463.5 170.5l-200 325l46 49q216 -177 527.5 -274.5t704.5 -97.5q98 0 209 5.5t244 21t237.5 39t175 64t70.5 91.5q0 27 -34 48t-88 36.5t-119.5 33.5t-131 45t-119.5 63.5t-88 97.5t-34 139q0 79 33.5 157t90 139t140 99
t176.5 38q168 0 326 -121l-70 -164q-85 31 -143.5 44t-127.5 13z" />
    <glyph glyph-name="yehAr.ss01.ss04" horiz-adv-x="2229" 
d="M1815 735q-70 0 -137.5 -15.5t-117.5 -51.5t-50 -84q0 -33 27.5 -59.5t72.5 -44t102 -37.5t117 -38t117 -46.5t102 -62t72.5 -85.5t27.5 -116q0 -85 -47 -157t-130 -123t-191 -89.5t-236 -61.5t-258.5 -34t-264.5 -11q-296 0 -567.5 54.5t-463.5 170.5l-200 325l46 49
q216 -177 527.5 -274.5t704.5 -97.5q98 0 209 5.5t244 21t237.5 39t175 64t70.5 91.5q0 27 -34 48t-88 36.5t-119.5 33.5t-131 45t-119.5 63.5t-88 97.5t-34 139q0 79 33.5 157t90 139t140 99t176.5 38q168 0 326 -121l-70 -164q-85 31 -143.5 44t-127.5 13zM776 -771
l30 159q151 21 328 21h166l-30 -164h-169q-183 0 -325 -16z" />
    <glyph glyph-name="yehAr.ss02" horiz-adv-x="1397" 
d="M978 735q-130 0 -216 -40.5t-86 -108.5q0 -40 35 -69t91.5 -48.5t124 -38t135.5 -45t124.5 -62t91.5 -95t35 -138.5q0 -106 -62.5 -200.5t-165.5 -159.5t-237 -102.5t-275 -37.5q-265 0 -411.5 131.5t-146.5 386.5q0 163 75 386l64 -10q-21 -153 -21 -241
q0 -219 120.5 -314t360.5 -95q128 0 256 28t215 79t87 110q0 33 -34 57.5t-88.5 41.5t-120 35t-131 44.5t-120 62t-88.5 95.5t-34 138q0 75 31 151.5t86.5 141t143 105t189.5 40.5q103 0 183.5 -36t131.5 -85l-69 -161q-130 54 -274 54zM297 599l-151 149l136 135l-136 133
l151 151l151 -151l-136 -133l136 -135z" />
    <glyph glyph-name="yehAr.ss02.ss04" horiz-adv-x="1397" 
d="M-15 612l35 176q133 -15 326 -15h179l-36 -182h-177q-180 0 -327 21zM978 735q-130 0 -216 -40.5t-86 -108.5q0 -40 35 -69t91.5 -48.5t124 -38t135.5 -45t124.5 -62t91.5 -95t35 -138.5q0 -106 -62.5 -200.5t-165.5 -159.5t-237 -102.5t-275 -37.5q-265 0 -411.5 131.5
t-146.5 386.5q0 163 75 386l64 -10q-21 -153 -21 -241q0 -219 120.5 -314t360.5 -95q128 0 256 28t215 79t87 110q0 33 -34 57.5t-88.5 41.5t-120 35t-131 44.5t-120 62t-88.5 95.5t-34 138q0 75 31 151.5t86.5 141t143 105t189.5 40.5q103 0 183.5 -36t131.5 -85l-69 -161
q-130 54 -274 54z" />
    <glyph glyph-name="yehAr.ss04" horiz-adv-x="1397" 
d="M978 735q-130 0 -216 -40.5t-86 -108.5q0 -40 35 -69t91.5 -48.5t124 -38t135.5 -45t124.5 -62t91.5 -95t35 -138.5q0 -106 -62.5 -200.5t-165.5 -159.5t-237 -102.5t-275 -37.5q-265 0 -411.5 131.5t-146.5 386.5q0 163 75 386l64 -10q-21 -153 -21 -241
q0 -219 120.5 -314t360.5 -95q128 0 256 28t215 79t87 110q0 33 -34 57.5t-88.5 41.5t-120 35t-131 44.5t-120 62t-88.5 95.5t-34 138q0 75 31 151.5t86.5 141t143 105t189.5 40.5q103 0 183.5 -36t131.5 -85l-69 -161q-130 54 -274 54zM330 -799l31 159q144 20 328 20h166
l-31 -163h-169q-183 0 -325 -16z" />
    <glyph glyph-name="behDotlessAr.fina.ss01" horiz-adv-x="2421" 
d="M49 246h2104q-23 232 -161 484l176 153q72 -112 97.5 -252.5t25.5 -371.5v-13h210v-220l-79 -26h-2335z" />
    <glyph glyph-name="behDotlessAr.init.c" horiz-adv-x="637" 
d="M210 730l177 153q72 -112 97 -252t25 -372v-259h-509v207l77 39h294q-23 232 -161 484z" />
    <glyph glyph-name="behDotlessAr.init.wide" horiz-adv-x="719" 
d="M456 246q-23 230 -162 484l177 153q72 -112 97.5 -252.5t25.5 -371.5v-259h-594v207l79 39h377z" />
    <glyph glyph-name="behDotlessAr.medi.calt" horiz-adv-x="40" 
d="M0 220l79 26h41v-208l-79 -38h-41v220z" />
    <glyph glyph-name="behDotlessAr.medi.heh" horiz-adv-x="40" 
d="M0 220l79 26h41v-208l-79 -38h-41v220z" />
    <glyph glyph-name="behDotlessAr.medi.wide" horiz-adv-x="655" 
d="M294 730l177 153q72 -112 97.5 -252.5t25.5 -371.5v-13h141v-220l-80 -26h-655v207l79 39h377q-23 230 -162 484z" />
    <glyph glyph-name="behDotlessAr.ss01" horiz-adv-x="2391" 
d="M36 246h2089q-23 232 -161 484l176 153q72 -112 97.5 -252.5t25.5 -371.5v-259h-2189z" />
    <glyph glyph-name="qafDotlessAr.fina.ss01" horiz-adv-x="2165" 
d="M1129 -266q217 0 411.5 31t312.5 84.5t118 114.5v36h-647v284q0 252 97.5 390t262.5 138q173 0 287.5 -150t120.5 -416h151v-202q-5 -14 -32 -27.5t-45 -16.5h-74v-13q0 -138 -123 -247.5t-354 -173t-532 -63.5q-622 0 -996 267l-200 345l46 46q191 -207 497.5 -317
t698.5 -110zM1431 233h530q-24 161 -123.5 257t-217.5 96q-99 0 -144 -75t-45 -232v-46z" />
    <glyph glyph-name="qafDotlessAr.ss01" horiz-adv-x="2216" 
d="M1129 -246q217 0 411.5 31.5t312.5 85t118 114.5v35h-647v285q0 252 97.5 389.5t262.5 137.5q178 0 293 -156t115 -435v-233q0 -138 -123 -247.5t-354 -173t-532 -63.5q-623 0 -996 266l-200 346l46 46q191 -207 498 -317.5t698 -110.5zM1431 253h530
q-24 161 -123.5 257.5t-217.5 96.5q-99 0 -144 -75t-45 -232v-47z" />
    <glyph glyph-name="pehAr.fina.ss01" horiz-adv-x="2411" 
d="M36 246h2104q-23 232 -161 484l177 153q72 -112 97 -252t25 -372v-13h213v-220l-79 -26h-2338zM878 -356l151 149l136 -136l135 136l152 -149l-152 -151l-135 136l-136 -136zM1021 -622l146 146l146 -146l-146 -146z" />
    <glyph glyph-name="pehAr.fina.ss01.ss04" horiz-adv-x="2411" 
d="M36 246h2104q-23 232 -161 484l177 153q72 -112 97 -252t25 -372v-13h213v-220l-79 -26h-2338zM916 -389l31 159q144 20 328 20h166l-30 -164h-169q-193 0 -326 -15zM1167 -704l-143 146l143 141l144 -141z" />
    <glyph glyph-name="pehAr.fina.ss04" horiz-adv-x="1743" 
d="M548 0q-235 0 -353 92.5t-118 301.5q0 145 71 379l64 -13q-15 -135 -15 -215q0 -112 36 -175.5t123.5 -93.5t245.5 -30h870q-23 232 -161 484l176 153q72 -112 97.5 -252.5t25.5 -371.5v-13h213v-220l-80 -26h-1195zM576 -389l31 159q144 20 327 20h167l-31 -164h-169
q-192 0 -325 -15zM827 -704l-143 146l143 141l143 -141z" />
    <glyph glyph-name="pehAr.init.ss04" horiz-adv-x="637" 
d="M210 730l177 153q72 -112 97 -252t25 -372v-259h-509v207l77 39h294q-23 232 -161 484zM174 -704l-143 146l143 141l143 -141zM-77 -389l31 159q144 20 328 20h166l-31 -164h-169q-192 0 -325 -15z" />
    <glyph glyph-name="pehAr.init.wide" horiz-adv-x="719" 
d="M456 246q-23 230 -162 484l177 153q72 -112 97.5 -252.5t25.5 -371.5v-259h-594v207l79 39h377zM-18 -356l151 149l136 -136l135 136l152 -149l-152 -151l-135 136l-136 -136zM125 -622l146 146l146 -146l-146 -146z" />
    <glyph glyph-name="pehAr.init.wide.ss04" horiz-adv-x="719" 
d="M456 246q-23 230 -162 484l177 153q72 -112 97.5 -252.5t25.5 -371.5v-259h-594v207l79 39h377zM20 -389l31 159q144 20 328 20h166l-30 -164h-169q-193 0 -326 -15zM271 -704l-143 146l143 141l144 -141z" />
    <glyph glyph-name="pehAr.medi.calt" horiz-adv-x="40" 
d="M-494 -356l151 149l136 -136l135 136l151 -149l-151 -151l-135 136l-136 -136zM-351 -622l146 146l146 -146l-146 -146zM0 220l79 26h41v-208l-79 -38h-41v220z" />
    <glyph glyph-name="pehAr.medi.calt.ss04" horiz-adv-x="40" 
d="M-202 -704l-144 146l144 141l143 -141zM-456 -389l31 159q144 20 328 20h166l-31 -164h-169q-192 0 -325 -15zM0 220l79 26h41v-208l-79 -38h-41v220z" />
    <glyph glyph-name="pehAr.medi.ss04" horiz-adv-x="642" 
d="M210 730l177 153q72 -112 97 -252t25 -372v-13h213v-220l-79 -26h-643v207l77 39h294q-23 232 -161 484zM28 -389l31 159q144 20 328 20h166l-31 -164h-169q-192 0 -325 -15zM279 -704l-143 146l143 141l143 -141z" />
    <glyph glyph-name="pehAr.medi.wide" horiz-adv-x="655" 
d="M294 730l177 153q72 -112 97.5 -252.5t25.5 -371.5v-13h141v-220l-80 -26h-655v207l79 39h377q-23 230 -162 484zM-5 -356l151 149l136 -136l135 136l151 -149l-151 -151l-135 136l-136 -136zM138 -622l146 146l146 -146l-146 -146z" />
    <glyph glyph-name="pehAr.medi.wide.ss04" horiz-adv-x="655" 
d="M294 730l177 153q72 -112 97.5 -252.5t25.5 -371.5v-13h141v-220l-80 -26h-655v207l79 39h377q-23 230 -162 484zM33 -389l31 159q144 20 328 20h166l-31 -164h-169q-192 0 -325 -15zM287 -704l-144 146l144 141l143 -141z" />
    <glyph glyph-name="pehAr.ss01" horiz-adv-x="2391" 
d="M36 246h2089q-23 232 -161 484l176 153q72 -112 97.5 -252.5t25.5 -371.5v-259h-2189zM876 -356l151 149l135 -136l136 136l151 -149l-151 -151l-136 136l-135 -136zM1019 -622l146 146l146 -146l-146 -146z" />
    <glyph glyph-name="pehAr.ss01.ss04" horiz-adv-x="2391" 
d="M36 246h2089q-23 232 -161 484l176 153q72 -112 97.5 -252.5t25.5 -371.5v-259h-2189zM914 -389l31 159q144 20 327 20h167l-31 -164h-169q-192 0 -325 -15zM1167 -704l-143 146l143 141l144 -141z" />
    <glyph glyph-name="pehAr.ss04" horiz-adv-x="1751" 
d="M1324 730l176 153q72 -112 97.5 -252.5t25.5 -371.5v-259h-1075q-235 0 -353 92.5t-118 301.5q0 145 71 379l64 -13q-15 -135 -15 -215q0 -112 36 -175.5t123.5 -93.5t245.5 -30h883q-23 232 -161 484zM573 -389l31 159q144 20 328 20h166l-30 -164h-169q-193 0 -326 -15
zM824 -704l-143 146l143 141l144 -141z" />
    <glyph glyph-name="tchehAr.fina.ss04" horiz-adv-x="1259" 
d="M676 -348h525v-56l-551 -210q-120 14 -226 55t-192.5 107.5t-137 167.5t-50.5 223q0 449 696 683q-32 6 -102.5 19.5t-108 20.5t-89.5 13t-92 6q-124 0 -258 -72l-39 54q68 131 136.5 191t173.5 60q57 0 129.5 -19.5t136 -43.5t165.5 -43.5t212 -19.5h168l-25 -204
q-29 -6 -141 -36q-7 -44 -7 -78.5t8 -71t31.5 -62.5t60.5 -47t97 -32t140 -11v-220l-76 -26q-84 0 -150 19t-108.5 53.5t-72.5 82t-40.5 104.5t-12.5 121t10 132q-110 -36 -208.5 -78.5t-192 -97.5t-161.5 -114.5t-109 -131t-41 -144.5q0 -61 28 -112.5t85.5 -93t157 -65
t231.5 -23.5zM591 -120l-120 120l31 33q-104 -9 -115 -10l25 131q108 18 272 18h135l-25 -136h-118l36 -36z" />
    <glyph glyph-name="tchehAr.init.ss04" horiz-adv-x="1231" 
d="M0 0v187l79 59h702q-84 70 -172 199q-74 107 -144 165t-150 58q-72 0 -195 -48l-41 56q24 48 46.5 83.5t56.5 71.5t78 55.5t96 19.5q36 0 71 -10.5t62.5 -26t58 -44t51 -52t49 -64.5t44.5 -66.5t45 -71.5q39 -63 62.5 -98.5t63 -85t72 -76t76.5 -46t90 -19.5h92l-36 -246
h-1157zM305 -389l30 159q144 20 328 20h166l-30 -164h-169q-192 0 -325 -15zM556 -704l-144 146l144 141l143 -141z" />
    <glyph glyph-name="tchehAr.medi.ss04" horiz-adv-x="1144" 
d="M0 0v187l79 59h702q-84 70 -172 199q-74 107 -144 165t-150 58q-72 0 -195 -48l-41 56q24 48 46.5 83.5t56.5 71.5t78 55.5t96 19.5q36 0 71 -10.5t62.5 -26t58 -44t51 -52t49 -64.5t44.5 -66.5t45 -71.5q39 -63 62.5 -98.5t63 -85t72 -76t76.5 -46t90 -19.5h123v-200
q0 -18 -20.5 -29.5t-46.5 -16.5h-1157zM228 -389l31 159q144 20 327 20h167l-31 -164h-169q-192 0 -325 -15zM479 -704l-144 146l144 141l143 -141z" />
    <glyph glyph-name="tchehAr.ss04" horiz-adv-x="1236" 
d="M676 -348h525v-56l-551 -210q-120 14 -226 55t-192.5 107.5t-137 167.5t-50.5 223q0 449 696 683q-32 6 -102.5 19.5t-108 20.5t-89.5 13t-92 6q-124 0 -258 -72l-39 54q68 131 136.5 191t173.5 60q57 0 129.5 -19.5t136 -43.5t165.5 -43.5t212 -19.5h168l-25 -204
q-125 -28 -253 -69t-259.5 -102t-232 -130t-164.5 -157.5t-64 -179.5q0 -61 28 -112.5t85.5 -93t157 -65t231.5 -23.5zM740 -79l-126 125l52 49q-35 0 -136 -11l26 136q110 18 279 18h140l-25 -138h-138l53 -54z" />
    <glyph glyph-name="fehDotlessAr.fina.ss01" horiz-adv-x="2723" 
d="M49 246h1889q-74 145 -65.5 277t68.5 232t156 159t197 59q145 0 244 -116t99 -276q0 -198 -174 -335h338v-213l-77 -33h-2637zM1971 522q6 -44 71.5 -119t151.5 -137q114 46 200.5 111t93.5 117q0 21 -9.5 51t-31 65t-51 65t-74.5 50t-97 20q-57 0 -107 -24t-81 -59
t-48.5 -72.5t-17.5 -67.5z" />
    <glyph glyph-name="fehDotlessAr.init.1" horiz-adv-x="1013" 
d="M79 246h681v184h-640v238q0 251 98.5 389.5t265.5 138.5q175 0 289.5 -150.5t114.5 -402.5v-643h-888v200zM225 625h533q-19 155 -121.5 249t-221.5 94q-98 0 -144 -76t-46 -232v-35z" />
    <glyph glyph-name="fehDotlessAr.ss01" horiz-adv-x="2744" 
d="M49 246h2442v184h-640v238q0 251 98.5 389.5t264.5 138.5q175 0 290 -150.5t115 -402.5v-643h-2532zM1956 625h532q-19 155 -121.5 249t-221.5 94q-98 0 -143.5 -76t-45.5 -232v-35z" />
    <glyph glyph-name="vehAr.fina.ss01" horiz-adv-x="2711" 
d="M36 246h1892q-74 145 -65.5 277t68.5 232t156 159t197 59q145 0 244 -116t99 -276q0 -197 -175 -335h338v-213l-76 -33h-2640zM1961 522q6 -44 71.5 -119t151.5 -137q114 46 200.5 111t93.5 117q0 27 -16.5 67t-46.5 82t-83.5 72t-117.5 30q-75 0 -135.5 -40.5t-89 -90.5
t-28.5 -92zM2115 1180l-151 149l151 151l138 -136l133 133l151 -151l-151 -148l-136 135zM2253 1449l-146 146l146 146l146 -146z" />
    <glyph glyph-name="vehAr.fina.ss01.ss04" horiz-adv-x="2711" 
d="M36 246h1892q-74 145 -65.5 277t68.5 232t156 159t197 59q145 0 244 -116t99 -276q0 -197 -175 -335h338v-213l-76 -33h-2640zM1961 522q6 -44 71.5 -119t151.5 -137q114 46 200.5 111t93.5 117q0 27 -16.5 67t-46.5 82t-83.5 72t-117.5 30q-75 0 -135.5 -40.5t-89 -90.5
t-28.5 -92zM1964 1196l35 176q133 -15 325 -15h180l-36 -182h-177q-180 0 -327 21zM2245 1480l-143 143l143 143l143 -143z" />
    <glyph glyph-name="vehAr.fina.ss04" horiz-adv-x="1927" 
d="M148 773l64 -13q-15 -135 -15 -215q0 -112 36 -175.5t123.5 -93.5t245.5 -30h542q-74 145 -65.5 277t68.5 232t156 159t197 59q145 0 244 -116t99 -276q0 -198 -174 -335h338v-213l-77 -33h-1382q-235 0 -353 92.5t-118 301.5q0 145 71 379zM1178 522q6 -44 71.5 -119
t150.5 -137q115 46 201.5 111t93.5 117q0 27 -16.5 67t-46.5 82t-83.5 72t-117.5 30q-75 0 -135.5 -40.5t-89 -90.5t-28.5 -92zM1180 1196l36 176q133 -15 325 -15h179l-36 -182h-176q-181 0 -328 21zM1462 1480l-144 143l144 143l143 -143z" />
    <glyph glyph-name="vehAr.init.ss04" horiz-adv-x="1013" 
d="M760 246v184h-640v238q0 251 98.5 389.5t265.5 138.5q175 0 289.5 -150.5t114.5 -402.5v-643h-888v200l79 46h681zM225 625h533q-19 155 -121.5 249t-221.5 94q-98 0 -144 -76t-46 -232v-35zM189 1418l36 177q133 -15 325 -15h180l-36 -182h-177q-188 0 -328 20z
M471 1702l-143 144l143 143l143 -143z" />
    <glyph glyph-name="vehAr.medi.ss04" horiz-adv-x="1008" 
d="M79 246h146q-74 145 -65.5 277t68.5 232t156 159t197 59q145 0 244 -116t99 -276q0 -198 -174 -335h338v-213l-77 -33h-1011v202zM259 522q6 -44 71.5 -119t150.5 -137q115 46 201.5 111t93.5 117q0 27 -16.5 67t-46.5 82t-83.5 72t-117.5 30q-75 0 -135.5 -40.5
t-89 -90.5t-28.5 -92zM256 1198l36 177q142 -16 325 -16h179l-36 -181h-176q-188 0 -328 20zM538 1482l-144 144l144 143l143 -143z" />
    <glyph glyph-name="vehAr.ss01" horiz-adv-x="2731" 
d="M36 246h2442v184h-637v238q0 251 98.5 389.5t264.5 138.5q175 0 290 -150.5t115 -402.5v-144h-3v-499h-2532zM1946 625h532q-19 155 -121.5 249t-221.5 94q-98 0 -143.5 -76t-45.5 -232v-35zM2074 1403l-151 148l151 151l138 -135l133 133l151 -151l-151 -149l-136 136z
M2212 1669l-146 146l146 146l146 -146z" />
    <glyph glyph-name="vehAr.ss01.ss04" horiz-adv-x="2731" 
d="M36 246h2442v184h-637v238q0 251 98.5 389.5t264.5 138.5q175 0 290 -150.5t115 -402.5v-144h-3v-499h-2532zM1946 625h532q-19 155 -121.5 249t-221.5 94q-98 0 -143.5 -76t-45.5 -232v-35zM1923 1418l35 177q133 -15 326 -15h179l-36 -182h-177q-187 0 -327 20z
M2204 1702l-143 144l143 143l144 -143z" />
    <glyph glyph-name="vehAr.ss04" horiz-adv-x="1799" 
d="M151 773l64 -13q-15 -108 -15 -215q0 -112 35.5 -175.5t123 -93.5t245.5 -30h945v184h-640v238q0 251 97.5 389.5t263.5 138.5q176 0 290 -150.5t114 -402.5v-643h-1124q-237 0 -355 92.5t-118 301.5q0 150 74 379zM1014 625h530q-19 155 -120.5 249t-220.5 94
q-98 0 -143.5 -76t-45.5 -232v-35zM986 1418l35 177q136 -15 326 -15h179l-36 -182h-177q-183 0 -327 20zM1267 1702l-143 144l143 143l144 -143z" />
    <glyph glyph-name="noonghunnaAr.fina.calt" horiz-adv-x="1914" 
d="M1702 809h77v-394q0 -101 53 -135t160 -34v-223l-77 -23q-144 0 -209.5 86.5t-85.5 284.5l-5 80q-49 -87 -120 -137t-151 -50q-71 0 -138 38v-18q0 -120 -38.5 -223.5t-103.5 -176t-150.5 -124t-179.5 -76t-191 -24.5q-252 0 -388.5 135.5t-136.5 363.5q0 176 72 394
l66 -15q-20 -126 -20 -238q0 -188 105 -290t322 -102q122 0 240.5 34t195 92.5t76.5 124.5q0 62 -57.5 226.5t-118.5 274.5l184 144q166 -341 333 -341q135 0 240 223z" />
    <glyph glyph-name="noonghunnaAr.fina.calt.ss01" horiz-adv-x="2897" 
d="M1866 676l185 143q-1 -2 2 -5q1 -4 3 -8t5 -9.5t5 -8.5q162 -302 328 -302q149 0 261 238l30 85h77v-394q0 -101 53 -135t160 -34v-223l-77 -23q-144 0 -209 86.5t-85 284.5l-6 85q-49 -82 -120 -129.5t-151 -47.5q-85 0 -161 51q-1 -109 -55.5 -197t-147.5 -147
t-224 -98.5t-281.5 -57t-323.5 -17.5q-610 0 -1042 223l-205 328l46 48q201 -175 523 -271.5t724 -96.5q227 0 429.5 30t315.5 73.5t113 85.5q0 82 -172 443z" />
    <glyph glyph-name="noonghunnaAr.fina.ss01" horiz-adv-x="2483" 
d="M1992 527l181 144q92 -166 121 -425h269v-208l-77 -38h-218q-40 -102 -134 -178t-228.5 -121t-294 -66.5t-346.5 -21.5q-610 0 -1042 223l-205 330l46 46q201 -175 523 -271.5t724 -96.5q227 0 429 30t315 74t113 88q0 92 -176 491z" />
    <glyph glyph-name="noonghunnaAr.ss01" horiz-adv-x="2373" 
d="M1992 573l181 144q64 -115 95 -264.5t31 -247.5q0 -117 -53.5 -209.5t-147 -155t-225.5 -103.5t-282.5 -59t-325.5 -18q-611 0 -1042 222l-205 330l46 47q201 -175 523 -272t724 -97q227 0 429 30t315 74t113 88q0 92 -176 491z" />
    <glyph glyph-name="dotaboveSymbolAr.ss04" 
d="M0 -3l-156 157l156 153l156 -153z" />
    <glyph glyph-name="dotbelowSymbolAr.ss04" 
d="M0 -312l-156 156l156 153l156 -153z" />
    <glyph glyph-name="twodotshorizontalaboveSymbolAr.ss04" 
d="M-261 20l36 177q133 -15 325 -15h179l-36 -182h-176q-188 0 -328 20z" />
    <glyph glyph-name="twodotshorizontalbelowSymbolAr.ss04" 
d="M-251 -179l31 159q144 20 328 20h166l-31 -164h-169q-192 0 -325 -15z" />
    <glyph glyph-name="threedotsupaboveSymbolAr.ss04" horiz-adv-x="168" 
d="M-289 13l36 176q133 -15 325 -15h179l-36 -182h-177q-180 0 -327 21zM-5 253l-143 144l143 143l143 -143z" />
    <glyph glyph-name="threedotsdownbelowSymbolAr.jeem" 
d="M-205 177l108 107l92 -97l97 97l105 -105l-105 -105l-95 95l-94 -95zM-102 -10l99 102l103 -102l-103 -100z" />
    <glyph glyph-name="threedotsdownbelowSymbolAr.ss04" 
d="M3 -548l-144 146l144 141l143 -141zM-248 -179l30 159q144 20 328 20h166l-30 -164h-169q-192 0 -325 -15z" />
    <glyph glyph-name="twodotsverticalaboveSymbolAr.ss04" horiz-adv-x="168" 
d="M-133 26l36 176q133 -15 325 -15h179l-36 -182h-176q-181 0 -328 21z" />
    <glyph glyph-name=".ttfautohint" horiz-adv-x="2923" 
 />
    <glyph glyph-name="dotcenterar" 
d="M0 233l-151 151l151 148l151 -148z" />
    <glyph glyph-name="dotlessbehyehmaksura" horiz-adv-x="1249" 
d="M722 84l38 162h581v-159l-56 -54q69 -57 69 -151q0 -128 -112 -241.5t-290 -179t-368 -65.5q-134 0 -236 33.5t-163.5 87t-100 130t-52.5 152t-14 163.5q0 204 74 435l64 -16q-20 -142 -20 -307q0 -68 9.5 -123.5t40.5 -115t82 -100t140 -67t209 -26.5q143 0 291 36.5
t241 90.5t93 103q0 38 -126 91.5t-366 113.5z" />
    <glyph glyph-name="dotlesskafar" horiz-adv-x="1684" 
d="M1359 1405l197 49v-1454h-1008q-235 0 -353 92.5t-118 301.5q0 145 71 379l64 -13q-15 -135 -15 -215q0 -112 36 -175.5t123.5 -93.5t245.5 -30h796z" />
    <glyph glyph-name="exclamAr" horiz-adv-x="529" 
d="M274 -26l-156 157l156 153l156 -153zM154 1428h222l-41 -1034h-140z" />
    <glyph glyph-name="hamzaaboveDammaar" 
d="M-228 69l136 49q-92 49 -92 156q0 78 50.5 126t130.5 48q95 0 151 -56l-25 -90q-67 23 -128 23q-46 0 -79.5 -20.5t-33.5 -48.5q0 -14 8.5 -27.5t30 -27t58 -21t92 -11t131.5 4.5l-18 -123l-412 -46v64zM36 1044q39 -14 65 -46t35.5 -72t8 -81.5t-13.5 -79.5
q-25 -79 -89.5 -140t-143.5 -98l-77 -41l-36 75l92 51q122 52 169 105l-92 20q-85 20 -114.5 77t-3.5 128q21 51 62 82t87 31q26 0 51 -11zM-123 924q-12 -34 10 -63t75 -42l125 -28q10 52 -15 101t-75 68q-24 8 -46 8q-56 0 -74 -44z" />
    <glyph glyph-name="hamzaaboveDammatanar" 
d="M-218 64l136 49q-92 49 -92 156q0 78 51 126t131 48q95 0 151 -56l-26 -90q-67 23 -128 23q-46 0 -79.5 -20.5t-33.5 -48.5q0 -14 8.5 -27.5t30 -27t58 -21t92 -11t131.5 4.5l-17 -123l-413 -46v64zM113 1050q54 -21 83 -72.5t27.5 -108t-18.5 -111.5
q-26 -74 -88.5 -131.5t-139.5 -96.5q-105 148 -223 148q-59 0 -118 -35l-38 79q71 46 143 46q73 0 138.5 -44t112.5 -110q78 44 126 105l-87 23q-85 19 -114.5 76.5t-3.5 128.5q20 53 60.5 81.5t87.5 28.5q27 0 52 -7zM-46 924q-12 -32 10.5 -60.5t76.5 -41.5l115 -26
q14 53 -7 99.5t-70 67.5q-18 7 -46 7q-61 0 -79 -46z" />
    <glyph glyph-name="hamzaaboveFathaar" 
d="M-220 59l136 49q-93 50 -93 156q0 78 51 126t131 48q94 0 151 -57l-25 -89q-67 23 -128 23q-46 0 -79.5 -20.5t-33.5 -48.5q0 -14 8.5 -27.5t30 -27t58 -21t92 -11t131.5 4.5l-18 -123l-412 -46v64zM-289 548l565 87l-7 -72l-566 -87z" />
    <glyph glyph-name="hamzaaboveFathatanar" 
d="M-218 72l136 48q-92 49 -92 156q0 78 51 126.5t131 48.5q94 0 151 -57l-26 -89q-67 23 -128 23q-46 0 -79.5 -20.5t-33.5 -48.5q0 -14 8.5 -27.5t30 -27t58 -21t92 -11t131.5 4.5l-17 -123l-413 -46v64zM-289 586l565 87l-7 -71l-566 -87zM-289 796l565 87l-7 -71
l-566 -88z" />
    <glyph glyph-name="hamzaaboveSukunar" 
d="M-220 64l136 49q-93 50 -93 156q0 78 51 126t131 48q95 0 151 -56l-25 -90q-67 23 -128 23q-46 0 -79.5 -20.5t-33.5 -48.5q0 -14 8.5 -27.5t30 -27t58 -21t92 -11t131.5 4.5l-18 -123l-412 -46v64zM3 906q73 0 118 -59t45 -140q0 -77 -44.5 -124.5t-121.5 -47.5
q-72 0 -116.5 48t-44.5 124q0 80 46 139.5t118 59.5zM0 630q53 0 86.5 22t33.5 55q0 36 -34.5 70.5t-85.5 34.5q-47 0 -81 -34.5t-34 -70.5q0 -33 33.5 -55t81.5 -22z" />
    <glyph glyph-name="hamzabelowKasraar" 
d="M-230 -381l135 48q-92 49 -92 156q0 78 51 126t131 48q95 0 151 -56l-26 -89q-76 20 -128 20q-46 0 -79 -19.5t-33 -47.5q0 -14 8.5 -27.5t30 -27t58 -21t92 -10.5t131.5 5l-18 -123l-412 -46v64zM-276 -571l565 87l-7 -72l-566 -87z" />
    <glyph glyph-name="hamzabelowKasratanar" 
d="M-223 -379l136 49q-92 49 -92 156q0 78 51 126t131 48q95 0 151 -56l-26 -90q-80 21 -128 21q-46 0 -79.5 -19.5t-33.5 -47.5q0 -14 8.5 -27.5t30 -27t58 -21t92 -11t131.5 4.5l-18 -123l-412 -46v64zM-294 -635l565 87l-7 -72l-566 -87zM-294 -888l565 87l-7 -72
l-566 -87z" />
    <glyph glyph-name="hamzacenterar" 
d="M-28 -371l136 48q-93 50 -93 157q0 78 51 126t131 48q94 0 151 -57l-25 -89q-67 23 -128 23q-46 0 -79.5 -20.5t-33.5 -48.5q0 -14 8.5 -27.5t30 -27t58 -21t92 -11t131.5 4.5l-18 -123l-412 -46v64z" />
    <glyph glyph-name="shaddaAlefabovear" 
d="M172 317l84 21v-141q0 -97 -38 -147t-105 -50q-86 0 -118 72q-21 -38 -57.5 -59t-78.5 -21q-128 0 -148 180l-11 92l82 18v-113q0 -39 25 -62t70 -23q37 0 63 14t24 35l-13 133l85 18v-92q0 -45 27.5 -71t69.5 -26q58 0 54 38zM31 724v-299l-82 -49v331z" />
    <glyph glyph-name="shaddaDammaar" 
d="M36 904q39 -14 65 -46t35.5 -72t8 -81.5t-13.5 -79.5q-25 -79 -89.5 -140t-143.5 -98l-77 -41l-36 74l92 51q122 52 169 105l-92 20q-85 20 -114.5 77t-3.5 128q21 51 62 82t87 31q29 0 51 -10zM172 317l84 21v-141q0 -97 -38 -147t-105 -50q-86 0 -118 72
q-21 -38 -57.5 -59t-78.5 -21q-128 0 -148 180l-11 92l82 18v-113q0 -39 25 -62t70 -23q37 0 63 14t24 35l-13 133l85 18v-92q0 -45 27.5 -71t69.5 -26q58 0 54 38zM-123 783q-12 -34 10 -63t75 -42l125 -28q10 52 -15 101t-75 68q-24 8 -46 8q-56 0 -74 -44z" />
    <glyph glyph-name="shaddaDammatanar" 
d="M136 901q54 -21 83 -72.5t27.5 -108t-18.5 -111.5q-26 -74 -88.5 -131.5t-139.5 -96.5q-106 149 -223 149q-56 0 -117 -36l-39 79q73 47 143 47q73 0 138.5 -44t112.5 -110q78 44 126 105l-87 23q-85 19 -114.5 76.5t-3.5 128.5q20 53 60.5 81.5t87.5 28.5q23 0 52 -8z
M172 317l84 21v-141q0 -97 -38 -147t-105 -50q-86 0 -118 72q-21 -38 -57.5 -59t-78.5 -21q-128 0 -148 180l-11 92l82 18v-113q0 -39 25 -62t70 -23q37 0 63 14t24 35l-13 133l85 18v-92q0 -45 27.5 -71t69.5 -26q58 0 54 38zM-23 776q-12 -32 10.5 -61t76.5 -42l115 -25
q14 53 -7 99t-70 67q-21 8 -46 8q-61 0 -79 -46z" />
    <glyph glyph-name="shaddaFathaar" 
d="M172 317l84 21v-141q0 -97 -38 -147t-105 -50q-86 0 -118 72q-21 -38 -57.5 -59t-78.5 -21q-128 0 -148 180l-11 92l82 18v-113q0 -39 25 -62t70 -23q37 0 63 14t24 35l-13 133l85 18v-92q0 -45 27.5 -71t69.5 -26q58 0 54 38zM-294 474l565 87l-7 -72l-566 -87z" />
    <glyph glyph-name="shaddaFathatanar" 
d="M184 323l85 20v-141q0 -97 -38.5 -147t-105.5 -50q-85 0 -117 72q-21 -38 -57.5 -59t-78.5 -21q-128 0 -148 180l-11 92l82 18v-113q0 -39 25 -61.5t70 -22.5q38 0 63.5 13.5t23.5 34.5l-13 133l85 18v-92q0 -45 27.5 -71t69.5 -26q58 0 54 38zM-274 481l566 87l-8 -71
l-566 -87zM-274 709l566 87l-8 -72l-566 -87z" />
    <glyph glyph-name="shaddaKasraar" 
d="M172 558l84 21v-141q0 -97 -38 -147t-105 -50q-43 0 -73.5 19.5t-44.5 51.5q-21 -38 -57 -58.5t-79 -20.5q-128 0 -148 179l-11 92l82 18v-112q0 -39 25 -62t70 -23q37 0 63 14t24 35l-13 133l85 18v-92q0 -45 27.5 -71.5t69.5 -26.5q58 0 54 39zM-287 77l566 87l-8 -72
l-565 -87z" />
    <glyph glyph-name="shaddaKasratanar" 
d="M182 819l84 21v-141q0 -97 -38 -147t-105 -50q-43 0 -73.5 19.5t-44.5 51.5q-21 -38 -57 -58.5t-79 -20.5q-128 0 -148 179l-10 92l82 18v-112q0 -39 24.5 -62t69.5 -23q37 0 63 14t24 35l-12 133l84 18v-92q0 -45 27.5 -71.5t69.5 -26.5q58 0 54 39zM-269 315l566 87
l-8 -72l-565 -87zM-269 72l566 87l-8 -72l-565 -87z" />
    <glyph glyph-name="dotlesskafar.fina" horiz-adv-x="1625" 
d="M1298 1405l197 49v-1208h210v-208l-77 -38h-1080q-235 0 -353 92.5t-118 301.5q0 145 71 379l64 -13q-15 -135 -15 -215q0 -112 36 -175.5t123.5 -93.5t245.5 -30h734z" />
    <glyph glyph-name="dotlesskafar.fina.ss01" horiz-adv-x="2375" 
d="M1106 1357l-51 -243q-23 -15 -70 -45t-65.5 -41.5t-55.5 -36t-52.5 -35.5t-44 -31t-41.5 -31t-33 -28t-32 -30t-24.5 -28.5t-22.5 -31.5h1158q517 0 517 -446v-84h166v-208q-5 -12 -32 -23.5t-45 -14.5h-1869q-235 0 -353 92.5t-118 301.5q0 142 72 379l64 -13
q-15 -135 -15 -215q0 -112 35.5 -175.5t123 -93.5t245.5 -30h1582l-13 46q-19 77 -53.5 130t-84.5 82t-107.5 41.5t-132.5 12.5h-1332v31q0 45 10.5 98t43.5 129t85.5 150t146 159.5t214.5 159.5l151 97q33 -22 33 -25z" />
    <glyph glyph-name="dotlesskafar.ss01" horiz-adv-x="2414" 
d="M1106 1357l-51 -243q-23 -15 -70 -45t-65.5 -41.5t-55.5 -36t-52.5 -35.5t-44 -31t-41.5 -31t-33 -28t-32 -30t-24.5 -28.5t-22.5 -31.5h1158q517 0 517 -446v-330h-1780q-235 0 -353 92.5t-118 301.5q0 142 72 379l64 -13q-15 -135 -15 -215q0 -112 35.5 -175.5
t123 -93.5t245.5 -30h1582l-13 46q-19 77 -53.5 130t-84.5 82t-107.5 41.5t-132.5 12.5h-1332v31q0 45 10.5 98t43.5 129t85.5 150t146 159.5t214.5 159.5l151 97q33 -22 33 -25z" />
    <glyph glyph-name="dotcenterar.ss04" 
d="M0 241l-148 148l148 146l148 -146z" />
    </font>
</defs>
</svg>
